<?xml version="1.0" standalone="no"?>
<!DOCTYPE svg PUBLIC "-//W3C//DTD SVG 1.1//EN" "http://www.w3.org/Graphics/SVG/1.1/DTD/svg11.dtd" >
<svg xmlns="http://www.w3.org/2000/svg" xmlns:xlink="http://www.w3.org/1999/xlink" version="1.1">
<metadata>
Created by FontForge 20200427 at Thu Nov 24 07:34:30 2016
 By www
Copyright (c) MCKL, Inc. All rights reserved.
</metadata>
<defs>
<font id="adineuePROKZ-Bold" horiz-adv-x="540" >
  <font-face 
    font-family="adineue PRO KZ Bold"
    font-weight="700"
    font-stretch="normal"
    units-per-em="1000"
    panose-1="2 0 0 0 0 0 0 0 0 0"
    ascent="750"
    descent="-250"
    x-height="513"
    cap-height="685"
    bbox="-196 -219 4968 929"
    underline-thickness="50"
    underline-position="-100"
    unicode-range="U+000D-FB02"
  />
<missing-glyph horiz-adv-x="397" 
 />
    <glyph glyph-name=".notdef" horiz-adv-x="397" 
 />
    <glyph glyph-name=".null" horiz-adv-x="0" 
 />
    <glyph glyph-name=".null" horiz-adv-x="0" 
 />
    <glyph glyph-name="nonmarkingreturn" unicode="&#xd;" horiz-adv-x="235" 
 />
    <glyph glyph-name="space" unicode=" " horiz-adv-x="197" 
 />
    <glyph glyph-name="exclam" unicode="!" horiz-adv-x="218" 
d="M176 181h-139v504h139v-504zM37 0v139h139v-139h-139z" />
    <glyph glyph-name="quotedbl" unicode="&#x22;" horiz-adv-x="372" 
d="M43 444l-15 241h147l-19 -241h-113zM213 444l-16 241h147l-19 -241h-112z" />
    <glyph glyph-name="numbersign" unicode="#" horiz-adv-x="591" 
d="M344 405h-91l-9 -123h91zM324 143h-90l-11 -143h-131l10 143h-67v139h78l9 123h-87v139h97l10 141h132l-10 -141h90l10 141h132l-10 -141h70v-139h-80l-9 -123h89v-139h-100l-10 -143h-132z" />
    <glyph glyph-name="dollar" unicode="$" horiz-adv-x="589" 
d="M246 564q-26 -8 -39.5 -26t-13.5 -42q0 -28 15 -44.5t38 -27.5v140zM353 110q57 16 57 71q0 26 -15.5 41.5t-41.5 26.5v-139zM353 392q37 -9 74 -20.5t66 -32.5t47.5 -54.5t18.5 -85.5q0 -88 -55.5 -142t-150.5 -67v-83h-107v83q-101 13 -155 66.5t-58 139.5h147
q2 -26 17.5 -49t48.5 -35v165q-37 9 -73 23t-64.5 37t-46 58t-17.5 88q0 81 53 136.5t148 68.5v98h107v-98q95 -14 145 -68.5t55 -135.5h-146q-1 10 -3 21.5t-8 22t-16.5 19.5t-26.5 15v-170z" />
    <glyph glyph-name="percent" unicode="%" horiz-adv-x="839" 
d="M17 548q0 63 41 102.5t109 39.5q69 0 109.5 -39.5t40.5 -102.5v-119q0 -63 -40.5 -102t-109.5 -39q-34 0 -61.5 10t-47 29t-30.5 44.5t-11 57.5v119zM219 544q0 26 -14 41t-38 15t-38 -15t-14 -41v-111q0 -25 14 -40.5t38 -15.5t38 15.5t14 40.5v111zM204 0l306 685h132
l-306 -685h-132zM522 254q0 63 41 102.5t109 39.5q69 0 109.5 -39.5t40.5 -102.5v-119q0 -63 -40.5 -102t-109.5 -39q-34 0 -61.5 10t-47 29t-30.5 44.5t-11 57.5v119zM724 250q0 26 -14 41t-38 15t-38 -15t-14 -41v-111q0 -25 14 -40.5t38 -15.5t38 15.5t14 40.5v111z" />
    <glyph glyph-name="ampersand" unicode="&#x26;" horiz-adv-x="731" 
d="M253 508q0 -23 12 -45t30 -42q21 8 38.5 17.5t31 20.5t21 25.5t7.5 33.5q0 29 -18.5 46.5t-47.5 17.5t-51.5 -19t-22.5 -55zM248 283q-30 -16 -49 -36t-19 -52q0 -41 32 -62.5t82 -21.5q55 0 99 23zM486 40q-40 -24 -89 -37.5t-107 -13.5q-57 0 -104 13t-80.5 39
t-52.5 63.5t-19 87.5q0 70 37.5 113t99.5 70q-21 27 -37 60t-16 71q0 42 15 77.5t42.5 61t66 39.5t85.5 14q44 0 80.5 -13t62.5 -36t40.5 -54t14.5 -68q0 -40 -12.5 -69.5t-33.5 -52t-48.5 -39t-58.5 -29.5l116 -115q30 45 47 100.5t20 108.5h137q-6 -77 -31 -157.5
t-75 -146.5l128 -127h-189z" />
    <glyph glyph-name="quotesingle" unicode="'" horiz-adv-x="203" 
d="M42 444l-16 241h150l-19 -241h-115z" />
    <glyph glyph-name="parenleft" unicode="(" horiz-adv-x="336" 
d="M291 634q-55 -68 -89 -163.5t-34 -205.5q0 -111 32 -204.5t93 -167.5l-112 -64q-75 85 -115.5 198t-40.5 238q0 62 11.5 122.5t31.5 116.5t48.5 105t63.5 88z" />
    <glyph glyph-name="parenright" unicode=")" horiz-adv-x="336" 
d="M45 -108q55 68 89 163.5t34 205.5q0 111 -32 204.5t-93 167.5l112 64q75 -85 115.5 -198t40.5 -238q0 -62 -11.5 -122.5t-31.5 -116.5t-49 -105t-63 -88z" />
    <glyph glyph-name="asterisk" unicode="*" horiz-adv-x="345" 
d="M286 646l42 -75l-71 -39l71 -40l-42 -74l-70 39v-81h-88v82l-69 -40l-42 74l70 40l-70 39l42 75l69 -40v80h88v-80z" />
    <glyph glyph-name="plus" unicode="+" horiz-adv-x="440" 
d="M422 350v-131h-135v-142h-133v142h-136v131h136v143h133v-143h135z" />
    <glyph glyph-name="comma" unicode="," horiz-adv-x="201" 
d="M128 -96h-97l37 96h-38v145h143v-117z" />
    <glyph glyph-name="hyphen" unicode="-" horiz-adv-x="357" 
d="M31 218v131h295v-131h-295z" />
    <glyph glyph-name="period" unicode="." horiz-adv-x="201" 
d="M28 0v145h144v-145h-144z" />
    <glyph glyph-name="slash" unicode="/" horiz-adv-x="341" 
d="M9 0l180 685h144l-180 -685h-144z" />
    <glyph glyph-name="zero" unicode="0" horiz-adv-x="581" 
d="M32 447q0 52 18.5 97t52.5 78t81.5 52t105.5 19t106 -19t82 -52t52.5 -78t18.5 -97v-213q0 -53 -18.5 -97.5t-52.5 -77.5t-82 -51.5t-106 -18.5t-105.5 18.5t-81.5 51.5t-52.5 77.5t-18.5 97.5v213zM406 446q0 51 -32.5 82t-83.5 31t-83.5 -31t-32.5 -82v-211
q0 -51 32.5 -82t83.5 -31t83.5 31t32.5 82v211z" />
    <glyph glyph-name="one" unicode="1" horiz-adv-x="290" 
d="M106 0v545h-80v140h232v-685h-152z" />
    <glyph glyph-name="two" unicode="2" horiz-adv-x="554" 
d="M42 0v127l245 196q22 17 40 32.5t30 32t18.5 36t6.5 43.5q0 43 -28 68t-75 25q-53 0 -85 -25t-55 -62l-119 72q20 32 45.5 59.5t57.5 47.5t71.5 31.5t86.5 11.5q57 0 103 -17t77.5 -47t48.5 -70t17 -86q0 -42 -10 -76t-29.5 -64t-49 -58.5t-68.5 -59.5l-118 -90h276v-127
h-486z" />
    <glyph glyph-name="three" unicode="3" horiz-adv-x="572" 
d="M279 -12q-93 0 -154.5 41t-96.5 109l122 71q19 -37 49 -62.5t82 -25.5q54 0 86.5 32t32.5 84q0 51 -33 79.5t-87 28.5q-24 0 -44 -6.5t-35 -16.5l-66 100l172 131h-237v132h430v-131l-131 -100q81 -15 127.5 -73t46.5 -141q0 -53 -19 -99t-53.5 -80t-83 -53.5
t-108.5 -19.5z" />
    <glyph glyph-name="four" unicode="4" horiz-adv-x="594" 
d="M566 263v-129h-67v-134h-147v134h-325v129l304 424h168v-424h67zM352 263v226l-164 -226h164z" />
    <glyph glyph-name="five" unicode="5" horiz-adv-x="572" 
d="M282 -12q-93 0 -155 41t-97 109l122 72q9 -18 21 -34t27.5 -28.5t35.5 -19.5t46 -7q52 0 85.5 31.5t33.5 85.5q0 53 -33 83.5t-86 30.5q-26 0 -46 -8t-34.5 -19.5t-24 -25t-14.5 -24.5l-120 37l69 374h374v-137h-272l-21 -106q20 12 50 22t64 10q51 0 94.5 -16.5
t75.5 -47.5t50 -74t18 -95q0 -54 -19 -100.5t-53.5 -80.5t-83 -53.5t-107.5 -19.5z" />
    <glyph glyph-name="six" unicode="6" horiz-adv-x="562" 
d="M284 -11q-58 0 -105.5 19t-81.5 52.5t-52.5 80t-18.5 101.5q0 45 12 86t34 80l157 278h155l-121 -210q17 4 42 4q51 0 94.5 -18t75 -50.5t49.5 -76.5t18 -95t-18.5 -96.5t-52.5 -80t-81.5 -54.5t-105.5 -20zM284 117q26 0 48 9t38 25.5t25 38t9 47.5q0 25 -9 47t-25 38
t-38 25t-48 9t-48 -9t-38 -25t-25 -38t-9 -47q0 -26 9 -47.5t25 -38t38 -25.5t48 -9z" />
    <glyph glyph-name="seven" unicode="7" horiz-adv-x="532" 
d="M246 0h-161l265 545h-322v139h476v-135z" />
    <glyph glyph-name="eight" unicode="8" horiz-adv-x="564" 
d="M283 -10q-55 0 -100.5 16.5t-77.5 46t-50 71t-18 91.5q0 53 25.5 95.5t67.5 70.5q-54 52 -54 126q0 40 14.5 74.5t41.5 59.5t65.5 39.5t85.5 14.5t85 -15t65 -40.5t41.5 -59.5t14.5 -73q0 -74 -55 -126q45 -28 69.5 -71t24.5 -95q0 -47 -18 -88t-50 -71.5t-77 -48
t-100 -17.5zM283 432q34 0 55 21t21 53q0 34 -21 54.5t-55 20.5q-35 0 -56 -20.5t-21 -54.5q0 -32 21 -53t56 -21zM283 108q47 0 77.5 29.5t30.5 75.5q0 45 -30.5 73.5t-77.5 28.5q-48 0 -78 -28.5t-30 -73.5q0 -46 30 -75.5t78 -29.5z" />
    <glyph glyph-name="nine" unicode="9" horiz-adv-x="562" 
d="M182 0l119 206q-17 -4 -42 -4q-51 0 -94.5 18t-75 50t-49.5 76t-18 95t18.5 96.5t52.5 80t81.5 55t105.5 20.5t105 -19t81 -53t52.5 -80.5t18.5 -101.5q0 -45 -12 -86t-34 -79l-153 -274h-156zM280 325q26 0 48 9t38 25.5t25 38t9 47.5q0 25 -9 47t-25 38t-38 25t-48 9
t-48 -9t-38 -25t-25 -38t-9 -47q0 -26 9 -47.5t25 -38t38 -25.5t48 -9z" />
    <glyph glyph-name="colon" unicode=":" horiz-adv-x="201" 
d="M28 0v145h144v-145h-144zM28 368v145h144v-145h-144z" />
    <glyph glyph-name="semicolon" unicode=";" horiz-adv-x="201" 
d="M28 368v145h144v-145h-144zM128 -96h-97l37 96h-38v145h143v-117z" />
    <glyph glyph-name="less" unicode="&#x3c;" horiz-adv-x="440" 
d="M199 282l223 -77v-141l-404 162v115l404 161v-140z" />
    <glyph glyph-name="equal" unicode="=" horiz-adv-x="440" 
d="M18 309v138h404v-138h-404zM18 121v138h404v-138h-404z" />
    <glyph glyph-name="greater" unicode="&#x3e;" horiz-adv-x="440" 
d="M422 226l-404 -162v141l223 77l-223 80v140l404 -161v-115z" />
    <glyph glyph-name="question" unicode="?" horiz-adv-x="485" 
d="M8 491q11 91 71 146.5t162 55.5q54 0 96 -17.5t71 -47t44 -69t15 -83.5q0 -84 -48 -139.5t-126 -73.5v-82h-139v183q34 0 66.5 3.5t57.5 15.5t40 33.5t15 57.5q0 42 -26.5 68t-68.5 26q-45 0 -67.5 -22t-30.5 -55h-132zM154 0v139h139v-139h-139z" />
    <glyph glyph-name="at" unicode="@" horiz-adv-x="772" 
d="M397 -75q-80 0 -147.5 26.5t-116.5 73t-77 111t-28 140.5q0 73 26 138.5t74 115t116.5 78.5t152.5 29q78 0 142 -25t109.5 -68.5t70.5 -102.5t25 -128q0 -53 -13.5 -93.5t-36.5 -67.5t-55 -41t-69 -14q-32 0 -57 9.5t-39 28.5q-20 -22 -48 -34t-63 -12q-37 0 -69.5 13.5
t-57 38t-39 58t-14.5 72.5t14.5 73t39 58.5t57 38.5t69.5 14t61.5 -13t31.5 -19v29h112v-246q0 -14 7 -20t17 -6q12 0 24 7.5t21 23t15 40.5t6 61q0 52 -18 97t-52 78t-82.5 52t-109.5 19q-67 0 -118.5 -23t-87 -62t-54 -90t-18.5 -106q0 -62 21 -112t59 -85t89.5 -54
t113.5 -19q50 0 97 11.5t92 37.5l38 -71q-47 -31 -109 -45.5t-122 -14.5zM456 271q0 34 -24 58t-59 24q-16 0 -30.5 -6.5t-25 -17.5t-16.5 -26t-6 -32q0 -35 23 -58.5t55 -23.5q35 0 59 23.5t24 58.5z" />
    <glyph glyph-name="A" unicode="A" horiz-adv-x="685" 
d="M338 523l-89 -268h178zM473 118h-269l-39 -118h-159l242 685h190l241 -685h-167z" />
    <glyph glyph-name="B" unicode="B" horiz-adv-x="612" 
d="M42 685h282q57 0 99 -15t69 -40.5t40 -59t13 -71.5q0 -46 -21.5 -81.5t-64.5 -57.5q65 -20 98.5 -62t33.5 -102q0 -42 -15 -78t-45 -62t-75 -41t-106 -15h-308v685zM197 552v-140h116q40 0 60 20t20 51q0 30 -20 49.5t-60 19.5h-116zM197 281v-148h145q45 0 69.5 20
t24.5 52q0 34 -24.5 55t-70.5 21h-144z" />
    <glyph glyph-name="C" unicode="C" horiz-adv-x="719" 
d="M388 555q-44 0 -81 -16.5t-64.5 -45t-43 -67t-15.5 -82.5q0 -45 15.5 -84t43.5 -67.5t66.5 -45t83.5 -16.5q63 0 110.5 30t76.5 81l121 -84q-50 -81 -125.5 -126.5t-180.5 -45.5q-79 0 -146.5 27.5t-117 76t-77.5 114t-28 140.5t28 139.5t76.5 112.5t115.5 75.5t145 27.5
q102 0 180 -42t127 -129l-123 -85q-30 50 -75.5 81t-111.5 31z" />
    <glyph glyph-name="D" unicode="D" horiz-adv-x="697" 
d="M42 685h280q79 0 143.5 -26.5t110 -72t70.5 -107.5t25 -133q0 -72 -26 -135.5t-73 -110t-112.5 -73.5t-145.5 -27h-272v685zM197 543v-401h122q42 0 77.5 15t62 42t41.5 64t15 81q0 43 -15 79.5t-42 63t-64 41.5t-80 15h-117z" />
    <glyph glyph-name="E" unicode="E" horiz-adv-x="571" 
d="M42 685h501v-140h-346v-129h320v-136h-320v-140h347v-140h-502v685z" />
    <glyph glyph-name="F" unicode="F" horiz-adv-x="552" 
d="M197 243v-243h-155v685h484v-142h-329v-164h303v-136h-303z" />
    <glyph glyph-name="G" unicode="G" horiz-adv-x="766" 
d="M742 344q0 -77 -25.5 -142.5t-71 -113.5t-109.5 -75t-141 -27q-81 0 -149 28t-117 76.5t-76 113.5t-27 139q0 73 26.5 138t75 113.5t116.5 76.5t151 28q97 0 169.5 -37t119.5 -104l-114 -97q-35 44 -78 68.5t-97 24.5q-45 0 -83.5 -15.5t-67 -44t-44.5 -68t-16 -87.5
q0 -45 15.5 -83.5t43 -66t65.5 -43.5t83 -16q69 0 113.5 32t64.5 87h-182v135h355v-40v0z" />
    <glyph glyph-name="H" unicode="H" horiz-adv-x="684" 
d="M487 268h-290v-268h-155v685h155v-275h290v275h155v-685h-155v268z" />
    <glyph glyph-name="I" unicode="I" horiz-adv-x="238" 
d="M42 0v685h155v-685h-155z" />
    <glyph glyph-name="J" unicode="J" horiz-adv-x="575" 
d="M180 245q0 -60 26.5 -86.5t74.5 -26.5t74.5 32.5t26.5 86.5v434h155v-434q0 -59 -16.5 -107.5t-49 -83t-80 -53.5t-109.5 -19q-60 0 -107.5 17t-81 50t-51 80.5t-17.5 109.5h155z" />
    <glyph glyph-name="K" unicode="K" horiz-adv-x="627" 
d="M441 685h181l-272 -342l280 -343h-201l-232 292v-292h-155v685h155v-319z" />
    <glyph glyph-name="L" unicode="L" horiz-adv-x="544" 
d="M42 685h155v-543h318v-142h-473v685z" />
    <glyph glyph-name="M" unicode="M" horiz-adv-x="858" 
d="M191 409v-409h-149v685h186l201 -453l201 453h186v-685h-152v411l-186 -411h-102z" />
    <glyph glyph-name="N" unicode="N" horiz-adv-x="678" 
d="M191 434v-434h-149v685h169l276 -435v435h149v-685h-169z" />
    <glyph glyph-name="O" unicode="O" horiz-adv-x="778" 
d="M389 -14q-75 0 -141 27t-115.5 75t-78 113t-28.5 141t28.5 141.5t78 113.5t115.5 75t141 27q77 0 143.5 -27t115 -75t76.5 -113t28 -141q0 -77 -28 -142t-76.5 -113t-115 -75t-143.5 -27zM389 130q43 0 80.5 16.5t65.5 45t43.5 67.5t15.5 84t-15.5 83.5t-43.5 67
t-65.5 45t-80.5 16.5q-44 0 -81 -16.5t-65 -45t-43.5 -67.5t-15.5 -84t15.5 -84t43.5 -67.5t65 -44.5t81 -16z" />
    <glyph glyph-name="P" unicode="P" horiz-adv-x="606" 
d="M197 191v-191h-155v685h295q58 0 103.5 -19t77 -52t47.5 -77t16 -94q0 -53 -17.5 -98.5t-51 -80t-81.5 -54t-108 -19.5h-126zM197 543v-210h122q50 0 78 29.5t28 76.5t-28.5 75.5t-82.5 28.5h-117z" />
    <glyph glyph-name="Q" unicode="Q" horiz-adv-x="778" 
d="M569 30q-40 -21 -85 -32.5t-95 -11.5q-75 0 -141 27t-115.5 75t-78 113t-28.5 141t28.5 141.5t78 113.5t115.5 75t141 27q77 0 143.5 -27t115 -75t76.5 -113t28 -141q0 -66 -20.5 -124t-58.5 -104l94 -103l-140 -46zM389 130q39 0 76 14l-99 108l140 46l60 -66
q28 50 28 111q0 45 -15.5 83.5t-43.5 67t-65.5 45t-80.5 16.5q-44 0 -81 -16.5t-65 -45t-43.5 -67.5t-15.5 -84t15.5 -84t43.5 -67.5t65 -44.5t81 -16z" />
    <glyph glyph-name="R" unicode="R" horiz-adv-x="615" 
d="M197 543v-183h109q51 0 79.5 25.5t28.5 65.5t-25.5 66t-77.5 26h-114zM197 0h-155v685h292q55 0 98.5 -17t74 -47t47 -72t16.5 -92q0 -40 -13 -76t-37 -65t-59 -49t-78 -29l218 -238h-202l-202 233v-233z" />
    <glyph glyph-name="S" unicode="S" horiz-adv-x="588" 
d="M291 -13q-131 0 -200.5 60.5t-76.5 166.5h155q1 -20 8 -38.5t21.5 -33t38 -23.5t58.5 -9q59 0 88.5 21t29.5 53q0 20 -11.5 33t-31.5 22.5t-46.5 16t-55.5 12.5q-41 10 -84 22.5t-78 36.5t-57.5 62.5t-22.5 99.5q0 45 17 83.5t50 66t80.5 43.5t109.5 16q63 0 111.5 -16.5
t82 -46t52.5 -71t23 -91.5h-156q-2 41 -28 70t-89 29q-47 0 -75 -18t-28 -52q0 -22 12 -36.5t32 -24.5t46.5 -17t55.5 -14q42 -9 85.5 -21t79.5 -34t58.5 -58t22.5 -94q0 -47 -18 -86.5t-53.5 -68.5t-87 -45t-118.5 -16z" />
    <glyph glyph-name="T" unicode="T" horiz-adv-x="593" 
d="M219 0v543h-204v142h563v-142h-204v-543h-155z" />
    <glyph glyph-name="U" unicode="U" horiz-adv-x="666" 
d="M335 -12q-72 0 -127.5 20.5t-93 58t-57 89.5t-19.5 116v413h155v-392q0 -78 36.5 -119.5t104.5 -41.5q67 0 103 41.5t36 119.5v392h155v-413q0 -64 -19 -116t-56.5 -89.5t-92 -58t-125.5 -20.5z" />
    <glyph glyph-name="V" unicode="V" horiz-adv-x="677" 
d="M243 0l-237 685h167l169 -518l169 518h160l-238 -685h-190z" />
    <glyph glyph-name="W" unicode="W" horiz-adv-x="959" 
d="M478 423l-118 -423h-184l-167 685h163l105 -492l137 492h137l136 -497l109 497h154l-167 -685h-185z" />
    <glyph glyph-name="X" unicode="X" horiz-adv-x="647" 
d="M318 227l-142 -227h-172l230 344l-223 341h180l138 -219l137 219h173l-225 -337l228 -348h-180z" />
    <glyph glyph-name="Y" unicode="Y" horiz-adv-x="671" 
d="M258 0v256l-249 429h171l158 -288l159 288h166l-249 -430v-255h-156z" />
    <glyph glyph-name="Z" unicode="Z" horiz-adv-x="588" 
d="M221 139h338v-139h-532v128l331 418h-330v139h525v-130z" />
    <glyph glyph-name="bracketleft" unicode="[" horiz-adv-x="320" 
d="M173 560v-592h116v-128h-256v845h256v-125h-116z" />
    <glyph glyph-name="backslash" unicode="\" horiz-adv-x="341" 
d="M189 0l-180 685h144l180 -685h-144z" />
    <glyph glyph-name="bracketright" unicode="]" horiz-adv-x="320" 
d="M31 560v125h256v-845h-256v128h116v592h-116z" />
    <glyph glyph-name="asciicircum" unicode="^" horiz-adv-x="440" 
d="M277 81l-57 199l-54 -199h-145l136 403h128l137 -403h-145z" />
    <glyph glyph-name="underscore" unicode="_" horiz-adv-x="500" 
d="M-1 -175v130h502v-130h-502z" />
    <glyph glyph-name="grave" unicode="`" horiz-adv-x="400" 
d="M311 543l-234 55v125l234 -57v-123z" />
    <glyph glyph-name="a" unicode="a" horiz-adv-x="595" 
d="M290 392q-29 0 -53.5 -11t-42.5 -29.5t-28.5 -44t-10.5 -53.5q0 -29 10.5 -54t28.5 -44t42.5 -29.5t53.5 -10.5q30 0 55.5 10.5t44.5 29.5t29.5 44t10.5 54q0 28 -11 53.5t-30 44t-44.5 29.5t-54.5 11zM428 38q-27 -21 -66.5 -33t-83.5 -12q-53 0 -100 20t-82 55
t-56 82.5t-21 103.5q0 55 21 103.5t56 84t82 56t100 20.5q44 0 83.5 -12.5t66.5 -33.5v41h139v-513h-139v38z" />
    <glyph glyph-name="b" unicode="b" horiz-adv-x="595" 
d="M317 -7q-44 0 -83.5 12t-66.5 33v-38h-139v685h139v-213q27 21 66.5 33.5t83.5 12.5q52 0 99.5 -20.5t82.5 -56t56 -84t21 -103.5q0 -56 -21 -103.5t-56 -82.5t-82.5 -55t-99.5 -20zM305 116q28 0 53 10.5t43 29.5t28.5 44t10.5 54q0 28 -10.5 53.5t-28.5 44t-43 29.5
t-53 11q-29 0 -54.5 -11t-44.5 -29.5t-30 -44t-11 -53.5q0 -29 10.5 -54t29.5 -44t44.5 -29.5t55.5 -10.5z" />
    <glyph glyph-name="c" unicode="c" horiz-adv-x="543" 
d="M529 119q-37 -60 -95.5 -95.5t-143.5 -35.5q-60 0 -109.5 21t-85.5 57t-56 84.5t-20 104.5t20 105t56 85t85.5 57t109.5 21q85 0 144.5 -37t95.5 -97l-109 -68q-20 32 -49 53.5t-77 21.5q-61 0 -98.5 -39t-37.5 -102t37.5 -102.5t98.5 -39.5q48 0 77 21.5t49 53.5z" />
    <glyph glyph-name="d" unicode="d" horiz-adv-x="595" 
d="M290 116q30 0 55.5 10.5t44.5 29.5t29.5 44t10.5 54q0 28 -11 53.5t-30 44t-44.5 29.5t-54.5 11t-53.5 -11t-42.5 -29.5t-28.5 -44t-10.5 -53.5q0 -29 10.5 -54t28.5 -44t42.5 -29.5t53.5 -10.5zM428 38q-27 -21 -66.5 -33t-83.5 -12q-53 0 -100 20t-82 55t-56 82.5
t-21 103.5q0 55 21 103.5t56 84t82 56t100 20.5q44 0 83.5 -12.5t66.5 -33.5v213h139v-685h-139v38z" />
    <glyph glyph-name="e" unicode="e" horiz-adv-x="570" 
d="M532 110q-38 -57 -97.5 -89.5t-145.5 -32.5q-62 0 -111.5 20.5t-85 56t-54.5 84.5t-19 106q0 55 19.5 104t55.5 85.5t86 57.5t110 21q61 0 109 -20t81.5 -55t51.5 -82.5t18 -103.5q0 -15 -1 -31t-1 -18h-392q11 -49 46.5 -78t89.5 -29q47 0 80.5 18.5t55.5 49.5zM289 409
q-49 0 -81.5 -24.5t-46.5 -68.5h249q-11 47 -45 70t-76 23z" />
    <glyph glyph-name="f" unicode="f" horiz-adv-x="375" 
d="M307 578q-34 0 -51 -14t-17 -46v-5h116v-124h-116v-389h-139v389h-80v124h80v6q0 83 50.5 128t150.5 45h54v-114h-48z" />
    <glyph glyph-name="g" unicode="g" horiz-adv-x="587" 
d="M286 396q-27 0 -51 -10.5t-42 -29t-28.5 -43t-10.5 -52.5q0 -29 10.5 -53.5t28.5 -42.5t42 -28.5t51 -10.5q30 0 55 10.5t43.5 28.5t29 42.5t10.5 53.5q0 28 -10.5 52.5t-29 43t-44 29t-54.5 10.5zM285 -188q-87 0 -147.5 31.5t-100.5 88.5l100 68q23 -32 59.5 -51.5
t86.5 -19.5q65 0 102 27t37 82v14q-56 -47 -148 -47q-51 0 -97.5 19.5t-81.5 54t-55.5 81.5t-20.5 102q0 54 20.5 101.5t55.5 82.5t81.5 55t97.5 20t88 -14t60 -32v38h138v-463q0 -50 -18 -93t-53 -75.5t-86.5 -51t-117.5 -18.5z" />
    <glyph glyph-name="h" unicode="h" 
d="M167 461q7 10 20.5 20.5t33 19.5t43 15t50.5 6q45 0 81.5 -15t62.5 -42t40 -65.5t14 -84.5v-315h-138v291q0 46 -24.5 74.5t-69.5 28.5q-51 0 -82 -30t-31 -84v-280h-139v685h139v-224v0z" />
    <glyph glyph-name="i" unicode="i" horiz-adv-x="195" 
d="M28 557v128h139v-128h-139zM28 0v513h139v-513h-139z" />
    <glyph glyph-name="j" unicode="j" horiz-adv-x="195" 
d="M28 557v128h139v-128h-139zM167 37q0 -58 -12.5 -98.5t-39 -66.5t-68.5 -38t-101 -12v123q42 0 62 19.5t20 62.5v486h139v-476z" />
    <glyph glyph-name="k" unicode="k" horiz-adv-x="503" 
d="M338 513h158l-197 -255l205 -258h-173l-163 211v-211h-140v685h140v-402z" />
    <glyph glyph-name="l" unicode="l" horiz-adv-x="196" 
d="M28 0v685h140v-685h-140z" />
    <glyph glyph-name="m" unicode="m" horiz-adv-x="850" 
d="M165 462q10 10 23.5 20.5t31.5 19.5t39.5 14.5t47.5 5.5q44 0 81.5 -16.5t65.5 -53.5q30 32 71 51t97 19q47 0 84 -14.5t63 -41.5t39.5 -64.5t13.5 -83.5v-318h-138v295q0 45 -22.5 72t-63.5 27q-47 0 -75.5 -29.5t-28.5 -81.5v-283h-137v295q0 45 -22.5 72t-63.5 27
q-47 0 -75.5 -29.5t-28.5 -81.5v-283h-139v513h137v-51z" />
    <glyph glyph-name="n" unicode="n" 
d="M165 461q19 22 57 41.5t92 19.5q45 0 81.5 -15t62.5 -42t40 -65.5t14 -84.5v-315h-138v291q0 46 -24.5 74.5t-69.5 28.5q-51 0 -82 -30t-31 -84v-280h-139v513h137v-52z" />
    <glyph glyph-name="o" unicode="o" horiz-adv-x="587" 
d="M294 523q59 0 109.5 -21t87.5 -57t58 -85t21 -105t-21 -104.5t-58 -84.5t-87.5 -57t-109.5 -21t-109.5 20.5t-87.5 56.5t-57.5 85t-20.5 105t21 105t57.5 85t87 57t109.5 21zM294 397q-29 0 -54.5 -10.5t-44 -29.5t-29 -45t-10.5 -57t10 -57t28 -45t43 -30t54 -11t55 11
t45 30t30 45t11 57t-10.5 57t-29 45t-44 29.5t-54.5 10.5z" />
    <glyph glyph-name="p" unicode="p" horiz-adv-x="595" 
d="M305 392q-30 0 -55.5 -10.5t-44.5 -29.5t-29.5 -44t-10.5 -54t11 -54t30 -43.5t44.5 -29.5t54.5 -11q28 0 53 11t43 29.5t28.5 43.5t10.5 54t-10.5 54t-28.5 44t-43 29.5t-53 10.5zM317 -7q-44 0 -83.5 12.5t-66.5 33.5v-215h-139v689h139v-40q27 21 66.5 33t83.5 12
q52 0 99.5 -20t82.5 -55t56 -83t21 -103q0 -56 -21 -104t-56 -83.5t-82.5 -56t-99.5 -20.5z" />
    <glyph glyph-name="q" unicode="q" horiz-adv-x="595" 
d="M428 -176v215q-27 -21 -66.5 -33.5t-83.5 -12.5q-53 0 -100 20.5t-82 56t-56 83.5t-21 104q0 55 21 103t56 83t82 55t100 20q44 0 83.5 -12t66.5 -33v40h139v-689h-139zM290 392q-29 0 -53.5 -10.5t-42.5 -29.5t-28.5 -44t-10.5 -54t10.5 -54t28.5 -43.5t42.5 -29.5
t53.5 -11t54.5 11t44.5 29.5t30 43.5t11 54t-10.5 54t-29.5 44t-44.5 29.5t-55.5 10.5z" />
    <glyph glyph-name="r" unicode="r" horiz-adv-x="338" 
d="M28 0v513h139v-70q26 35 63.5 56t85.5 21v-140q-77 0 -112.5 -39.5t-35.5 -106.5v-234h-140z" />
    <glyph glyph-name="s" unicode="s" horiz-adv-x="497" 
d="M161 161q0 -12 4.5 -24t15.5 -22t29 -17t46 -7q39 0 57.5 15t18.5 33q0 12 -7 20.5t-19 13.5t-28.5 8.5t-35.5 6.5q-34 6 -71.5 13t-69 23.5t-52 46.5t-20.5 82q0 35 15 65t42.5 52.5t66.5 35.5t88 13q98 0 156 -46t64 -124h-139q-1 14 -4.5 26t-12.5 20.5t-24 13.5
t-38 5q-30 0 -51.5 -10.5t-21.5 -34.5q0 -14 9 -23.5t25 -15.5t37 -10t44 -8q33 -6 67.5 -13.5t63 -23.5t46.5 -42.5t18 -69.5q0 -46 -18 -78.5t-49 -53.5t-73.5 -31t-90.5 -10q-53 0 -94.5 13t-71 36t-46 54t-17.5 68h141z" />
    <glyph glyph-name="t" unicode="t" horiz-adv-x="383" 
d="M359 513v-124h-126v-206q0 -35 16.5 -49.5t51.5 -14.5h58v-119h-68q-103 0 -150 44.5t-47 131.5v213h-74v124h74v132h139v-132h126z" />
    <glyph glyph-name="u" unicode="u" 
d="M375 0v51q-26 -28 -64 -44t-85 -16q-45 0 -81.5 15t-62.5 42t-40 65t-14 85v315h138v-291q0 -46 25 -74.5t70 -28.5q51 0 82 30t31 84v280h138v-513h-137z" />
    <glyph glyph-name="v" unicode="v" 
d="M177 0l-167 513h152l111 -381l110 381h147l-167 -513h-186z" />
    <glyph glyph-name="w" unicode="w" horiz-adv-x="777" 
d="M387 293l-70 -293h-176l-131 513h140l84 -353l87 353h140l86 -355l85 355h135l-132 -513h-178z" />
    <glyph glyph-name="x" unicode="x" horiz-adv-x="527" 
d="M518 0h-166l-90 155l-91 -155h-162l165 261l-161 252h165l86 -146l85 146h162l-160 -250z" />
    <glyph glyph-name="y" unicode="y" horiz-adv-x="530" 
d="M349 18q-18 -51 -39.5 -88t-49.5 -61t-64 -35t-83 -11h-50v125h42q35 0 58 18t37 48l-191 499h159l105 -316l104 316h144z" />
    <glyph glyph-name="z" unicode="z" horiz-adv-x="477" 
d="M214 121h239v-121h-429v108l238 282h-240v123h430v-110z" />
    <glyph glyph-name="braceleft" unicode="{" horiz-adv-x="348" 
d="M278 559q-29 0 -47.5 -14t-18.5 -40q0 -18 6.5 -33.5t14.5 -32t14.5 -35t6.5 -42.5q0 -21 -6.5 -37.5t-16.5 -29t-21 -21t-20 -11.5q9 -3 20.5 -11.5t21 -21t16 -29.5t6.5 -37q0 -24 -6.5 -42.5t-14.5 -35t-14.5 -32t-6.5 -33.5q0 -26 18.5 -39.5t47.5 -13.5h39v-127h-88
q-35 0 -64.5 10.5t-50.5 29t-33 45t-12 58.5q0 30 7.5 50.5t16.5 37t16.5 32t7.5 35.5q0 30 -18 50t-63 20h-6v110h6q45 0 63 19t18 49q0 20 -7.5 35.5t-16.5 32t-16.5 37t-7.5 50.5q0 32 12 58.5t33 45.5t50.5 29.5t64.5 10.5h88v-127h-39z" />
    <glyph glyph-name="bar" unicode="|" horiz-adv-x="195" 
d="M28 -143v828h140v-828h-140z" />
    <glyph glyph-name="braceright" unicode="}" horiz-adv-x="348" 
d="M71 -32q29 0 47.5 14t18.5 40q0 18 -6.5 33.5t-14.5 32t-14.5 35t-6.5 42.5q0 21 6.5 37.5t16.5 29t21 21t20 11.5q-9 3 -20.5 11.5t-21 21t-16 29.5t-6.5 37q0 24 6.5 42.5t14.5 35t14.5 32t6.5 33.5q0 26 -18.5 39.5t-47.5 13.5h-39v127h88q35 0 64.5 -10.5t50.5 -29
t33 -45t12 -58.5q0 -30 -7.5 -51t-16.5 -37.5t-16.5 -31.5t-7.5 -35q0 -30 18 -50t63 -20h6v-110h-6q-45 0 -63 -19t-18 -49q0 -20 7.5 -35.5t16.5 -32t16.5 -37t7.5 -50.5q0 -32 -12 -58.5t-33 -45.5t-50.5 -29.5t-64.5 -10.5h-88v127h39z" />
    <glyph glyph-name="asciitilde" unicode="~" horiz-adv-x="440" 
d="M301 198q-29 0 -52.5 7t-45.5 15t-43.5 15t-45.5 7q-26 0 -52.5 -11t-43.5 -25v118q18 19 48 38t73 19q29 0 53 -7t46 -15t43 -15t45 -7q26 0 52.5 11t43.5 25v-118q-18 -19 -48 -38t-73 -19z" />
    <glyph glyph-name="uni0492" horiz-adv-x="562" 
d="M52 377v308h484v-142h-329v-166h218v-131h-218v-246h-155v246h-50v131h50z" />
    <glyph glyph-name="uni0492" unicode="&#x492;" horiz-adv-x="562" 
d="M52 377v308h484v-142h-329v-166h218v-131h-218v-246h-155v246h-50v131h50z" />
    <glyph glyph-name="uni049A" horiz-adv-x="645" 
d="M483 0h-54l-232 292v-292h-155v685h155v-319l244 319h181l-272 -342l164 -201h116v-273l-147 -10v141z" />
    <glyph glyph-name="uni049A" unicode="&#x49a;" horiz-adv-x="645" 
d="M483 0h-54l-232 292v-292h-155v685h155v-319l244 319h181l-272 -342l164 -201h116v-273l-147 -10v141z" />
    <glyph glyph-name="uni04BA" horiz-adv-x="618" 
d="M595 0h-155v151q0 57 -30 93t-84 36q-58 0 -93.5 -37t-35.5 -101v-142h-155v685h155v-335q23 26 66 46t103 20q52 0 94 -18t72 -50t46.5 -78t16.5 -101v-169z" />
    <glyph glyph-name="uni04BA" unicode="&#x4ba;" horiz-adv-x="618" 
d="M595 0h-155v151q0 57 -30 93t-84 36q-58 0 -93.5 -37t-35.5 -101v-142h-155v685h155v-335q23 26 66 46t103 20q52 0 94 -18t72 -50t46.5 -78t16.5 -101v-169z" />
    <glyph glyph-name="uni049B" horiz-adv-x="514" 
d="M375 0h-44l-163 211v-211h-140v513h140v-230l170 230h158l-197 -255l107 -135h98v-254l-129 -10v141z" />
    <glyph glyph-name="uni049B" unicode="&#x49b;" horiz-adv-x="514" 
d="M375 0h-44l-163 211v-211h-140v513h140v-230l170 230h158l-197 -255l107 -135h98v-254l-129 -10v141z" />
    <glyph glyph-name="uni04BB" 
d="M167 461q7 10 20.5 20.5t33 19.5t43 15t50.5 6q45 0 81.5 -15t62.5 -42t40 -65.5t14 -84.5v-315h-138v291q0 46 -24.5 74.5t-69.5 28.5q-51 0 -82 -30t-31 -84v-280h-139v685h139v-224v0z" />
    <glyph glyph-name="uni04BB" unicode="&#x4bb;" 
d="M167 461q7 10 20.5 20.5t33 19.5t43 15t50.5 6q45 0 81.5 -15t62.5 -42t40 -65.5t14 -84.5v-315h-138v291q0 46 -24.5 74.5t-69.5 28.5q-51 0 -82 -30t-31 -84v-280h-139v685h139v-224v0z" />
    <glyph glyph-name="nonbreakingspace" unicode="&#xa0;" horiz-adv-x="190" 
 />
    <glyph glyph-name="afii10062" unicode="&#xa1;" horiz-adv-x="614" 
d="M315 0h-159l97 215l-253 470h172l156 -303l137 303h159zM327 718q-58 0 -94 15t-47 27v120q23 -20 58 -36.5t83 -16.5t83 16.5t58 36.5v-120q-11 -12 -47 -27t-94 -15z" />
    <glyph glyph-name="afii10062" unicode="&#x40e;" horiz-adv-x="614" 
d="M315 0h-159l97 215l-253 470h172l156 -303l137 303h159zM327 718q-58 0 -94 15t-47 27v120q23 -20 58 -36.5t83 -16.5t83 16.5t58 36.5v-120q-11 -12 -47 -27t-94 -15z" />
    <glyph glyph-name="afii10110" unicode="&#xa2;" horiz-adv-x="530" 
d="M349 18q-18 -51 -39.5 -88t-49.5 -61t-64 -35t-83 -11h-50v125h42q35 0 58 18t37 48l-191 499h159l105 -316l104 316h144zM272 548q-58 0 -94 16t-47 28v116q23 -20 58 -35.5t83 -15.5t83 15.5t58 35.5v-116q-11 -12 -47 -28t-94 -16z" />
    <glyph glyph-name="afii10110" unicode="&#x45e;" horiz-adv-x="530" 
d="M349 18q-18 -51 -39.5 -88t-49.5 -61t-64 -35t-83 -11h-50v125h42q35 0 58 18t37 48l-191 499h159l105 -316l104 316h144zM272 548q-58 0 -94 16t-47 28v116q23 -20 58 -35.5t83 -15.5t83 15.5t58 35.5v-116q-11 -12 -47 -28t-94 -16z" />
    <glyph glyph-name="afii10057" unicode="&#xa3;" horiz-adv-x="575" 
d="M180 245q0 -60 26.5 -86.5t74.5 -26.5t74.5 32.5t26.5 86.5v434h155v-434q0 -59 -16.5 -107.5t-49 -83t-80 -53.5t-109.5 -19q-60 0 -107.5 17t-81 50t-51 80.5t-17.5 109.5h155z" />
    <glyph glyph-name="afii10057" unicode="&#x408;" horiz-adv-x="575" 
d="M180 245q0 -60 26.5 -86.5t74.5 -26.5t74.5 32.5t26.5 86.5v434h155v-434q0 -59 -16.5 -107.5t-49 -83t-80 -53.5t-109.5 -19q-60 0 -107.5 17t-81 50t-51 80.5t-17.5 109.5h155z" />
    <glyph glyph-name="uni0498" unicode="&#xa5;" horiz-adv-x="532" 
d="M258 -217q-43 0 -69.5 26t-28.5 64h71q2 -11 9.5 -18.5t18.5 -7.5t19 7.5t8 18.5q0 12 -7.5 19.5t-19.5 7.5h-76l41 90q-69 8 -118.5 41.5t-84.5 98.5l131 73q19 -36 46 -55t66 -19q42 0 67.5 21t25.5 58q0 33 -23 50.5t-65 17.5h-84v141h78q35 0 57.5 18.5t22.5 51.5
q0 31 -23 50.5t-62 19.5q-35 0 -60.5 -18.5t-42.5 -50.5l-125 74q16 28 38 53t51 43.5t65.5 29t82.5 10.5q51 0 93 -16t72.5 -43.5t47 -64.5t16.5 -79q0 -45 -20 -80t-54 -58q43 -22 66.5 -61.5t23.5 -90.5q0 -44 -16.5 -82t-46.5 -67.5t-72.5 -47t-94.5 -20.5l-15 -30
q40 0 64.5 -23.5t24.5 -61.5q0 -37 -26.5 -63.5t-71.5 -26.5z" />
    <glyph glyph-name="uni0498" unicode="&#x498;" horiz-adv-x="532" 
d="M258 -217q-43 0 -69.5 26t-28.5 64h71q2 -11 9.5 -18.5t18.5 -7.5t19 7.5t8 18.5q0 12 -7.5 19.5t-19.5 7.5h-76l41 90q-69 8 -118.5 41.5t-84.5 98.5l131 73q19 -36 46 -55t66 -19q42 0 67.5 21t25.5 58q0 33 -23 50.5t-65 17.5h-84v141h78q35 0 57.5 18.5t22.5 51.5
q0 31 -23 50.5t-62 19.5q-35 0 -60.5 -18.5t-42.5 -50.5l-125 74q16 28 38 53t51 43.5t65.5 29t82.5 10.5q51 0 93 -16t72.5 -43.5t47 -64.5t16.5 -79q0 -45 -20 -80t-54 -58q43 -22 66.5 -61.5t23.5 -90.5q0 -44 -16.5 -82t-46.5 -67.5t-72.5 -47t-94.5 -20.5l-15 -30
q40 0 64.5 -23.5t24.5 -61.5q0 -37 -26.5 -63.5t-71.5 -26.5z" />
    <glyph glyph-name="uni04B0" unicode="&#xa6;" horiz-adv-x="671" 
d="M258 256l-249 429h171l158 -288l159 288h166l-249 -429h133v-131h-133v-125h-156v125h-133v131h133z" />
    <glyph glyph-name="uni04B0" unicode="&#x4b0;" horiz-adv-x="671" 
d="M258 256l-249 429h171l158 -288l159 288h166l-249 -429h133v-131h-133v-125h-156v125h-133v131h133z" />
    <glyph glyph-name="section" unicode="&#xa7;" horiz-adv-x="488" 
d="M146 301q0 -21 14.5 -32.5t38 -18t52.5 -10.5t59 -10q32 14 32 45q0 21 -15 33t-38.5 19t-53 11.5t-59.5 10.5q-30 -17 -30 -48zM320 477q-1 11 -4 21.5t-11 19t-22 14t-38 5.5q-32 0 -51.5 -14t-19.5 -34q0 -22 22 -32t55 -15.5t71.5 -11t71.5 -19t55 -39.5t22 -72
q0 -37 -16 -65t-44 -47q17 -14 27 -35.5t10 -51.5q0 -72 -55.5 -114t-150.5 -42q-50 0 -88 12t-64.5 33t-40.5 50t-15 63h131q1 -11 4 -21.5t11.5 -19t23.5 -14t39 -5.5q33 0 52 13t19 33q0 23 -22 33t-54.5 16t-71 11.5t-71 19.5t-54.5 40.5t-22 73.5q0 36 15.5 63.5
t44.5 46.5q-17 15 -27 36t-10 51q0 34 14 62.5t40 49.5t64 32.5t86 11.5q97 0 149 -43.5t57 -115.5h-132z" />
    <glyph glyph-name="afii10023" unicode="&#xa8;" horiz-adv-x="571" 
d="M42 685h501v-140h-346v-129h320v-136h-320v-140h347v-140h-502v685zM138 728v129h134v-129h-134zM310 728v129h134v-129h-134z" />
    <glyph glyph-name="afii10023" unicode="&#x401;" horiz-adv-x="571" 
d="M42 685h501v-140h-346v-129h320v-136h-320v-140h347v-140h-502v685zM138 728v129h134v-129h-134zM310 728v129h134v-129h-134z" />
    <glyph glyph-name="copyright" unicode="&#xa9;" horiz-adv-x="627" 
d="M314 695q63 0 116.5 -22.5t92.5 -61.5t61.5 -92.5t22.5 -115.5t-22.5 -115.5t-61.5 -92.5t-92.5 -61.5t-116.5 -22.5t-117 22.5t-93 61.5t-61.5 92.5t-22.5 115.5t22.5 115.5t61.5 92.5t93 61.5t117 22.5zM314 621q-46 0 -85 -17t-67 -47t-44 -69.5t-16 -84.5t16 -84.5
t44 -69.5t67 -47t85 -17t84.5 17t67 47t44.5 69.5t16 84.5t-16 84.5t-44.5 69.5t-67 47t-84.5 17zM460 332q-18 -37 -53.5 -60t-89.5 -23q-33 0 -62 12t-50.5 33t-33.5 49t-12 60t12 60t33.5 49t50.5 33t62 12q54 0 89.5 -23t53.5 -60l-86 -47q-8 14 -20.5 26.5t-38.5 12.5
q-28 0 -44 -19t-16 -44t16 -44t44 -19q26 0 38.5 12.5t20.5 26.5z" />
    <glyph glyph-name="uni04D8" unicode="&#xaa;" horiz-adv-x="777" 
d="M507 3q-54 -17 -119 -17q-75 0 -141 27t-115.5 75t-78 113t-28.5 141q0 17 2 34t5 34h553q-9 31 -27 57.5t-43.5 46t-56.5 30.5t-65 11q-69 0 -116 -30t-77 -81l-119 83q109 172 317 172q75 0 140 -27.5t112 -75.5t74 -112.5t27 -139.5q0 -61 -17.5 -115.5t-50 -98.5
t-77.5 -77t-99 -50zM389 131q36 0 67.5 10.5t57 29t44 43.5t27.5 54h-390q21 -62 73 -99.5t121 -37.5z" />
    <glyph glyph-name="uni04D8" unicode="&#x4d8;" horiz-adv-x="777" 
d="M507 3q-54 -17 -119 -17q-75 0 -141 27t-115.5 75t-78 113t-28.5 141q0 17 2 34t5 34h553q-9 31 -27 57.5t-43.5 46t-56.5 30.5t-65 11q-69 0 -116 -30t-77 -81l-119 83q109 172 317 172q75 0 140 -27.5t112 -75.5t74 -112.5t27 -139.5q0 -61 -17.5 -115.5t-50 -98.5
t-77.5 -77t-99 -50zM389 131q36 0 67.5 10.5t57 29t44 43.5t27.5 54h-390q21 -62 73 -99.5t121 -37.5z" />
    <glyph glyph-name="guillemotleft" unicode="&#xab;" horiz-adv-x="529" 
d="M280 62h-132l-131 224l131 228h132l-132 -228zM482 62h-133l-134 224l134 228h133l-135 -228z" />
    <glyph glyph-name="registered" unicode="&#xae;" horiz-adv-x="627" 
d="M314 695q63 0 116.5 -22.5t92.5 -61.5t61.5 -92.5t22.5 -115.5t-22.5 -115.5t-61.5 -92.5t-92.5 -61.5t-116.5 -22.5t-117 22.5t-93.5 61.5t-61.5 92.5t-22 115.5t22 115.5t61.5 92.5t93.5 61.5t117 22.5zM314 621q-46 0 -85 -17t-67 -47t-44 -69.5t-16 -84.5t16 -84.5
t44 -69.5t67 -47t85 -17t84.5 17t67 47t44.5 69.5t16 84.5t-16 84.5t-44.5 69.5t-67 47t-84.5 17zM411 452q-48 0 -66.5 -19t-18.5 -52v-120h-96v284h95v-34q11 13 33 25.5t53 12.5v-97z" />
    <glyph glyph-name="degree" unicode="&#xb0;" horiz-adv-x="384" 
d="M192 691q39 0 71.5 -13.5t55.5 -37t36 -55t13 -67.5t-13 -67t-36 -54.5t-55.5 -37t-71.5 -13.5t-71 13.5t-55.5 37t-36.5 54.5t-13 67t13 67.5t36.5 55t55.5 37t71 13.5zM192 590q-31 0 -50 -20t-19 -52q0 -31 18.5 -52t48.5 -21q31 0 50.5 21t19.5 52q0 32 -19 52
t-49 20z" />
    <glyph glyph-name="uni04B1" unicode="&#xb1;" horiz-adv-x="542" 
d="M341 -107v-69h-139v69h-90v107h90v9l-193 504h156l107 -323l106 323h156l-193 -504v-9h90v-107h-90z" />
    <glyph glyph-name="uni04B1" unicode="&#x4b1;" horiz-adv-x="542" 
d="M341 -107v-69h-139v69h-90v107h90v9l-193 504h156l107 -323l106 323h156l-193 -504v-9h90v-107h-90z" />
    <glyph glyph-name="afii10055" unicode="&#xb2;" horiz-adv-x="239" 
d="M42 0v685h155v-685h-155z" />
    <glyph glyph-name="afii10055" unicode="&#x406;" horiz-adv-x="239" 
d="M42 0v685h155v-685h-155z" />
    <glyph glyph-name="afii10103" unicode="&#xb3;" horiz-adv-x="195" 
d="M28 557v128h139v-128h-139zM28 0v513h139v-513h-139z" />
    <glyph glyph-name="afii10103" unicode="&#x456;" horiz-adv-x="195" 
d="M28 557v128h139v-128h-139zM28 0v513h139v-513h-139z" />
    <glyph glyph-name="uni0499" unicode="&#xb4;" horiz-adv-x="458" 
d="M226 -217q-43 0 -69.5 26t-28.5 64h71q2 -11 9.5 -18.5t18.5 -7.5t19 7.5t8 18.5q0 12 -7.5 19.5t-19.5 7.5h-76l40 90q-58 7 -98.5 32t-71.5 73l108 69q37 -58 101 -58q30 0 47.5 13.5t17.5 37.5q0 18 -14 29.5t-39 11.5h-80v117h61q26 0 39.5 12t13.5 29q0 23 -16 35
t-42 12q-29 0 -48.5 -12.5t-35.5 -36.5l-104 68q35 54 84 78t109 24q42 0 77 -12.5t59.5 -34t38.5 -50t14 -59.5t-12.5 -57.5t-35.5 -44.5q67 -37 67 -110q0 -34 -13 -63t-37 -51.5t-57.5 -36t-73.5 -16.5l-15 -31q40 0 64.5 -23.5t24.5 -61.5q0 -37 -26.5 -63.5
t-71.5 -26.5z" />
    <glyph glyph-name="uni0499" unicode="&#x499;" horiz-adv-x="458" 
d="M226 -217q-43 0 -69.5 26t-28.5 64h71q2 -11 9.5 -18.5t18.5 -7.5t19 7.5t8 18.5q0 12 -7.5 19.5t-19.5 7.5h-76l40 90q-58 7 -98.5 32t-71.5 73l108 69q37 -58 101 -58q30 0 47.5 13.5t17.5 37.5q0 18 -14 29.5t-39 11.5h-80v117h61q26 0 39.5 12t13.5 29q0 23 -16 35
t-42 12q-29 0 -48.5 -12.5t-35.5 -36.5l-104 68q35 54 84 78t109 24q42 0 77 -12.5t59.5 -34t38.5 -50t14 -59.5t-12.5 -57.5t-35.5 -44.5q67 -37 67 -110q0 -34 -13 -63t-37 -51.5t-57.5 -36t-73.5 -16.5l-15 -31q40 0 64.5 -23.5t24.5 -61.5q0 -37 -26.5 -63.5
t-71.5 -26.5z" />
    <glyph glyph-name="paragraph" unicode="&#xb6;" horiz-adv-x="498" 
d="M244 0v247q-47 0 -88 16t-71 45t-47.5 69.5t-17.5 89.5q0 47 17.5 87t47.5 69t71 45.5t88 16.5h86v-685h-86zM382 0v685h87v-685h-87z" />
    <glyph glyph-name="periodcentered" unicode="&#xb7;" horiz-adv-x="201" 
d="M28 211v145h144v-145h-144z" />
    <glyph glyph-name="afii10071" unicode="&#xb8;" horiz-adv-x="570" 
d="M532 110q-38 -57 -97.5 -89.5t-145.5 -32.5q-62 0 -111.5 20.5t-85 56t-54.5 84.5t-19 106q0 55 19.5 104t55.5 85.5t86 57.5t110 21q61 0 109 -20t81.5 -55t51.5 -82.5t18 -103.5q0 -15 -1 -31t-1 -18h-392q11 -49 46.5 -78t89.5 -29q47 0 80.5 18.5t55.5 49.5zM289 409
q-49 0 -81.5 -24.5t-46.5 -68.5h249q-11 47 -45 70t-76 23zM136 556v129h134v-129h-134zM308 556v129h134v-129h-134z" />
    <glyph glyph-name="afii10071" unicode="&#x451;" horiz-adv-x="570" 
d="M532 110q-38 -57 -97.5 -89.5t-145.5 -32.5q-62 0 -111.5 20.5t-85 56t-54.5 84.5t-19 106q0 55 19.5 104t55.5 85.5t86 57.5t110 21q61 0 109 -20t81.5 -55t51.5 -82.5t18 -103.5q0 -15 -1 -31t-1 -18h-392q11 -49 46.5 -78t89.5 -29q47 0 80.5 18.5t55.5 49.5zM289 409
q-49 0 -81.5 -24.5t-46.5 -68.5h249q-11 47 -45 70t-76 23zM136 556v129h134v-129h-134zM308 556v129h134v-129h-134z" />
    <glyph glyph-name="afii61352" unicode="&#xb9;" horiz-adv-x="1099" 
d="M881 692q40 0 76 -15t63 -41t43 -61t16 -75q0 -41 -16 -76.5t-43 -61.5t-63 -40.5t-76 -14.5q-41 0 -77 14.5t-63 40.5t-43 61.5t-16 76.5q0 40 16 75t43 61t63 41t77 15zM881 567q-29 0 -49 -20t-20 -49t20 -49t49 -20t48.5 20t19.5 49t-19.5 49t-48.5 20zM692 154v125
h377v-125h-377zM467 0l-276 434v-434h-149v685h169l276 -435v435h149v-685h-169z" />
    <glyph glyph-name="afii61352" unicode="&#x2116;" horiz-adv-x="1099" 
d="M881 692q40 0 76 -15t63 -41t43 -61t16 -75q0 -41 -16 -76.5t-43 -61.5t-63 -40.5t-76 -14.5q-41 0 -77 14.5t-63 40.5t-43 61.5t-16 76.5q0 40 16 75t43 61t63 41t77 15zM881 567q-29 0 -49 -20t-20 -49t20 -49t49 -20t48.5 20t19.5 49t-19.5 49t-48.5 20zM692 154v125
h377v-125h-377zM467 0l-276 434v-434h-149v685h169l276 -435v435h149v-685h-169z" />
    <glyph glyph-name="uni04D9" unicode="&#xba;" horiz-adv-x="570" 
d="M37 401q38 57 97 89.5t146 32.5q61 0 111 -20.5t85.5 -56t54.5 -84.5t19 -106q0 -56 -19.5 -104.5t-55.5 -85t-86 -57.5t-110 -21q-61 0 -109 20t-81.5 55t-51.5 82.5t-18 103.5q0 15 1 31t1 18h392q-11 49 -46.5 78t-89.5 29q-48 0 -81 -18.5t-55 -49.5zM280 102
q49 0 81.5 24t46.5 69h-249q11 -48 45 -70.5t76 -22.5z" />
    <glyph glyph-name="uni04D9" unicode="&#x4d9;" horiz-adv-x="570" 
d="M37 401q38 57 97 89.5t146 32.5q61 0 111 -20.5t85.5 -56t54.5 -84.5t19 -106q0 -56 -19.5 -104.5t-55.5 -85t-86 -57.5t-110 -21q-61 0 -109 20t-81.5 55t-51.5 82.5t-18 103.5q0 15 1 31t1 18h392q-11 49 -46.5 78t-89.5 29q-48 0 -81 -18.5t-55 -49.5zM280 102
q49 0 81.5 24t46.5 69h-249q11 -48 45 -70.5t76 -22.5z" />
    <glyph glyph-name="guillemotright" unicode="&#xbb;" horiz-adv-x="498" 
d="M218 514h132l132 -228l-132 -224h-132l131 224zM17 514h131l135 -228l-135 -224h-131l134 224z" />
    <glyph glyph-name="afii10105" unicode="&#xbc;" horiz-adv-x="195" 
d="M28 557v128h139v-128h-139zM167 37q0 -58 -12.5 -98.5t-39 -66.5t-68.5 -38t-101 -12v123q42 0 62 19.5t20 62.5v486h139v-476z" />
    <glyph glyph-name="afii10105" unicode="&#x458;" horiz-adv-x="195" 
d="M28 557v128h139v-128h-139zM167 37q0 -58 -12.5 -98.5t-39 -66.5t-68.5 -38t-101 -12v123q42 0 62 19.5t20 62.5v486h139v-476z" />
    <glyph glyph-name="uni04AA" unicode="&#xbd;" horiz-adv-x="719" 
d="M389 -217q-43 0 -69.5 26t-28.5 64h71q2 -11 9.5 -18.5t18.5 -7.5t19 7.5t8 18.5q0 12 -7.5 19.5t-19.5 7.5h-76l40 88q-71 7 -131.5 37t-104 77.5t-68 109t-24.5 132.5q0 75 28 139.5t76.5 112.5t115.5 75.5t145 27.5q103 0 180.5 -41.5t126.5 -129.5l-123 -85
q-30 51 -75.5 81.5t-111.5 30.5q-44 0 -81 -16.5t-64.5 -45t-43 -67t-15.5 -82.5q0 -45 15.5 -84t43.5 -67.5t66.5 -45t83.5 -16.5q63 0 110.5 30t76.5 81l121 -84q-48 -78 -119 -123t-170 -49l-14 -28q40 0 64.5 -23.5t24.5 -61.5q0 -37 -26.5 -63.5t-71.5 -26.5z" />
    <glyph glyph-name="uni04AA" unicode="&#x4aa;" horiz-adv-x="719" 
d="M389 -217q-43 0 -69.5 26t-28.5 64h71q2 -11 9.5 -18.5t18.5 -7.5t19 7.5t8 18.5q0 12 -7.5 19.5t-19.5 7.5h-76l40 88q-71 7 -131.5 37t-104 77.5t-68 109t-24.5 132.5q0 75 28 139.5t76.5 112.5t115.5 75.5t145 27.5q103 0 180.5 -41.5t126.5 -129.5l-123 -85
q-30 51 -75.5 81.5t-111.5 30.5q-44 0 -81 -16.5t-64.5 -45t-43 -67t-15.5 -82.5q0 -45 15.5 -84t43.5 -67.5t66.5 -45t83.5 -16.5q63 0 110.5 30t76.5 81l121 -84q-48 -78 -119 -123t-170 -49l-14 -28q40 0 64.5 -23.5t24.5 -61.5q0 -37 -26.5 -63.5t-71.5 -26.5z" />
    <glyph glyph-name="uni04AB" unicode="&#xbe;" horiz-adv-x="543" 
d="M290 -217q-43 0 -69.5 26t-28.5 64h71q2 -11 9.5 -18.5t18.5 -7.5t19 7.5t8 18.5q0 12 -7.5 19.5t-19.5 7.5h-76l40 90q-53 6 -96 28.5t-74.5 58t-48.5 81t-17 97.5q0 56 20 105t56 85t85.5 57t109.5 21q85 0 144.5 -37t95.5 -97l-109 -68q-20 32 -49 53.5t-77 21.5
q-61 0 -98.5 -39t-37.5 -102t37.5 -102.5t98.5 -39.5q48 0 77 21.5t49 53.5l108 -69q-34 -55 -87 -90t-128 -40l-15 -31q40 0 64.5 -23.5t24.5 -61.5q0 -37 -26.5 -63.5t-71.5 -26.5z" />
    <glyph glyph-name="uni04AB" unicode="&#x4ab;" horiz-adv-x="543" 
d="M290 -217q-43 0 -69.5 26t-28.5 64h71q2 -11 9.5 -18.5t18.5 -7.5t19 7.5t8 18.5q0 12 -7.5 19.5t-19.5 7.5h-76l40 90q-53 6 -96 28.5t-74.5 58t-48.5 81t-17 97.5q0 56 20 105t56 85t85.5 57t109.5 21q85 0 144.5 -37t95.5 -97l-109 -68q-20 32 -49 53.5t-77 21.5
q-61 0 -98.5 -39t-37.5 -102t37.5 -102.5t98.5 -39.5q48 0 77 21.5t49 53.5l108 -69q-34 -55 -87 -90t-128 -40l-15 -31q40 0 64.5 -23.5t24.5 -61.5q0 -37 -26.5 -63.5t-71.5 -26.5z" />
    <glyph glyph-name="afii10017" unicode="&#xc0;" horiz-adv-x="685" 
d="M338 523l-89 -268h178zM473 118h-269l-39 -118h-159l242 685h190l241 -685h-167z" />
    <glyph glyph-name="afii10017" unicode="&#x410;" horiz-adv-x="685" 
d="M338 523l-89 -268h178zM473 118h-269l-39 -118h-159l242 685h190l241 -685h-167z" />
    <glyph glyph-name="afii10018" unicode="&#xc1;" horiz-adv-x="591" 
d="M561 216q0 -45 -16.5 -84.5t-46.5 -69t-73 -46t-96 -16.5h-287v685h467v-142h-312v-109h137q53 0 95 -17.5t71.5 -47t45 -69t15.5 -84.5zM314 142q45 0 68 20.5t23 53.5t-23 54.5t-64 21.5h-121v-150h117z" />
    <glyph glyph-name="afii10018" unicode="&#x411;" horiz-adv-x="591" 
d="M561 216q0 -45 -16.5 -84.5t-46.5 -69t-73 -46t-96 -16.5h-287v685h467v-142h-312v-109h137q53 0 95 -17.5t71.5 -47t45 -69t15.5 -84.5zM314 142q45 0 68 20.5t23 53.5t-23 54.5t-64 21.5h-121v-150h117z" />
    <glyph glyph-name="afii10019" unicode="&#xc2;" horiz-adv-x="612" 
d="M42 685h282q57 0 99 -15t69 -40.5t40 -59t13 -71.5q0 -46 -21.5 -81.5t-64.5 -57.5q65 -20 98.5 -62t33.5 -102q0 -42 -15 -78t-45 -62t-75 -41t-106 -15h-308v685zM197 552v-140h116q40 0 60 20t20 51q0 30 -20 49.5t-60 19.5h-116zM197 281v-148h145q45 0 69.5 20
t24.5 52q0 34 -24.5 55t-70.5 21h-144z" />
    <glyph glyph-name="afii10019" unicode="&#x412;" horiz-adv-x="612" 
d="M42 685h282q57 0 99 -15t69 -40.5t40 -59t13 -71.5q0 -46 -21.5 -81.5t-64.5 -57.5q65 -20 98.5 -62t33.5 -102q0 -42 -15 -78t-45 -62t-75 -41t-106 -15h-308v685zM197 552v-140h116q40 0 60 20t20 51q0 30 -20 49.5t-60 19.5h-116zM197 281v-148h145q45 0 69.5 20
t24.5 52q0 34 -24.5 55t-70.5 21h-144z" />
    <glyph glyph-name="afii10020" unicode="&#xc3;" horiz-adv-x="531" 
d="M197 543v-543h-155v685h474v-142h-319z" />
    <glyph glyph-name="afii10020" unicode="&#x413;" horiz-adv-x="531" 
d="M197 543v-543h-155v685h474v-142h-319z" />
    <glyph glyph-name="afii10021" unicode="&#xc4;" horiz-adv-x="751" 
d="M594 -141v141h-437v-131l-147 -10v283h71l200 543h190l200 -543h70v-273zM239 142h266l-133 378z" />
    <glyph glyph-name="afii10021" unicode="&#x414;" horiz-adv-x="751" 
d="M594 -141v141h-437v-131l-147 -10v283h71l200 543h190l200 -543h70v-273zM239 142h266l-133 378z" />
    <glyph glyph-name="afii10022" unicode="&#xc5;" horiz-adv-x="571" 
d="M42 685h501v-140h-346v-129h320v-136h-320v-140h347v-140h-502v685z" />
    <glyph glyph-name="afii10022" unicode="&#x415;" horiz-adv-x="571" 
d="M42 685h501v-140h-346v-129h320v-136h-320v-140h347v-140h-502v685z" />
    <glyph glyph-name="afii10024" unicode="&#xc6;" horiz-adv-x="941" 
d="M393 292l-207 -292h-188l247 334l-243 351h177l214 -319v319h155v-319l214 319h176l-242 -342l248 -343h-191l-205 292v-292h-155v292z" />
    <glyph glyph-name="afii10024" unicode="&#x416;" horiz-adv-x="941" 
d="M393 292l-207 -292h-188l247 334l-243 351h177l214 -319v319h155v-319l214 319h176l-242 -342l248 -343h-191l-205 292v-292h-155v292z" />
    <glyph glyph-name="afii10025" unicode="&#xc7;" horiz-adv-x="532" 
d="M266 -12q-84 0 -144.5 34t-100.5 108l131 73q19 -36 46 -55t66 -19q41 0 67 21t26 58q0 33 -23.5 50.5t-64.5 17.5h-84v141h78q35 0 57.5 18.5t22.5 51.5q0 31 -23 50.5t-62 19.5q-35 0 -60.5 -18.5t-42.5 -50.5l-125 74q16 28 38 53t51 43.5t65.5 29t82.5 10.5
q51 0 93 -16t72.5 -43.5t47 -64.5t16.5 -79q0 -45 -20 -80t-54 -58q43 -22 66.5 -61.5t23.5 -90.5q0 -45 -17.5 -84.5t-50 -69t-78 -46.5t-100.5 -17z" />
    <glyph glyph-name="afii10025" unicode="&#x417;" horiz-adv-x="532" 
d="M266 -12q-84 0 -144.5 34t-100.5 108l131 73q19 -36 46 -55t66 -19q41 0 67 21t26 58q0 33 -23.5 50.5t-64.5 17.5h-84v141h78q35 0 57.5 18.5t22.5 51.5q0 31 -23 50.5t-62 19.5q-35 0 -60.5 -18.5t-42.5 -50.5l-125 74q16 28 38 53t51 43.5t65.5 29t82.5 10.5
q51 0 93 -16t72.5 -43.5t47 -64.5t16.5 -79q0 -45 -20 -80t-54 -58q43 -22 66.5 -61.5t23.5 -90.5q0 -45 -17.5 -84.5t-50 -69t-78 -46.5t-100.5 -17z" />
    <glyph glyph-name="afii10026" unicode="&#xc8;" horiz-adv-x="694" 
d="M497 0v442l-295 -442h-160v685h155v-442l295 442h160v-685h-155z" />
    <glyph glyph-name="afii10026" unicode="&#x418;" horiz-adv-x="694" 
d="M497 0v442l-295 -442h-160v685h155v-442l295 442h160v-685h-155z" />
    <glyph glyph-name="afii10027" unicode="&#xc9;" horiz-adv-x="694" 
d="M497 0v442l-295 -442h-160v685h155v-442l295 442h160v-685h-155zM338 718q-58 0 -94 15t-47 27v120q23 -20 58 -36.5t83 -16.5t83 16.5t58 36.5v-120q-11 -12 -47 -27t-94 -15z" />
    <glyph glyph-name="afii10027" unicode="&#x419;" horiz-adv-x="694" 
d="M497 0v442l-295 -442h-160v685h155v-442l295 442h160v-685h-155zM338 718q-58 0 -94 15t-47 27v120q23 -20 58 -36.5t83 -16.5t83 16.5t58 36.5v-120q-11 -12 -47 -27t-94 -15z" />
    <glyph glyph-name="afii10028" unicode="&#xca;" horiz-adv-x="627" 
d="M441 685h181l-272 -342l280 -343h-201l-232 292v-292h-155v685h155v-319z" />
    <glyph glyph-name="afii10028" unicode="&#x41a;" horiz-adv-x="627" 
d="M441 685h181l-272 -342l280 -343h-201l-232 292v-292h-155v685h155v-319z" />
    <glyph glyph-name="afii10029" unicode="&#xcb;" horiz-adv-x="677" 
d="M504 0l-169 518l-169 -518h-160l238 685h190l237 -685h-167z" />
    <glyph glyph-name="afii10029" unicode="&#x41b;" horiz-adv-x="677" 
d="M504 0l-169 518l-169 -518h-160l238 685h190l237 -685h-167z" />
    <glyph glyph-name="afii10030" unicode="&#xcc;" horiz-adv-x="858" 
d="M191 409v-409h-149v685h186l201 -453l201 453h186v-685h-152v411l-186 -411h-102z" />
    <glyph glyph-name="afii10030" unicode="&#x41c;" horiz-adv-x="858" 
d="M191 409v-409h-149v685h186l201 -453l201 453h186v-685h-152v411l-186 -411h-102z" />
    <glyph glyph-name="afii10031" unicode="&#xcd;" horiz-adv-x="684" 
d="M487 268h-290v-268h-155v685h155v-275h290v275h155v-685h-155v268z" />
    <glyph glyph-name="afii10031" unicode="&#x41d;" horiz-adv-x="684" 
d="M487 268h-290v-268h-155v685h155v-275h290v275h155v-685h-155v268z" />
    <glyph glyph-name="afii10032" unicode="&#xce;" horiz-adv-x="778" 
d="M389 -14q-75 0 -141 27t-115.5 75t-78 113t-28.5 141t28.5 141.5t78 113.5t115.5 75t141 27q77 0 143.5 -27t115 -75t76.5 -113t28 -141q0 -77 -28 -142t-76.5 -113t-115 -75t-143.5 -27zM389 130q43 0 80.5 16.5t65.5 45t43.5 67.5t15.5 84t-15.5 83.5t-43.5 67
t-65.5 45t-80.5 16.5q-44 0 -81 -16.5t-65 -45t-43.5 -67.5t-15.5 -84t15.5 -84t43.5 -67.5t65 -44.5t81 -16z" />
    <glyph glyph-name="afii10032" unicode="&#x41e;" horiz-adv-x="778" 
d="M389 -14q-75 0 -141 27t-115.5 75t-78 113t-28.5 141t28.5 141.5t78 113.5t115.5 75t141 27q77 0 143.5 -27t115 -75t76.5 -113t28 -141q0 -77 -28 -142t-76.5 -113t-115 -75t-143.5 -27zM389 130q43 0 80.5 16.5t65.5 45t43.5 67.5t15.5 84t-15.5 83.5t-43.5 67
t-65.5 45t-80.5 16.5q-44 0 -81 -16.5t-65 -45t-43.5 -67.5t-15.5 -84t15.5 -84t43.5 -67.5t65 -44.5t81 -16z" />
    <glyph glyph-name="afii10033" unicode="&#xcf;" horiz-adv-x="674" 
d="M477 0v543h-280v-543h-155v685h590v-685h-155z" />
    <glyph glyph-name="afii10033" unicode="&#x41f;" horiz-adv-x="674" 
d="M477 0v543h-280v-543h-155v685h590v-685h-155z" />
    <glyph glyph-name="afii10034" unicode="&#xd0;" horiz-adv-x="606" 
d="M197 191v-191h-155v685h295q58 0 103.5 -19t77 -52t47.5 -77t16 -94q0 -53 -17.5 -98.5t-51 -80t-81.5 -54t-108 -19.5h-126zM197 543v-210h122q50 0 78 29.5t28 76.5t-28.5 75.5t-82.5 28.5h-117z" />
    <glyph glyph-name="afii10034" unicode="&#x420;" horiz-adv-x="606" 
d="M197 191v-191h-155v685h295q58 0 103.5 -19t77 -52t47.5 -77t16 -94q0 -53 -17.5 -98.5t-51 -80t-81.5 -54t-108 -19.5h-126zM197 543v-210h122q50 0 78 29.5t28 76.5t-28.5 75.5t-82.5 28.5h-117z" />
    <glyph glyph-name="afii10035" unicode="&#xd1;" horiz-adv-x="719" 
d="M388 555q-44 0 -81 -16.5t-64.5 -45t-43 -67t-15.5 -82.5q0 -45 15.5 -84t43.5 -67.5t66.5 -45t83.5 -16.5q63 0 110.5 30t76.5 81l121 -84q-50 -81 -125.5 -126.5t-180.5 -45.5q-79 0 -146.5 27.5t-117 76t-77.5 114t-28 140.5t28 139.5t76.5 112.5t115.5 75.5t145 27.5
q102 0 180 -42t127 -129l-123 -85q-30 50 -75.5 81t-111.5 31z" />
    <glyph glyph-name="afii10035" unicode="&#x421;" horiz-adv-x="719" 
d="M388 555q-44 0 -81 -16.5t-64.5 -45t-43 -67t-15.5 -82.5q0 -45 15.5 -84t43.5 -67.5t66.5 -45t83.5 -16.5q63 0 110.5 30t76.5 81l121 -84q-50 -81 -125.5 -126.5t-180.5 -45.5q-79 0 -146.5 27.5t-117 76t-77.5 114t-28 140.5t28 139.5t76.5 112.5t115.5 75.5t145 27.5
q102 0 180 -42t127 -129l-123 -85q-30 50 -75.5 81t-111.5 31z" />
    <glyph glyph-name="afii10036" unicode="&#xd2;" horiz-adv-x="593" 
d="M219 0v543h-204v142h563v-142h-204v-543h-155z" />
    <glyph glyph-name="afii10036" unicode="&#x422;" horiz-adv-x="593" 
d="M219 0v543h-204v142h563v-142h-204v-543h-155z" />
    <glyph glyph-name="afii10037" unicode="&#xd3;" horiz-adv-x="614" 
d="M315 0h-159l97 215l-253 470h172l156 -303l137 303h159z" />
    <glyph glyph-name="afii10037" unicode="&#x423;" horiz-adv-x="614" 
d="M315 0h-159l97 215l-253 470h172l156 -303l137 303h159z" />
    <glyph glyph-name="afii10038" unicode="&#xd4;" horiz-adv-x="805" 
d="M480 -10h-155v76q-64 1 -118.5 22.5t-94.5 58.5t-63 87t-23 108q0 59 23 110t63.5 88t95 58t117.5 21v76h155v-76q64 -1 118.5 -22.5t94.5 -58.5t63 -87t23 -108q0 -59 -23 -110t-63.5 -88t-95 -58t-117.5 -21v-76zM325 210v265q-32 0 -58.5 -10t-45.5 -28t-29.5 -42.5
t-10.5 -52.5t10.5 -52t29.5 -42t45.5 -28t58.5 -10zM480 210q32 0 58.5 10t45.5 28t29.5 42.5t10.5 52.5t-10.5 52t-29.5 42t-45.5 28t-58.5 10v-265z" />
    <glyph glyph-name="afii10038" unicode="&#x424;" horiz-adv-x="805" 
d="M480 -10h-155v76q-64 1 -118.5 22.5t-94.5 58.5t-63 87t-23 108q0 59 23 110t63.5 88t95 58t117.5 21v76h155v-76q64 -1 118.5 -22.5t94.5 -58.5t63 -87t23 -108q0 -59 -23 -110t-63.5 -88t-95 -58t-117.5 -21v-76zM325 210v265q-32 0 -58.5 -10t-45.5 -28t-29.5 -42.5
t-10.5 -52.5t10.5 -52t29.5 -42t45.5 -28t58.5 -10zM480 210q32 0 58.5 10t45.5 28t29.5 42.5t10.5 52.5t-10.5 52t-29.5 42t-45.5 28t-58.5 10v-265z" />
    <glyph glyph-name="afii10039" unicode="&#xd5;" horiz-adv-x="647" 
d="M318 227l-142 -227h-172l230 344l-223 341h180l138 -219l137 219h173l-225 -337l228 -348h-180z" />
    <glyph glyph-name="afii10039" unicode="&#x425;" horiz-adv-x="647" 
d="M318 227l-142 -227h-172l230 344l-223 341h180l138 -219l137 219h173l-225 -337l228 -348h-180z" />
    <glyph glyph-name="afii10040" unicode="&#xd6;" horiz-adv-x="747" 
d="M585 0h-543v685h155v-543h280v543h155v-543h100v-273l-147 -10v141z" />
    <glyph glyph-name="afii10040" unicode="&#x426;" horiz-adv-x="747" 
d="M585 0h-543v685h155v-543h280v543h155v-543h100v-273l-147 -10v141z" />
    <glyph glyph-name="afii10041" unicode="&#xd7;" horiz-adv-x="652" 
d="M610 0h-155v301q-25 -23 -68.5 -41t-103.5 -18q-57 0 -104 18t-80 50t-51 77.5t-18 101.5v196h155v-178q0 -57 32.5 -93t94.5 -36q63 0 103 38.5t40 105.5v163h155v-685z" />
    <glyph glyph-name="afii10041" unicode="&#x427;" horiz-adv-x="652" 
d="M610 0h-155v301q-25 -23 -68.5 -41t-103.5 -18q-57 0 -104 18t-80 50t-51 77.5t-18 101.5v196h155v-178q0 -57 32.5 -93t94.5 -36q63 0 103 38.5t40 105.5v163h155v-685z" />
    <glyph glyph-name="afii10042" unicode="&#xd8;" horiz-adv-x="949" 
d="M42 0v685h155v-543h200v543h155v-543h200v543h155v-685h-865z" />
    <glyph glyph-name="afii10042" unicode="&#x428;" horiz-adv-x="949" 
d="M42 0v685h155v-543h200v543h155v-543h200v543h155v-685h-865z" />
    <glyph glyph-name="afii10043" unicode="&#xd9;" horiz-adv-x="1022" 
d="M860 -141v141h-818v685h155v-543h200v543h155v-543h200v543h155v-543h100v-273z" />
    <glyph glyph-name="afii10043" unicode="&#x429;" horiz-adv-x="1022" 
d="M860 -141v141h-818v685h155v-543h200v543h155v-543h200v543h155v-543h100v-273z" />
    <glyph glyph-name="afii10044" unicode="&#xda;" horiz-adv-x="729" 
d="M330 477h129q58 0 103.5 -19t77 -51t48 -75.5t16.5 -92.5q0 -50 -17.5 -93.5t-50 -76t-78.5 -51t-103 -18.5h-280v543h-160v142h315v-208zM438 142q54 0 82 26t28 68t-27.5 69t-78.5 27h-112v-190h108z" />
    <glyph glyph-name="afii10044" unicode="&#x42a;" horiz-adv-x="729" 
d="M330 477h129q58 0 103.5 -19t77 -51t48 -75.5t16.5 -92.5q0 -50 -17.5 -93.5t-50 -76t-78.5 -51t-103 -18.5h-280v543h-160v142h315v-208zM438 142q54 0 82 26t28 68t-27.5 69t-78.5 27h-112v-190h108z" />
    <glyph glyph-name="afii10045" unicode="&#xdb;" horiz-adv-x="819" 
d="M326 477q58 0 103.5 -19t77 -51t48 -75.5t16.5 -92.5q0 -50 -17.5 -93.5t-50 -76t-78.5 -51t-103 -18.5h-280v685h155v-208h129zM305 142q54 0 82 26t28 68t-28 69t-78 27h-112v-190h108zM622 0v685h155v-685h-155z" />
    <glyph glyph-name="afii10045" unicode="&#x42b;" horiz-adv-x="819" 
d="M326 477q58 0 103.5 -19t77 -51t48 -75.5t16.5 -92.5q0 -50 -17.5 -93.5t-50 -76t-78.5 -51t-103 -18.5h-280v685h155v-208h129zM305 142q54 0 82 26t28 68t-28 69t-78 27h-112v-190h108zM622 0v685h155v-685h-155z" />
    <glyph glyph-name="afii10046" unicode="&#xdc;" horiz-adv-x="596" 
d="M326 477q58 0 103.5 -19t77 -51t48 -75.5t16.5 -92.5q0 -50 -17.5 -93.5t-50 -76t-78.5 -51t-103 -18.5h-280v685h155v-208h129zM305 142q54 0 82 26t28 68t-28 69t-78 27h-112v-190h108z" />
    <glyph glyph-name="afii10046" unicode="&#x42c;" horiz-adv-x="596" 
d="M326 477q58 0 103.5 -19t77 -51t48 -75.5t16.5 -92.5q0 -50 -17.5 -93.5t-50 -76t-78.5 -51t-103 -18.5h-280v685h155v-208h129zM305 142q54 0 82 26t28 68t-28 69t-78 27h-112v-190h108z" />
    <glyph glyph-name="afii10047" unicode="&#xdd;" horiz-adv-x="719" 
d="M335 -14q-109 0 -188 45t-129 127l119 83q29 -51 78.5 -80.5t115.5 -29.5q36 0 67.5 10.5t57 29t44 43.5t27.5 54h-287v142h287q-9 31 -27 57.5t-43.5 46t-56.5 30.5t-65 11q-68 0 -115.5 -30.5t-77.5 -80.5l-119 83q110 172 317 172q75 0 140 -27.5t112 -75.5t74 -112.5
t27 -139.5t-27 -140.5t-75 -114t-113.5 -76t-142.5 -27.5z" />
    <glyph glyph-name="afii10047" unicode="&#x42d;" horiz-adv-x="719" 
d="M335 -14q-109 0 -188 45t-129 127l119 83q29 -51 78.5 -80.5t115.5 -29.5q36 0 67.5 10.5t57 29t44 43.5t27.5 54h-287v142h287q-9 31 -27 57.5t-43.5 46t-56.5 30.5t-65 11q-68 0 -115.5 -30.5t-77.5 -80.5l-119 83q110 172 317 172q75 0 140 -27.5t112 -75.5t74 -112.5
t27 -139.5t-27 -140.5t-75 -114t-113.5 -76t-142.5 -27.5z" />
    <glyph glyph-name="afii10048" unicode="&#xde;" horiz-adv-x="993" 
d="M614 -14q-64 0 -121 21t-103 58.5t-77.5 89t-44.5 113.5h-71v-268h-155v685h155v-275h70q12 63 43.5 116.5t77.5 91.5t103.5 59.5t122.5 21.5q75 0 139.5 -27t112 -75t74.5 -113t27 -141q0 -77 -27 -142t-74.5 -113t-112 -75t-139.5 -27zM614 130q41 0 76.5 16t62 44
t41.5 67t15 86q0 46 -15 84.5t-41.5 67t-62 44.5t-76.5 16t-77 -16t-62 -44.5t-41 -67.5t-15 -85t15 -85t41 -67t62 -44t77 -16z" />
    <glyph glyph-name="afii10048" unicode="&#x42e;" horiz-adv-x="993" 
d="M614 -14q-64 0 -121 21t-103 58.5t-77.5 89t-44.5 113.5h-71v-268h-155v685h155v-275h70q12 63 43.5 116.5t77.5 91.5t103.5 59.5t122.5 21.5q75 0 139.5 -27t112 -75t74.5 -113t27 -141q0 -77 -27 -142t-74.5 -113t-112 -75t-139.5 -27zM614 130q41 0 76.5 16t62 44
t41.5 67t15 86q0 46 -15 84.5t-41.5 67t-62 44.5t-76.5 16t-77 -16t-62 -44.5t-41 -67.5t-15 -85t15 -85t41 -67t62 -44t77 -16z" />
    <glyph glyph-name="afii10049" unicode="&#xdf;" horiz-adv-x="613" 
d="M304 543q-52 0 -77.5 -26t-25.5 -66t28.5 -65.5t79.5 -25.5h109v183h-114zM418 233l-208 -233h-196l222 235q-89 21 -140 81t-51 145q0 48 16.5 89t48 71t76 47t100.5 17h287v-685h-155v233z" />
    <glyph glyph-name="afii10049" unicode="&#x42f;" horiz-adv-x="613" 
d="M304 543q-52 0 -77.5 -26t-25.5 -66t28.5 -65.5t79.5 -25.5h109v183h-114zM418 233l-208 -233h-196l222 235q-89 21 -140 81t-51 145q0 48 16.5 89t48 71t76 47t100.5 17h287v-685h-155v233z" />
    <glyph glyph-name="afii10065" unicode="&#xe0;" horiz-adv-x="595" 
d="M290 392q-29 0 -53.5 -11t-42.5 -29.5t-28.5 -44t-10.5 -53.5q0 -29 10.5 -54t28.5 -44t42.5 -29.5t53.5 -10.5q30 0 55.5 10.5t44.5 29.5t29.5 44t10.5 54q0 28 -11 53.5t-30 44t-44.5 29.5t-54.5 11zM428 38q-27 -21 -66.5 -33t-83.5 -12q-53 0 -100 20t-82 55
t-56 82.5t-21 103.5q0 55 21 103.5t56 84t82 56t100 20.5q44 0 83.5 -12.5t66.5 -33.5v41h139v-513h-139v38z" />
    <glyph glyph-name="afii10065" unicode="&#x430;" horiz-adv-x="595" 
d="M290 392q-29 0 -53.5 -11t-42.5 -29.5t-28.5 -44t-10.5 -53.5q0 -29 10.5 -54t28.5 -44t42.5 -29.5t53.5 -10.5q30 0 55.5 10.5t44.5 29.5t29.5 44t10.5 54q0 28 -11 53.5t-30 44t-44.5 29.5t-54.5 11zM428 38q-27 -21 -66.5 -33t-83.5 -12q-53 0 -100 20t-82 55
t-56 82.5t-21 103.5q0 55 21 103.5t56 84t82 56t100 20.5q44 0 83.5 -12.5t66.5 -33.5v41h139v-513h-139v38z" />
    <glyph glyph-name="afii10066" unicode="&#xe1;" horiz-adv-x="569" 
d="M284 -12q-60 0 -111.5 22.5t-87.5 61.5q-14 15 -26 33.5t-21 43.5t-14 57.5t-5 75.5v49q0 69 11 130.5t42.5 108.5t89 76t149.5 32l56 2q50 2 81.5 6t54.5 11v-123q-42 -16 -135 -19l-56 -2q-44 -2 -73 -11.5t-47 -26t-26.5 -38.5t-11.5 -48q9 9 22 19.5t32 19.5
t43.5 14.5t56.5 5.5q54 0 99 -18t76.5 -50.5t49 -76.5t17.5 -95q0 -56 -20 -103.5t-56 -82t-84.5 -54.5t-105.5 -20zM284 367q-27 0 -50.5 -9.5t-40.5 -26.5t-27 -40.5t-10 -51.5q0 -27 9.5 -50t26 -40.5t39.5 -27t50 -9.5t51 9.5t41.5 27t28 41t10.5 51.5q0 27 -10 50
t-27 40t-40.5 26.5t-50.5 9.5z" />
    <glyph glyph-name="afii10066" unicode="&#x431;" horiz-adv-x="569" 
d="M284 -12q-60 0 -111.5 22.5t-87.5 61.5q-14 15 -26 33.5t-21 43.5t-14 57.5t-5 75.5v49q0 69 11 130.5t42.5 108.5t89 76t149.5 32l56 2q50 2 81.5 6t54.5 11v-123q-42 -16 -135 -19l-56 -2q-44 -2 -73 -11.5t-47 -26t-26.5 -38.5t-11.5 -48q9 9 22 19.5t32 19.5
t43.5 14.5t56.5 5.5q54 0 99 -18t76.5 -50.5t49 -76.5t17.5 -95q0 -56 -20 -103.5t-56 -82t-84.5 -54.5t-105.5 -20zM284 367q-27 0 -50.5 -9.5t-40.5 -26.5t-27 -40.5t-10 -51.5q0 -27 9.5 -50t26 -40.5t39.5 -27t50 -9.5t51 9.5t41.5 27t28 41t10.5 51.5q0 27 -10 50
t-27 40t-40.5 26.5t-50.5 9.5z" />
    <glyph glyph-name="afii10067" unicode="&#xe2;" horiz-adv-x="476" 
d="M269 0h-241v513h222q43 0 75 -11t52.5 -30t30.5 -43.5t10 -51.5q0 -34 -14 -60.5t-39 -44.5q86 -35 86 -124q0 -64 -45 -106t-137 -42zM236 403h-71v-88h71q24 0 36 13t12 31q0 17 -12 30.5t-36 13.5zM261 205h-96v-95h96q26 0 39.5 14t13.5 32q0 21 -13.5 35t-39.5 14z
" />
    <glyph glyph-name="afii10067" unicode="&#x432;" horiz-adv-x="476" 
d="M269 0h-241v513h222q43 0 75 -11t52.5 -30t30.5 -43.5t10 -51.5q0 -34 -14 -60.5t-39 -44.5q86 -35 86 -124q0 -64 -45 -106t-137 -42zM236 403h-71v-88h71q24 0 36 13t12 31q0 17 -12 30.5t-36 13.5zM261 205h-96v-95h96q26 0 39.5 14t13.5 32q0 21 -13.5 35t-39.5 14z
" />
    <glyph glyph-name="afii10068" unicode="&#xe3;" horiz-adv-x="391" 
d="M376 390h-209v-390h-139v513h348v-123z" />
    <glyph glyph-name="afii10068" unicode="&#x433;" horiz-adv-x="391" 
d="M376 390h-209v-390h-139v513h348v-123z" />
    <glyph glyph-name="afii10069" unicode="&#xe4;" horiz-adv-x="608" 
d="M469 -141v141h-330v-131l-129 -10v264h51l150 390h186l150 -390h51v-254zM206 123h190l-95 264z" />
    <glyph glyph-name="afii10069" unicode="&#x434;" horiz-adv-x="608" 
d="M469 -141v141h-330v-131l-129 -10v264h51l150 390h186l150 -390h51v-254zM206 123h190l-95 264z" />
    <glyph glyph-name="afii10070" unicode="&#xe5;" horiz-adv-x="570" 
d="M532 110q-38 -57 -97.5 -89.5t-145.5 -32.5q-62 0 -111.5 20.5t-85 56t-54.5 84.5t-19 106q0 55 19.5 104t55.5 85.5t86 57.5t110 21q61 0 109 -20t81.5 -55t51.5 -82.5t18 -103.5q0 -15 -1 -31t-1 -18h-392q11 -49 46.5 -78t89.5 -29q47 0 80.5 18.5t55.5 49.5zM289 409
q-49 0 -81.5 -24.5t-46.5 -68.5h249q-11 47 -45 70t-76 23z" />
    <glyph glyph-name="afii10070" unicode="&#x435;" horiz-adv-x="570" 
d="M532 110q-38 -57 -97.5 -89.5t-145.5 -32.5q-62 0 -111.5 20.5t-85 56t-54.5 84.5t-19 106q0 55 19.5 104t55.5 85.5t86 57.5t110 21q61 0 109 -20t81.5 -55t51.5 -82.5t18 -103.5q0 -15 -1 -31t-1 -18h-392q11 -49 46.5 -78t89.5 -29q47 0 80.5 18.5t55.5 49.5zM289 409
q-49 0 -81.5 -24.5t-46.5 -68.5h249q-11 47 -45 70t-76 23z" />
    <glyph glyph-name="afii10072" unicode="&#xe6;" horiz-adv-x="754" 
d="M307 211l-145 -211h-163l182 251l-175 262h151l150 -230v230h140v-230l150 230h150l-173 -256l181 -257h-165l-143 211v-211h-140v211z" />
    <glyph glyph-name="afii10072" unicode="&#x436;" horiz-adv-x="754" 
d="M307 211l-145 -211h-163l182 251l-175 262h151l150 -230v230h140v-230l150 230h150l-173 -256l181 -257h-165l-143 211v-211h-140v211z" />
    <glyph glyph-name="afii10073" unicode="&#xe7;" horiz-adv-x="458" 
d="M232 -12q-75 0 -125 26t-86 81l108 69q37 -58 101 -58q30 0 47.5 13.5t17.5 37.5q0 18 -14 29.5t-39 11.5h-80v117h61q26 0 39.5 12t13.5 29q0 23 -16 35t-42 12q-29 0 -48.5 -12.5t-35.5 -36.5l-104 68q35 54 84 78t109 24q42 0 77 -12.5t59.5 -34t38.5 -50t14 -59.5
t-12.5 -57.5t-35.5 -44.5q67 -37 67 -110q0 -36 -14.5 -66.5t-41 -53t-63 -35.5t-80.5 -13z" />
    <glyph glyph-name="afii10073" unicode="&#x437;" horiz-adv-x="458" 
d="M232 -12q-75 0 -125 26t-86 81l108 69q37 -58 101 -58q30 0 47.5 13.5t17.5 37.5q0 18 -14 29.5t-39 11.5h-80v117h61q26 0 39.5 12t13.5 29q0 23 -16 35t-42 12q-29 0 -48.5 -12.5t-35.5 -36.5l-104 68q35 54 84 78t109 24q42 0 77 -12.5t59.5 -34t38.5 -50t14 -59.5
t-12.5 -57.5t-35.5 -44.5q67 -37 67 -110q0 -36 -14.5 -66.5t-41 -53t-63 -35.5t-80.5 -13z" />
    <glyph glyph-name="afii10074" unicode="&#xe8;" horiz-adv-x="541" 
d="M375 0v304l-208 -304h-139v513h138v-304l208 304h139v-513h-138z" />
    <glyph glyph-name="afii10074" unicode="&#x438;" horiz-adv-x="541" 
d="M375 0v304l-208 -304h-139v513h138v-304l208 304h139v-513h-138z" />
    <glyph glyph-name="afii10075" unicode="&#xe9;" horiz-adv-x="541" 
d="M375 0v304l-208 -304h-139v513h138v-304l208 304h139v-513h-138zM272 548q-58 0 -94 16t-47 28v116q23 -20 58 -35.5t83 -15.5t83 15.5t58 35.5v-116q-11 -12 -47 -28t-94 -16z" />
    <glyph glyph-name="afii10075" unicode="&#x439;" horiz-adv-x="541" 
d="M375 0v304l-208 -304h-139v513h138v-304l208 304h139v-513h-138zM272 548q-58 0 -94 16t-47 28v116q23 -20 58 -35.5t83 -15.5t83 15.5t58 35.5v-116q-11 -12 -47 -28t-94 -16z" />
    <glyph glyph-name="afii10076" unicode="&#xea;" horiz-adv-x="503" 
d="M168 283l170 230h158l-197 -255l205 -258h-173l-163 211v-211h-140v513h140v-230z" />
    <glyph glyph-name="afii10076" unicode="&#x43a;" horiz-adv-x="503" 
d="M168 283l170 230h158l-197 -255l205 -258h-173l-163 211v-211h-140v513h140v-230z" />
    <glyph glyph-name="afii10077" unicode="&#xeb;" 
d="M378 0l-110 377l-111 -377h-147l167 513h186l167 -513h-152z" />
    <glyph glyph-name="afii10077" unicode="&#x43b;" 
d="M378 0l-110 377l-111 -377h-147l167 513h186l167 -513h-152z" />
    <glyph glyph-name="afii10078" unicode="&#xec;" horiz-adv-x="675" 
d="M277 0l-118 304v-304h-131v513h184l125 -324l125 324h185v-513h-135v302l-118 -302h-117z" />
    <glyph glyph-name="afii10078" unicode="&#x43c;" horiz-adv-x="675" 
d="M277 0l-118 304v-304h-131v513h184l125 -324l125 324h185v-513h-135v302l-118 -302h-117z" />
    <glyph glyph-name="afii10079" unicode="&#xed;" horiz-adv-x="531" 
d="M364 0v197h-197v-197h-139v513h139v-193h197v193h139v-513h-139z" />
    <glyph glyph-name="afii10079" unicode="&#x43d;" horiz-adv-x="531" 
d="M364 0v197h-197v-197h-139v513h139v-193h197v193h139v-513h-139z" />
    <glyph glyph-name="afii10080" unicode="&#xee;" horiz-adv-x="587" 
d="M294 523q59 0 109.5 -21t87.5 -57t58 -85t21 -105t-21 -104.5t-58 -84.5t-87.5 -57t-109.5 -21t-109.5 20.5t-87.5 56.5t-57.5 85t-20.5 105t21 105t57.5 85t87 57t109.5 21zM294 397q-29 0 -54.5 -10.5t-44 -29.5t-29 -45t-10.5 -57t10 -57t28 -45t43 -30t54 -11t55 11
t45 30t30 45t11 57t-10.5 57t-29 45t-44 29.5t-54.5 10.5z" />
    <glyph glyph-name="afii10080" unicode="&#x43e;" horiz-adv-x="587" 
d="M294 523q59 0 109.5 -21t87.5 -57t58 -85t21 -105t-21 -104.5t-58 -84.5t-87.5 -57t-109.5 -21t-109.5 20.5t-87.5 56.5t-57.5 85t-20.5 105t21 105t57.5 85t87 57t109.5 21zM294 397q-29 0 -54.5 -10.5t-44 -29.5t-29 -45t-10.5 -57t10 -57t28 -45t43 -30t54 -11t55 11
t45 30t30 45t11 57t-10.5 57t-29 45t-44 29.5t-54.5 10.5z" />
    <glyph glyph-name="afii10081" unicode="&#xef;" horiz-adv-x="531" 
d="M364 0v390h-197v-390h-139v513h475v-513h-139z" />
    <glyph glyph-name="afii10081" unicode="&#x43f;" horiz-adv-x="531" 
d="M364 0v390h-197v-390h-139v513h475v-513h-139z" />
    <glyph glyph-name="afii10082" unicode="&#xf0;" horiz-adv-x="600" 
d="M305 392q-30 0 -55.5 -10.5t-44.5 -29.5t-29.5 -44t-10.5 -54t11 -54t30 -43.5t44.5 -29.5t54.5 -11q28 0 53 11t43 29.5t28.5 43.5t10.5 54t-10.5 54t-28.5 44t-43 29.5t-53 10.5zM317 -7q-44 0 -83.5 12.5t-66.5 33.5v-215h-139v689h139v-40q27 21 66.5 33t83.5 12
q52 0 99.5 -20t82.5 -55t56 -83t21 -103q0 -56 -21 -104t-56 -83.5t-82.5 -56t-99.5 -20.5z" />
    <glyph glyph-name="afii10082" unicode="&#x440;" horiz-adv-x="600" 
d="M305 392q-30 0 -55.5 -10.5t-44.5 -29.5t-29.5 -44t-10.5 -54t11 -54t30 -43.5t44.5 -29.5t54.5 -11q28 0 53 11t43 29.5t28.5 43.5t10.5 54t-10.5 54t-28.5 44t-43 29.5t-53 10.5zM317 -7q-44 0 -83.5 12.5t-66.5 33.5v-215h-139v689h139v-40q27 21 66.5 33t83.5 12
q52 0 99.5 -20t82.5 -55t56 -83t21 -103q0 -56 -21 -104t-56 -83.5t-82.5 -56t-99.5 -20.5z" />
    <glyph glyph-name="afii10083" unicode="&#xf1;" horiz-adv-x="543" 
d="M529 119q-37 -60 -95.5 -95.5t-143.5 -35.5q-60 0 -109.5 21t-85.5 57t-56 84.5t-20 104.5t20 105t56 85t85.5 57t109.5 21q85 0 144.5 -37t95.5 -97l-109 -68q-20 32 -49 53.5t-77 21.5q-61 0 -98.5 -39t-37.5 -102t37.5 -102.5t98.5 -39.5q48 0 77 21.5t49 53.5z" />
    <glyph glyph-name="afii10083" unicode="&#x441;" horiz-adv-x="543" 
d="M529 119q-37 -60 -95.5 -95.5t-143.5 -35.5q-60 0 -109.5 21t-85.5 57t-56 84.5t-20 104.5t20 105t56 85t85.5 57t109.5 21q85 0 144.5 -37t95.5 -97l-109 -68q-20 32 -49 53.5t-77 21.5q-61 0 -98.5 -39t-37.5 -102t37.5 -102.5t98.5 -39.5q48 0 77 21.5t49 53.5z" />
    <glyph glyph-name="afii10084" unicode="&#xf2;" horiz-adv-x="469" 
d="M454 390h-150v-390h-139v390h-150v123h439v-123z" />
    <glyph glyph-name="afii10084" unicode="&#x442;" horiz-adv-x="469" 
d="M454 390h-150v-390h-139v390h-150v123h439v-123z" />
    <glyph glyph-name="afii10085" unicode="&#xf3;" horiz-adv-x="530" 
d="M349 18q-18 -51 -39.5 -88t-49.5 -61t-64 -35t-83 -11h-50v125h42q35 0 58 18t37 48l-191 499h159l105 -316l104 316h144z" />
    <glyph glyph-name="afii10085" unicode="&#x443;" horiz-adv-x="530" 
d="M349 18q-18 -51 -39.5 -88t-49.5 -61t-64 -35t-83 -11h-50v125h42q35 0 58 18t37 48l-191 499h159l105 -316l104 316h144z" />
    <glyph glyph-name="afii10086" unicode="&#xf4;" horiz-adv-x="702" 
d="M421 -176h-140v164q-57 3 -105 24.5t-83 57t-54.5 83t-19.5 102.5q0 54 20 101.5t55 83t83 57.5t104 25v163h140v-162q57 -3 105 -24.5t83 -57t54.5 -83t19.5 -102.5q0 -54 -20 -101.5t-55 -83t-83 -57.5t-104 -25v-165zM546 256q0 59 -35 99t-90 44v-284q27 2 50 13.5
t39.5 30.5t26 43.5t9.5 53.5zM156 255q0 -59 35 -99t90 -44v284q-27 -2 -50 -13.5t-39.5 -30.5t-26 -43.5t-9.5 -53.5z" />
    <glyph glyph-name="afii10086" unicode="&#x444;" horiz-adv-x="702" 
d="M421 -176h-140v164q-57 3 -105 24.5t-83 57t-54.5 83t-19.5 102.5q0 54 20 101.5t55 83t83 57.5t104 25v163h140v-162q57 -3 105 -24.5t83 -57t54.5 -83t19.5 -102.5q0 -54 -20 -101.5t-55 -83t-83 -57.5t-104 -25v-165zM546 256q0 59 -35 99t-90 44v-284q27 2 50 13.5
t39.5 30.5t26 43.5t9.5 53.5zM156 255q0 -59 35 -99t90 -44v284q-27 -2 -50 -13.5t-39.5 -30.5t-26 -43.5t-9.5 -53.5z" />
    <glyph glyph-name="afii10087" unicode="&#xf5;" horiz-adv-x="527" 
d="M518 0h-166l-90 155l-91 -155h-162l165 261l-161 252h165l86 -146l85 146h162l-160 -250z" />
    <glyph glyph-name="afii10087" unicode="&#x445;" horiz-adv-x="527" 
d="M518 0h-166l-90 155l-91 -155h-162l165 261l-161 252h165l86 -146l85 146h162l-160 -250z" />
    <glyph glyph-name="afii10088" unicode="&#xf6;" horiz-adv-x="592" 
d="M453 0h-425v513h139v-390h197v390h139v-390h79v-254l-129 -10v141z" />
    <glyph glyph-name="afii10088" unicode="&#x446;" horiz-adv-x="592" 
d="M453 0h-425v513h139v-390h197v390h139v-390h79v-254l-129 -10v141z" />
    <glyph glyph-name="afii10089" unicode="&#xf7;" horiz-adv-x="502" 
d="M474 0h-137v217q-55 -51 -137 -51q-42 0 -75 14.5t-56.5 41t-36 63.5t-12.5 82v146h138v-124q0 -42 21 -68.5t62 -26.5t68 26.5t27 74.5v118h138v-513z" />
    <glyph glyph-name="afii10089" unicode="&#x447;" horiz-adv-x="502" 
d="M474 0h-137v217q-55 -51 -137 -51q-42 0 -75 14.5t-56.5 41t-36 63.5t-12.5 82v146h138v-124q0 -42 21 -68.5t62 -26.5t68 26.5t27 74.5v118h138v-513z" />
    <glyph glyph-name="afii10090" unicode="&#xf8;" horiz-adv-x="767" 
d="M28 0v513h139v-390h147v390h139v-390h147v390h139v-513h-711z" />
    <glyph glyph-name="afii10090" unicode="&#x448;" horiz-adv-x="767" 
d="M28 0v513h139v-390h147v390h139v-390h147v390h139v-513h-711z" />
    <glyph glyph-name="afii10091" unicode="&#xf9;" horiz-adv-x="828" 
d="M689 -141v141h-661v513h139v-390h147v390h139v-390h147v390h139v-390h79v-254z" />
    <glyph glyph-name="afii10091" unicode="&#x449;" horiz-adv-x="828" 
d="M689 -141v141h-661v513h139v-390h147v390h139v-390h147v390h139v-390h79v-254z" />
    <glyph glyph-name="afii10092" unicode="&#xfa;" horiz-adv-x="570" 
d="M125 0v390h-110v123h249v-145h100q39 0 73.5 -13.5t60.5 -37.5t41 -58t15 -75t-15 -74.5t-41 -58t-61 -38t-75 -13.5h-237zM264 243v-120h88q30 0 47 17.5t17 42.5q0 26 -17 43t-47 17h-88z" />
    <glyph glyph-name="afii10092" unicode="&#x44a;" horiz-adv-x="570" 
d="M125 0v390h-110v123h249v-145h100q39 0 73.5 -13.5t60.5 -37.5t41 -58t15 -75t-15 -74.5t-41 -58t-61 -38t-75 -13.5h-237zM264 243v-120h88q30 0 47 17.5t17 42.5q0 26 -17 43t-47 17h-88z" />
    <glyph glyph-name="afii10093" unicode="&#xfb;" horiz-adv-x="661" 
d="M633 0h-139v513h139v-513zM255 243h-88v-120h88q30 0 47 17.5t17 42.5q0 26 -17 43t-47 17zM28 0v513h139v-145h100q39 0 73.5 -13.5t60.5 -37.5t41 -58t15 -75t-15 -74.5t-41 -58t-61 -38t-75 -13.5h-237z" />
    <glyph glyph-name="afii10093" unicode="&#x44b;" horiz-adv-x="661" 
d="M633 0h-139v513h139v-513zM255 243h-88v-120h88q30 0 47 17.5t17 42.5q0 26 -17 43t-47 17zM28 0v513h139v-145h100q39 0 73.5 -13.5t60.5 -37.5t41 -58t15 -75t-15 -74.5t-41 -58t-61 -38t-75 -13.5h-237z" />
    <glyph glyph-name="afii10094" unicode="&#xfc;" horiz-adv-x="473" 
d="M255 243h-88v-120h88q30 0 47 17.5t17 42.5q0 26 -17 43t-47 17zM28 0v513h139v-145h100q39 0 73.5 -13.5t60.5 -37.5t41 -58t15 -75t-15 -74.5t-41 -58t-61 -38t-75 -13.5h-237z" />
    <glyph glyph-name="afii10094" unicode="&#x44c;" horiz-adv-x="473" 
d="M255 243h-88v-120h88q30 0 47 17.5t17 42.5q0 26 -17 43t-47 17zM28 0v513h139v-145h100q39 0 73.5 -13.5t60.5 -37.5t41 -58t15 -75t-15 -74.5t-41 -58t-61 -38t-75 -13.5h-237z" />
    <glyph glyph-name="afii10095" unicode="&#xfd;" horiz-adv-x="548" 
d="M262 -12q-85 0 -145.5 35.5t-97.5 95.5l108 69q20 -32 51 -53.5t79 -21.5q46 0 77.5 22t45.5 58h-188v123h188q-14 37 -46 58.5t-77 21.5q-48 0 -79 -21.5t-51 -53.5l-109 68q36 60 97.5 97t146.5 37q60 0 109 -21t84 -57t54.5 -85t19.5 -105t-19.5 -104.5t-54.5 -84.5
t-84 -57t-109 -21z" />
    <glyph glyph-name="afii10095" unicode="&#x44d;" horiz-adv-x="548" 
d="M262 -12q-85 0 -145.5 35.5t-97.5 95.5l108 69q20 -32 51 -53.5t79 -21.5q46 0 77.5 22t45.5 58h-188v123h188q-14 37 -46 58.5t-77 21.5q-48 0 -79 -21.5t-51 -53.5l-109 68q36 60 97.5 97t146.5 37q60 0 109 -21t84 -57t54.5 -85t19.5 -105t-19.5 -104.5t-54.5 -84.5
t-84 -57t-109 -21z" />
    <glyph glyph-name="afii10096" unicode="&#xfe;" horiz-adv-x="759" 
d="M474 -12q-50 0 -93 15.5t-76.5 43.5t-57 66.5t-32.5 83.5h-48v-197h-139v513h139v-193h50q10 44 33.5 81t57 64t76 42.5t90.5 15.5q57 0 105.5 -21t84.5 -57t56 -85t20 -105t-20 -104.5t-56 -84.5t-84.5 -57t-105.5 -21zM602 254q0 32 -10 58.5t-27 45t-40.5 29
t-50.5 10.5t-50.5 -10t-40.5 -29t-27 -45t-10 -58t10 -58.5t27 -45.5t40.5 -29t50.5 -10t50.5 10t40.5 29t27 45t10 58z" />
    <glyph glyph-name="afii10096" unicode="&#x44e;" horiz-adv-x="759" 
d="M474 -12q-50 0 -93 15.5t-76.5 43.5t-57 66.5t-32.5 83.5h-48v-197h-139v513h139v-193h50q10 44 33.5 81t57 64t76 42.5t90.5 15.5q57 0 105.5 -21t84.5 -57t56 -85t20 -105t-20 -104.5t-56 -84.5t-84.5 -57t-105.5 -21zM602 254q0 32 -10 58.5t-27 45t-40.5 29
t-50.5 10.5t-50.5 -10t-40.5 -29t-27 -45t-10 -58t10 -58.5t27 -45.5t40.5 -29t50.5 -10t50.5 10t40.5 29t27 45t10 58z" />
    <glyph glyph-name="afii10097" unicode="&#xff;" horiz-adv-x="486" 
d="M221 284h98v106h-98q-26 0 -41.5 -15.5t-15.5 -38.5t15.5 -37.5t41.5 -14.5zM319 0v176l-154 -176h-163l164 181q-29 6 -54.5 19.5t-44 34t-29 47t-10.5 58.5q0 36 13.5 68t37 55t56 36.5t71.5 13.5h252v-513h-139z" />
    <glyph glyph-name="afii10097" unicode="&#x44f;" horiz-adv-x="486" 
d="M221 284h98v106h-98q-26 0 -41.5 -15.5t-15.5 -38.5t15.5 -37.5t41.5 -14.5zM319 0v176l-154 -176h-163l164 181q-29 6 -54.5 19.5t-44 34t-29 47t-10.5 58.5q0 36 13.5 68t37 55t56 36.5t71.5 13.5h252v-513h-139z" />
    <glyph glyph-name="Amacron" unicode="&#x100;" horiz-adv-x="685" 
d="M338 523l-89 -268h178zM473 118h-269l-39 -118h-159l242 685h190l241 -685h-167zM205 743v123h276v-123h-276z" />
    <glyph glyph-name="amacron" unicode="&#x101;" horiz-adv-x="595" 
d="M290 392q-29 0 -53.5 -11t-42.5 -29.5t-28.5 -44t-10.5 -53.5q0 -29 10.5 -54t28.5 -44t42.5 -29.5t53.5 -10.5q30 0 55.5 10.5t44.5 29.5t29.5 44t10.5 54q0 28 -11 53.5t-30 44t-44.5 29.5t-54.5 11zM428 38q-27 -21 -66.5 -33t-83.5 -12q-53 0 -100 20t-82 55
t-56 82.5t-21 103.5q0 55 21 103.5t56 84t82 56t100 20.5q44 0 83.5 -12.5t66.5 -33.5v41h139v-513h-139v38zM151 571v123h276v-123h-276z" />
    <glyph glyph-name="Abreve" unicode="&#x102;" horiz-adv-x="685" 
d="M338 523l-89 -268h178zM473 118h-269l-39 -118h-159l242 685h190l241 -685h-167zM343 833q26 0 49.5 4.5t42.5 11.5t32.5 14t21.5 13v-99q-6 -8 -18.5 -18t-31 -19t-42.5 -15t-54 -6t-54 6t-42.5 15t-31 19t-18.5 18v99q7 -6 21 -13t33 -14t42.5 -11.5t49.5 -4.5z" />
    <glyph glyph-name="abreve" unicode="&#x103;" horiz-adv-x="595" 
d="M290 392q-29 0 -53.5 -11t-42.5 -29.5t-28.5 -44t-10.5 -53.5q0 -29 10.5 -54t28.5 -44t42.5 -29.5t53.5 -10.5q30 0 55.5 10.5t44.5 29.5t29.5 44t10.5 54q0 28 -11 53.5t-30 44t-44.5 29.5t-54.5 11zM428 38q-27 -21 -66.5 -33t-83.5 -12q-53 0 -100 20t-82 55
t-56 82.5t-21 103.5q0 55 21 103.5t56 84t82 56t100 20.5q44 0 83.5 -12.5t66.5 -33.5v41h139v-513h-139v38zM289 661q26 0 49.5 4.5t42.5 11.5t32.5 14t21.5 13v-99q-6 -8 -18.5 -18t-31 -19t-42.5 -15t-54 -6t-54 6t-42.5 15t-31 19t-18.5 18v99q7 -6 21 -13t33 -14
t42.5 -11.5t49.5 -4.5z" />
    <glyph glyph-name="Aogonek" unicode="&#x104;" horiz-adv-x="685" 
d="M338 523l-89 -268h178zM657 -165q-7 -5 -17 -9q-8 -4 -21 -6.5t-29 -2.5q-47 0 -74.5 24t-27.5 62q0 33 19.5 59t49.5 38h-45l-39 118h-269l-39 -118h-159l242 685h190l241 -685h-54q-28 -14 -41 -34.5t-13 -41.5q0 -36 40 -36q11 0 19 1t14 3q7 2 13 5v-62z" />
    <glyph glyph-name="aogonek" unicode="&#x105;" horiz-adv-x="595" 
d="M290 392q-29 0 -53.5 -11t-42.5 -29.5t-28.5 -44t-10.5 -53.5q0 -29 10.5 -54t28.5 -44t42.5 -29.5t53.5 -10.5q30 0 55.5 10.5t44.5 29.5t29.5 44t10.5 54q0 28 -11 53.5t-30 44t-44.5 29.5t-54.5 11zM567 -165q-7 -5 -17 -9q-8 -4 -21 -6.5t-29 -2.5q-47 0 -74.5 24
t-27.5 62q0 33 19.5 59t49.5 38h-39v38q-27 -21 -66.5 -33t-83.5 -12q-53 0 -100 20t-82 55t-56 82.5t-21 103.5q0 55 21 103.5t56 84t82 56t100 20.5q44 0 83.5 -12.5t66.5 -33.5v41h139v-513h-32q-28 -14 -41 -34.5t-13 -41.5q0 -36 40 -36q11 0 19 1t14 3q7 2 13 5v-62z
" />
    <glyph glyph-name="Cacute" unicode="&#x106;" horiz-adv-x="719" 
d="M388 555q-44 0 -81 -16.5t-64.5 -45t-43 -67t-15.5 -82.5q0 -45 15.5 -84t43.5 -67.5t66.5 -45t83.5 -16.5q63 0 110.5 30t76.5 81l121 -84q-50 -81 -125.5 -126.5t-180.5 -45.5q-79 0 -146.5 27.5t-117 76t-77.5 114t-28 140.5t28 139.5t76.5 112.5t115.5 75.5t145 27.5
q102 0 180 -42t127 -129l-123 -85q-30 50 -75.5 81t-111.5 31zM276 719v123l234 57v-126z" />
    <glyph glyph-name="cacute" unicode="&#x107;" horiz-adv-x="543" 
d="M529 119q-37 -60 -95.5 -95.5t-143.5 -35.5q-60 0 -109.5 21t-85.5 57t-56 84.5t-20 104.5t20 105t56 85t85.5 57t109.5 21q85 0 144.5 -37t95.5 -97l-109 -68q-20 32 -49 53.5t-77 21.5q-61 0 -98.5 -39t-37.5 -102t37.5 -102.5t98.5 -39.5q48 0 77 21.5t49 53.5z
M175 547v123l234 57v-126z" />
    <glyph glyph-name="Ccircumflex" unicode="&#x108;" horiz-adv-x="719" 
d="M388 555q-44 0 -81 -16.5t-64.5 -45t-43 -67t-15.5 -82.5q0 -45 15.5 -84t43.5 -67.5t66.5 -45t83.5 -16.5q63 0 110.5 30t76.5 81l121 -84q-50 -81 -125.5 -126.5t-180.5 -45.5q-79 0 -146.5 27.5t-117 76t-77.5 114t-28 140.5t28 139.5t76.5 112.5t115.5 75.5t145 27.5
q102 0 180 -42t127 -129l-123 -85q-30 50 -75.5 81t-111.5 31zM536 721l-147 38l-147 -38v102l147 54l147 -54v-102z" />
    <glyph glyph-name="ccircumflex" unicode="&#x109;" horiz-adv-x="543" 
d="M529 119q-37 -60 -95.5 -95.5t-143.5 -35.5q-60 0 -109.5 21t-85.5 57t-56 84.5t-20 104.5t20 105t56 85t85.5 57t109.5 21q85 0 144.5 -37t95.5 -97l-109 -68q-20 32 -49 53.5t-77 21.5q-61 0 -98.5 -39t-37.5 -102t37.5 -102.5t98.5 -39.5q48 0 77 21.5t49 53.5z
M435 549l-147 38l-147 -38v102l147 54l147 -54v-102z" />
    <glyph glyph-name="Cdotaccent" unicode="&#x10a;" horiz-adv-x="719" 
d="M388 555q-44 0 -81 -16.5t-64.5 -45t-43 -67t-15.5 -82.5q0 -45 15.5 -84t43.5 -67.5t66.5 -45t83.5 -16.5q63 0 110.5 30t76.5 81l121 -84q-50 -81 -125.5 -126.5t-180.5 -45.5q-79 0 -146.5 27.5t-117 76t-77.5 114t-28 140.5t28 139.5t76.5 112.5t115.5 75.5t145 27.5
q102 0 180 -42t127 -129l-123 -85q-30 50 -75.5 81t-111.5 31zM319 729v128h140v-128h-140z" />
    <glyph glyph-name="cdotaccent" unicode="&#x10b;" horiz-adv-x="543" 
d="M529 119q-37 -60 -95.5 -95.5t-143.5 -35.5q-60 0 -109.5 21t-85.5 57t-56 84.5t-20 104.5t20 105t56 85t85.5 57t109.5 21q85 0 144.5 -37t95.5 -97l-109 -68q-20 32 -49 53.5t-77 21.5q-61 0 -98.5 -39t-37.5 -102t37.5 -102.5t98.5 -39.5q48 0 77 21.5t49 53.5z
M218 557v128h140v-128h-140z" />
    <glyph glyph-name="Ccaron" unicode="&#x10c;" horiz-adv-x="719" 
d="M388 555q-44 0 -81 -16.5t-64.5 -45t-43 -67t-15.5 -82.5q0 -45 15.5 -84t43.5 -67.5t66.5 -45t83.5 -16.5q63 0 110.5 30t76.5 81l121 -84q-50 -81 -125.5 -126.5t-180.5 -45.5q-79 0 -146.5 27.5t-117 76t-77.5 114t-28 140.5t28 139.5t76.5 112.5t115.5 75.5t145 27.5
q102 0 180 -42t127 -129l-123 -85q-30 50 -75.5 81t-111.5 31zM389 716l-147 54v103l147 -39l147 39v-103z" />
    <glyph glyph-name="ccaron" unicode="&#x10d;" horiz-adv-x="543" 
d="M529 119q-37 -60 -95.5 -95.5t-143.5 -35.5q-60 0 -109.5 21t-85.5 57t-56 84.5t-20 104.5t20 105t56 85t85.5 57t109.5 21q85 0 144.5 -37t95.5 -97l-109 -68q-20 32 -49 53.5t-77 21.5q-61 0 -98.5 -39t-37.5 -102t37.5 -102.5t98.5 -39.5q48 0 77 21.5t49 53.5z
M288 544l-147 54v103l147 -39l147 39v-103z" />
    <glyph glyph-name="Dcaron" unicode="&#x10e;" horiz-adv-x="697" 
d="M42 685h280q79 0 143.5 -26.5t110 -72t70.5 -107.5t25 -133q0 -72 -26 -135.5t-73 -110t-112.5 -73.5t-145.5 -27h-272v685zM197 543v-401h122q42 0 77.5 15t62 42t41.5 64t15 81q0 43 -15 79.5t-42 63t-64 41.5t-80 15h-117zM349 716l-147 54v103l147 -39l147 39v-103z
" />
    <glyph glyph-name="dcaron" unicode="&#x10f;" horiz-adv-x="801" 
d="M773 568l-45 -124h-97l37 96h-38v145h143v-117v0zM290 116q30 0 55.5 10.5t44.5 29.5t29.5 44t10.5 54q0 28 -11 53.5t-30 44t-44.5 29.5t-54.5 11t-53.5 -11t-42.5 -29.5t-28.5 -44t-10.5 -53.5q0 -29 10.5 -54t28.5 -44t42.5 -29.5t53.5 -10.5zM428 38
q-27 -21 -66.5 -33t-83.5 -12q-53 0 -100 20t-82 55t-56 82.5t-21 103.5q0 55 21 103.5t56 84t82 56t100 20.5q44 0 83.5 -12.5t66.5 -33.5v213h139v-685h-139v38z" />
    <glyph glyph-name="Dcroat" unicode="&#x110;" horiz-adv-x="707" 
d="M52 0v278h-50v131h50v276h280q79 0 143.5 -26.5t110 -72t70.5 -107.5t25 -133q0 -72 -26 -135.5t-73 -110t-112.5 -73.5t-145.5 -27h-272zM329 142q42 0 77.5 15t62 42t41.5 64t15 81q0 43 -15 79.5t-42 63t-64 41.5t-80 15h-117v-134h129v-131h-129v-136h122z" />
    <glyph glyph-name="dcroat" unicode="&#x111;" horiz-adv-x="595" 
d="M285 106q33 0 60.5 11.5t47.5 31.5t31 46.5t11 57.5q0 30 -11.5 57t-31.5 47t-47.5 31.5t-59.5 11.5q-30 0 -56 -11.5t-45.5 -31.5t-30.5 -47t-11 -57q0 -31 11 -57.5t30.5 -46.5t45.5 -31.5t56 -11.5zM559 537v-537h-126v37q-18 -13 -41 -23q-20 -8 -48.5 -15t-64.5 -7
q-53 0 -100 20t-82.5 55.5t-56.5 83t-21 102.5t21 103t56.5 84t82.5 56.5t100 20.5q35 0 64 -7.5t49 -15.5q24 -10 41 -22v65h-115v107h115v41h126v-41h31v-107h-31z" />
    <glyph glyph-name="Emacron" unicode="&#x112;" horiz-adv-x="571" 
d="M42 685h501v-140h-346v-129h320v-136h-320v-140h347v-140h-502v685zM153 743v123h276v-123h-276z" />
    <glyph glyph-name="emacron" unicode="&#x113;" horiz-adv-x="570" 
d="M532 110q-38 -57 -97.5 -89.5t-145.5 -32.5q-62 0 -111.5 20.5t-85 56t-54.5 84.5t-19 106q0 55 19.5 104t55.5 85.5t86 57.5t110 21q61 0 109 -20t81.5 -55t51.5 -82.5t18 -103.5q0 -15 -1 -31t-1 -18h-392q11 -49 46.5 -78t89.5 -29q47 0 80.5 18.5t55.5 49.5zM289 409
q-49 0 -81.5 -24.5t-46.5 -68.5h249q-11 47 -45 70t-76 23zM151 571v123h276v-123h-276z" />
    <glyph glyph-name="Ebreve" unicode="&#x114;" horiz-adv-x="571" 
d="M42 685h501v-140h-346v-129h320v-136h-320v-140h347v-140h-502v685zM291 833q26 0 49.5 4.5t42.5 11.5t32.5 14t21.5 13v-99q-6 -8 -18.5 -18t-31 -19t-42.5 -15t-54 -6t-54 6t-42.5 15t-31 19t-18.5 18v99q7 -6 21 -13t33 -14t42.5 -11.5t49.5 -4.5z" />
    <glyph glyph-name="ebreve" unicode="&#x115;" horiz-adv-x="570" 
d="M532 110q-38 -57 -97.5 -89.5t-145.5 -32.5q-62 0 -111.5 20.5t-85 56t-54.5 84.5t-19 106q0 55 19.5 104t55.5 85.5t86 57.5t110 21q61 0 109 -20t81.5 -55t51.5 -82.5t18 -103.5q0 -15 -1 -31t-1 -18h-392q11 -49 46.5 -78t89.5 -29q47 0 80.5 18.5t55.5 49.5zM289 409
q-49 0 -81.5 -24.5t-46.5 -68.5h249q-11 47 -45 70t-76 23zM289 661q26 0 49.5 4.5t42.5 11.5t32.5 14t21.5 13v-99q-6 -8 -18.5 -18t-31 -19t-42.5 -15t-54 -6t-54 6t-42.5 15t-31 19t-18.5 18v99q7 -6 21 -13t33 -14t42.5 -11.5t49.5 -4.5z" />
    <glyph glyph-name="Edotaccent" unicode="&#x116;" horiz-adv-x="571" 
d="M42 685h501v-140h-346v-129h320v-136h-320v-140h347v-140h-502v685zM221 729v128h140v-128h-140z" />
    <glyph glyph-name="edotaccent" unicode="&#x117;" horiz-adv-x="570" 
d="M532 110q-38 -57 -97.5 -89.5t-145.5 -32.5q-62 0 -111.5 20.5t-85 56t-54.5 84.5t-19 106q0 55 19.5 104t55.5 85.5t86 57.5t110 21q61 0 109 -20t81.5 -55t51.5 -82.5t18 -103.5q0 -15 -1 -31t-1 -18h-392q11 -49 46.5 -78t89.5 -29q47 0 80.5 18.5t55.5 49.5zM289 409
q-49 0 -81.5 -24.5t-46.5 -68.5h249q-11 47 -45 70t-76 23zM219 557v128h140v-128h-140z" />
    <glyph glyph-name="Eogonek" unicode="&#x118;" horiz-adv-x="571" 
d="M540 -165q-7 -5 -17 -9q-8 -4 -21 -6.5t-29 -2.5q-47 0 -74.5 24t-27.5 62q0 33 19.5 59t49.5 38h-398v685h501v-140h-346v-129h320v-136h-320v-140h347v-140h-36q-28 -14 -41 -34.5t-13 -41.5q0 -36 40 -36q11 0 19 1t14 3q7 2 13 5v-62v0z" />
    <glyph glyph-name="eogonek" unicode="&#x119;" horiz-adv-x="570" 
d="M351 -183q-47 0 -74.5 24t-27.5 62q0 26 13 48.5t33 36.5h-6q-62 0 -111.5 20.5t-85 56t-54.5 84.5t-19 106q0 55 19.5 104t55.5 85.5t86 57.5t110 21q61 0 109 -20t81.5 -55t51.5 -82.5t18 -103.5q0 -15 -1 -31t-1 -18h-392q11 -49 46.5 -78t89.5 -29q47 0 80.5 18.5
t55.5 49.5l104 -64q-26 -39 -62.5 -67t-84.5 -42l1 -1q-28 -14 -41 -34.5t-13 -41.5q0 -36 40 -36q11 0 19 1t14 3q7 2 13 5v-62q-7 -5 -17 -9q-8 -4 -21 -6.5t-29 -2.5zM289 409q-49 0 -81.5 -24.5t-46.5 -68.5h249q-11 47 -45 70t-76 23z" />
    <glyph glyph-name="Ecaron" unicode="&#x11a;" horiz-adv-x="571" 
d="M42 685h501v-140h-346v-129h320v-136h-320v-140h347v-140h-502v685zM291 716l-147 54v103l147 -39l147 39v-103z" />
    <glyph glyph-name="ecaron" unicode="&#x11b;" horiz-adv-x="570" 
d="M532 110q-38 -57 -97.5 -89.5t-145.5 -32.5q-62 0 -111.5 20.5t-85 56t-54.5 84.5t-19 106q0 55 19.5 104t55.5 85.5t86 57.5t110 21q61 0 109 -20t81.5 -55t51.5 -82.5t18 -103.5q0 -15 -1 -31t-1 -18h-392q11 -49 46.5 -78t89.5 -29q47 0 80.5 18.5t55.5 49.5zM289 409
q-49 0 -81.5 -24.5t-46.5 -68.5h249q-11 47 -45 70t-76 23zM289 544l-147 54v103l147 -39l147 39v-103z" />
    <glyph glyph-name="Gcircumflex" unicode="&#x11c;" horiz-adv-x="766" 
d="M742 344q0 -77 -25.5 -142.5t-71 -113.5t-109.5 -75t-141 -27q-81 0 -149 28t-117 76.5t-76 113.5t-27 139q0 73 26.5 138t75 113.5t116.5 76.5t151 28q97 0 169.5 -37t119.5 -104l-114 -97q-35 44 -78 68.5t-97 24.5q-45 0 -83.5 -15.5t-67 -44t-44.5 -68t-16 -87.5
q0 -45 15.5 -83.5t43 -66t65.5 -43.5t83 -16q69 0 113.5 32t64.5 87h-182v135h355v-40v0zM538 721l-147 38l-147 -38v102l147 54l147 -54v-102z" />
    <glyph glyph-name="gcircumflex" unicode="&#x11d;" horiz-adv-x="587" 
d="M286 396q-27 0 -51 -10.5t-42 -29t-28.5 -43t-10.5 -52.5q0 -29 10.5 -53.5t28.5 -42.5t42 -28.5t51 -10.5q30 0 55 10.5t43.5 28.5t29 42.5t10.5 53.5q0 28 -10.5 52.5t-29 43t-44 29t-54.5 10.5zM285 -188q-87 0 -147.5 31.5t-100.5 88.5l100 68q23 -32 59.5 -51.5
t86.5 -19.5q65 0 102 27t37 82v14q-56 -47 -148 -47q-51 0 -97.5 19.5t-81.5 54t-55.5 81.5t-20.5 102q0 54 20.5 101.5t55.5 82.5t81.5 55t97.5 20t88 -14t60 -32v38h138v-463q0 -50 -18 -93t-53 -75.5t-86.5 -51t-117.5 -18.5zM432 549l-147 38l-147 -38v102l147 54
l147 -54v-102z" />
    <glyph glyph-name="Gbreve" unicode="&#x11e;" horiz-adv-x="766" 
d="M742 344q0 -77 -25.5 -142.5t-71 -113.5t-109.5 -75t-141 -27q-81 0 -149 28t-117 76.5t-76 113.5t-27 139q0 73 26.5 138t75 113.5t116.5 76.5t151 28q97 0 169.5 -37t119.5 -104l-114 -97q-35 44 -78 68.5t-97 24.5q-45 0 -83.5 -15.5t-67 -44t-44.5 -68t-16 -87.5
q0 -45 15.5 -83.5t43 -66t65.5 -43.5t83 -16q69 0 113.5 32t64.5 87h-182v135h355v-40v0zM391 833q26 0 49.5 4.5t42.5 11.5t32.5 14t21.5 13v-99q-6 -8 -18.5 -18t-31 -19t-42.5 -15t-54 -6t-54 6t-42.5 15t-31 19t-18.5 18v99q7 -6 21 -13t33 -14t42.5 -11.5t49.5 -4.5z
" />
    <glyph glyph-name="gbreve" unicode="&#x11f;" horiz-adv-x="587" 
d="M286 396q-27 0 -51 -10.5t-42 -29t-28.5 -43t-10.5 -52.5q0 -29 10.5 -53.5t28.5 -42.5t42 -28.5t51 -10.5q30 0 55 10.5t43.5 28.5t29 42.5t10.5 53.5q0 28 -10.5 52.5t-29 43t-44 29t-54.5 10.5zM285 -188q-87 0 -147.5 31.5t-100.5 88.5l100 68q23 -32 59.5 -51.5
t86.5 -19.5q65 0 102 27t37 82v14q-56 -47 -148 -47q-51 0 -97.5 19.5t-81.5 54t-55.5 81.5t-20.5 102q0 54 20.5 101.5t55.5 82.5t81.5 55t97.5 20t88 -14t60 -32v38h138v-463q0 -50 -18 -93t-53 -75.5t-86.5 -51t-117.5 -18.5zM285 661q26 0 49.5 4.5t42.5 11.5t32.5 14
t21.5 13v-99q-6 -8 -18.5 -18t-31 -19t-42.5 -15t-54 -6t-54 6t-42.5 15t-31 19t-18.5 18v99q7 -6 21 -13t33 -14t42.5 -11.5t49.5 -4.5z" />
    <glyph glyph-name="Gdotaccent" unicode="&#x120;" horiz-adv-x="766" 
d="M742 344q0 -77 -25.5 -142.5t-71 -113.5t-109.5 -75t-141 -27q-81 0 -149 28t-117 76.5t-76 113.5t-27 139q0 73 26.5 138t75 113.5t116.5 76.5t151 28q97 0 169.5 -37t119.5 -104l-114 -97q-35 44 -78 68.5t-97 24.5q-45 0 -83.5 -15.5t-67 -44t-44.5 -68t-16 -87.5
q0 -45 15.5 -83.5t43 -66t65.5 -43.5t83 -16q69 0 113.5 32t64.5 87h-182v135h355v-40v0zM321 729v128h140v-128h-140z" />
    <glyph glyph-name="gdotaccent" unicode="&#x121;" horiz-adv-x="587" 
d="M286 396q-27 0 -51 -10.5t-42 -29t-28.5 -43t-10.5 -52.5q0 -29 10.5 -53.5t28.5 -42.5t42 -28.5t51 -10.5q30 0 55 10.5t43.5 28.5t29 42.5t10.5 53.5q0 28 -10.5 52.5t-29 43t-44 29t-54.5 10.5zM285 -188q-87 0 -147.5 31.5t-100.5 88.5l100 68q23 -32 59.5 -51.5
t86.5 -19.5q65 0 102 27t37 82v14q-56 -47 -148 -47q-51 0 -97.5 19.5t-81.5 54t-55.5 81.5t-20.5 102q0 54 20.5 101.5t55.5 82.5t81.5 55t97.5 20t88 -14t60 -32v38h138v-463q0 -50 -18 -93t-53 -75.5t-86.5 -51t-117.5 -18.5zM215 557v128h140v-128h-140z" />
    <glyph glyph-name="Gcommaaccent" unicode="&#x122;" horiz-adv-x="766" 
d="M742 344q0 -77 -25.5 -142.5t-71 -113.5t-109.5 -75t-141 -27q-81 0 -149 28t-117 76.5t-76 113.5t-27 139q0 73 26.5 138t75 113.5t116.5 76.5t151 28q97 0 169.5 -37t119.5 -104l-114 -97q-35 44 -78 68.5t-97 24.5q-45 0 -83.5 -15.5t-67 -44t-44.5 -68t-16 -87.5
q0 -45 15.5 -83.5t43 -66t65.5 -43.5t83 -16q69 0 113.5 32t64.5 87h-182v135h355v-40v0zM405 -219h-89l31 70h-32v107h128v-83z" />
    <glyph glyph-name="gcommaaccent" unicode="&#x123;" horiz-adv-x="587" 
d="M261 734h89l-31 -70h32v-107h-128v83zM286 396q-27 0 -51 -10.5t-42 -29t-28.5 -43t-10.5 -52.5q0 -29 10.5 -53.5t28.5 -42.5t42 -28.5t51 -10.5q30 0 55 10.5t43.5 28.5t29 42.5t10.5 53.5q0 28 -10.5 52.5t-29 43t-44 29t-54.5 10.5zM285 -188q-87 0 -147.5 31.5
t-100.5 88.5l100 68q23 -32 59.5 -51.5t86.5 -19.5q65 0 102 27t37 82v14q-56 -47 -148 -47q-51 0 -97.5 19.5t-81.5 54t-55.5 81.5t-20.5 102q0 54 20.5 101.5t55.5 82.5t81.5 55t97.5 20t88 -14t60 -32v38h138v-463q0 -50 -18 -93t-53 -75.5t-86.5 -51t-117.5 -18.5z" />
    <glyph glyph-name="Hcircumflex" unicode="&#x124;" horiz-adv-x="684" 
d="M487 268h-290v-268h-155v685h155v-275h290v275h155v-685h-155v268zM489 721l-147 38l-147 -38v102l147 54l147 -54v-102z" />
    <glyph glyph-name="hcircumflex" unicode="&#x125;" 
d="M167 461q7 10 20.5 20.5t33 19.5t43 15t50.5 6q45 0 81.5 -15t62.5 -42t40 -65.5t14 -84.5v-315h-138v291q0 46 -24.5 74.5t-69.5 28.5q-51 0 -82 -30t-31 -84v-280h-139v685h139v-224v0zM249 721l-147 38l-147 -38v102l147 54l147 -54v-102z" />
    <glyph glyph-name="Hbar" unicode="&#x126;" horiz-adv-x="684" 
d="M487 410v78h-290v-78h290zM197 0h-155v488h-48v131h48v66h155v-66h290v66h155v-66h48v-131h-48v-488h-155v268h-290v-268z" />
    <glyph glyph-name="hbar" unicode="&#x127;" 
d="M164 459q14 17 36 30q19 11 47 21t67 10q45 0 81.5 -15t62.5 -42t40 -65t14 -84v-314h-125v296q0 49 -26.5 78.5t-73.5 29.5q-56 0 -89.5 -32t-33.5 -89v-283h-125v537h-30v107h30v41h125v-41h117v-107h-117v-78z" />
    <glyph glyph-name="Itilde" unicode="&#x128;" horiz-adv-x="238" 
d="M42 0v685h155v-685h-155zM200 828q22 0 42 9.5t30 17.5v-92q-11 -14 -36 -29t-55 -15q-22 0 -39.5 5t-34 11t-32.5 11t-34 5q-22 0 -42 -9.5t-30 -17.5v92q11 14 36 29t55 15q22 0 39.5 -5t34 -11t32.5 -11t34 -5z" />
    <glyph glyph-name="itilde" unicode="&#x129;" horiz-adv-x="195" 
d="M28 0v513h139v-513h-139zM179 656q22 0 42 9.5t30 17.5v-92q-11 -14 -36 -29t-55 -15q-22 0 -39.5 5t-34 11t-32.5 11t-34 5q-22 0 -42 -9.5t-30 -17.5v92q11 14 36 29t55 15q22 0 39.5 -5t34 -11t32.5 -11t34 -5z" />
    <glyph glyph-name="Imacron" unicode="&#x12a;" horiz-adv-x="238" 
d="M42 0v685h155v-685h-155zM-18 743v123h276v-123h-276z" />
    <glyph glyph-name="imacron" unicode="&#x12b;" horiz-adv-x="195" 
d="M28 0v513h139v-513h-139zM-39 571v123h276v-123h-276z" />
    <glyph glyph-name="Ibreve" unicode="&#x12c;" horiz-adv-x="238" 
d="M42 0v685h155v-685h-155zM120 833q26 0 49.5 4.5t42.5 11.5t32.5 14t21.5 13v-99q-6 -8 -18.5 -18t-31 -19t-42.5 -15t-54 -6t-54 6t-42.5 15t-31 19t-18.5 18v99q7 -6 21 -13t33 -14t42.5 -11.5t49.5 -4.5z" />
    <glyph glyph-name="ibreve" unicode="&#x12d;" horiz-adv-x="195" 
d="M28 0v513h139v-513h-139zM99 661q26 0 49.5 4.5t42.5 11.5t32.5 14t21.5 13v-99q-6 -8 -18.5 -18t-31 -19t-42.5 -15t-54 -6t-54 6t-42.5 15t-31 19t-18.5 18v99q7 -6 21 -13t33 -14t42.5 -11.5t49.5 -4.5z" />
    <glyph glyph-name="Iogonek" unicode="&#x12e;" horiz-adv-x="238" 
d="M188 -165q-7 -5 -17 -9q-8 -4 -21 -6.5t-29 -2.5q-47 0 -74.5 24t-27.5 62q0 33 19.5 59t49.5 38h-46v685h155v-685h-41q-28 -14 -41 -34.5t-13 -41.5q0 -36 40 -36q11 0 19 1t14 3q7 2 13 5v-62v0z" />
    <glyph glyph-name="iogonek" unicode="&#x12f;" horiz-adv-x="195" 
d="M28 557v128h139v-128h-139zM167 -165q-7 -5 -17 -9q-8 -4 -21 -6.5t-29 -2.5q-47 0 -74.5 24t-27.5 62q0 33 19.5 59t49.5 38h-39v513h139v-513h-32q-28 -14 -41 -34.5t-13 -41.5q0 -36 40 -36q11 0 19 1t14 3q7 2 13 5v-62z" />
    <glyph glyph-name="Idotaccent" unicode="&#x130;" horiz-adv-x="238" 
d="M42 0v685h155v-685h-155zM50 729v128h140v-128h-140z" />
    <glyph glyph-name="dotlessi" unicode="&#x131;" horiz-adv-x="195" 
d="M28 0v513h139v-513h-139z" />
    <glyph glyph-name="IJ" unicode="&#x132;" horiz-adv-x="813" 
d="M42 0v685h155v-685h-155zM418 245q0 -60 26.5 -86.5t74.5 -26.5t74.5 32.5t26.5 86.5v434h155v-434q0 -59 -16.5 -107.5t-49 -83t-80 -53.5t-109.5 -19q-60 0 -107.5 17t-81 50t-51 80.5t-17.5 109.5h155z" />
    <glyph glyph-name="ij" unicode="&#x133;" horiz-adv-x="390" 
d="M28 557v128h139v-128h-139zM28 0v513h139v-513h-139zM223 557v128h139v-128h-139zM362 37q0 -58 -12.5 -98.5t-39 -66.5t-68.5 -38t-101 -12v123q42 0 62 19.5t20 62.5v486h139v-476z" />
    <glyph glyph-name="Jcircumflex" unicode="&#x134;" horiz-adv-x="575" 
d="M180 245q0 -60 26.5 -86.5t74.5 -26.5t74.5 32.5t26.5 86.5v434h155v-434q0 -59 -16.5 -107.5t-49 -83t-80 -53.5t-109.5 -19q-60 0 -107.5 17t-81 50t-51 80.5t-17.5 109.5h155zM601 721l-147 38l-147 -38v102l147 54l147 -54v-102z" />
    <glyph glyph-name="jcircumflex" unicode="&#x135;" horiz-adv-x="195" 
d="M167 37q0 -58 -12.5 -98.5t-39 -66.5t-68.5 -38t-101 -12v123q42 0 62 19.5t20 62.5v486h139v-476zM246 549l-147 38l-147 -38v102l147 54l147 -54v-102z" />
    <glyph glyph-name="Kcommaaccent" unicode="&#x136;" horiz-adv-x="627" 
d="M441 685h181l-272 -342l280 -343h-201l-232 292v-292h-155v685h155v-319zM340 -219h-89l31 70h-32v107h128v-83z" />
    <glyph glyph-name="kcommaaccent" unicode="&#x137;" horiz-adv-x="503" 
d="M338 513h158l-197 -255l205 -258h-173l-163 211v-211h-140v685h140v-402zM278 -219h-89l31 70h-32v107h128v-83z" />
    <glyph glyph-name="kgreenlandic" unicode="&#x138;" horiz-adv-x="503" 
d="M338 513h158l-197 -255l205 -258h-173l-163 211v-211h-140v513h140v-230z" />
    <glyph glyph-name="Lacute" unicode="&#x139;" horiz-adv-x="544" 
d="M42 685h155v-543h318v-142h-473v685zM5 719v123l234 57v-126z" />
    <glyph glyph-name="lacute" unicode="&#x13a;" horiz-adv-x="196" 
d="M28 0v685h140v-685h-140zM-14 719v123l234 57v-126z" />
    <glyph glyph-name="Lcommaaccent" unicode="&#x13b;" horiz-adv-x="544" 
d="M42 685h155v-543h318v-142h-473v685zM298 -219h-89l31 70h-32v107h128v-83z" />
    <glyph glyph-name="lcommaaccent" unicode="&#x13c;" horiz-adv-x="196" 
d="M28 0v685h140v-685h-140zM125 -219h-89l31 70h-32v107h128v-83z" />
    <glyph glyph-name="Lcaron" unicode="&#x13d;" horiz-adv-x="544" 
d="M467 568l-45 -124h-97l37 96h-38v145h143v-117v0zM42 685h155v-543h318v-142h-473v685z" />
    <glyph glyph-name="lcaron" unicode="&#x13e;" horiz-adv-x="401" 
d="M373 568l-45 -124h-97l37 96h-38v145h143v-117v0zM28 0v685h140v-685h-140z" />
    <glyph glyph-name="Ldot" unicode="&#x13f;" horiz-adv-x="544" 
d="M42 685h155v-543h318v-142h-473v685zM310 310v128h140v-128h-140z" />
    <glyph glyph-name="ldot" unicode="&#x140;" horiz-adv-x="384" 
d="M28 0v685h140v-685h-140zM219 258v128h140v-128h-140z" />
    <glyph glyph-name="Lslash" unicode="&#x141;" horiz-adv-x="554" 
d="M52 0v291l-44 -23v102l44 24v291h155v-208l83 44v-103l-83 -44v-232h318v-142h-473z" />
    <glyph glyph-name="lslash" unicode="&#x142;" horiz-adv-x="196" 
d="M168 365v-365h-140v288l-37 -21v102l37 21v295h140v-217l41 23v-103z" />
    <glyph glyph-name="Nacute" unicode="&#x143;" horiz-adv-x="678" 
d="M191 434v-434h-149v685h169l276 -435v435h149v-685h-169zM226 719v123l234 57v-126z" />
    <glyph glyph-name="nacute" unicode="&#x144;" 
d="M165 461q19 22 57 41.5t92 19.5q45 0 81.5 -15t62.5 -42t40 -65.5t14 -84.5v-315h-138v291q0 46 -24.5 74.5t-69.5 28.5q-51 0 -82 -30t-31 -84v-280h-139v513h137v-52zM157 547v123l234 57v-126z" />
    <glyph glyph-name="Ncommaaccent" unicode="&#x145;" horiz-adv-x="678" 
d="M191 434v-434h-149v685h169l276 -435v435h149v-685h-169zM365 -219h-89l31 70h-32v107h128v-83z" />
    <glyph glyph-name="ncommaaccent" unicode="&#x146;" 
d="M165 461q19 22 57 41.5t92 19.5q45 0 81.5 -15t62.5 -42t40 -65.5t14 -84.5v-315h-138v291q0 46 -24.5 74.5t-69.5 28.5q-51 0 -82 -30t-31 -84v-280h-139v513h137v-52zM296 -219h-89l31 70h-32v107h128v-83z" />
    <glyph glyph-name="Ncaron" unicode="&#x147;" horiz-adv-x="678" 
d="M191 434v-434h-149v685h169l276 -435v435h149v-685h-169zM339 716l-147 54v103l147 -39l147 39v-103z" />
    <glyph glyph-name="ncaron" unicode="&#x148;" 
d="M165 461q19 22 57 41.5t92 19.5q45 0 81.5 -15t62.5 -42t40 -65.5t14 -84.5v-315h-138v291q0 46 -24.5 74.5t-69.5 28.5q-51 0 -82 -30t-31 -84v-280h-139v513h137v-52zM270 544l-147 54v103l147 -39l147 39v-103z" />
    <glyph glyph-name="napostrophe" unicode="&#x149;" 
d="M165 461q19 22 57 41.5t92 19.5q45 0 81.5 -15t62.5 -42t40 -65.5t14 -84.5v-315h-138v291q0 46 -24.5 74.5t-69.5 28.5q-51 0 -82 -30t-31 -84v-280h-139v513h137v-52zM119 573h-89l31 70h-32v107h128v-83z" />
    <glyph glyph-name="Eng" unicode="&#x14a;" horiz-adv-x="678" 
d="M414 -55q50 0 69 29l-292 460v-434h-149v685h169l276 -435v435h149v-648q0 -58 -12.5 -98.5t-39.5 -66.5t-69 -38t-101 -12v123z" />
    <glyph glyph-name="eng" unicode="&#x14b;" 
d="M165 461q3 4 14 14t29.5 20.5t45 18.5t60.5 8q45 0 81.5 -15t62.5 -42t40 -65.5t14 -84.5v-278q0 -58 -12.5 -98.5t-39 -66.5t-68 -38t-100.5 -12v123q42 0 62 19.5t20 62.5v264q0 46 -24.5 74.5t-69.5 28.5q-51 0 -82 -30t-31 -84v-280h-139v513h137v-52z" />
    <glyph glyph-name="Omacron" unicode="&#x14c;" horiz-adv-x="778" 
d="M389 -14q-75 0 -141 27t-115.5 75t-78 113t-28.5 141t28.5 141.5t78 113.5t115.5 75t141 27q77 0 143.5 -27t115 -75t76.5 -113t28 -141q0 -77 -28 -142t-76.5 -113t-115 -75t-143.5 -27zM389 130q43 0 80.5 16.5t65.5 45t43.5 67.5t15.5 84t-15.5 83.5t-43.5 67
t-65.5 45t-80.5 16.5q-44 0 -81 -16.5t-65 -45t-43.5 -67.5t-15.5 -84t15.5 -84t43.5 -67.5t65 -44.5t81 -16zM251 743v123h276v-123h-276z" />
    <glyph glyph-name="omacron" unicode="&#x14d;" horiz-adv-x="587" 
d="M294 523q59 0 109.5 -21t87.5 -57t58 -85t21 -105t-21 -104.5t-58 -84.5t-87.5 -57t-109.5 -21t-109.5 20.5t-87.5 56.5t-57.5 85t-20.5 105t21 105t57.5 85t87 57t109.5 21zM294 397q-29 0 -54.5 -10.5t-44 -29.5t-29 -45t-10.5 -57t10 -57t28 -45t43 -30t54 -11t55 11
t45 30t30 45t11 57t-10.5 57t-29 45t-44 29.5t-54.5 10.5zM156 571v123h276v-123h-276z" />
    <glyph glyph-name="Obreve" unicode="&#x14e;" horiz-adv-x="778" 
d="M389 -14q-75 0 -141 27t-115.5 75t-78 113t-28.5 141t28.5 141.5t78 113.5t115.5 75t141 27q77 0 143.5 -27t115 -75t76.5 -113t28 -141q0 -77 -28 -142t-76.5 -113t-115 -75t-143.5 -27zM389 130q43 0 80.5 16.5t65.5 45t43.5 67.5t15.5 84t-15.5 83.5t-43.5 67
t-65.5 45t-80.5 16.5q-44 0 -81 -16.5t-65 -45t-43.5 -67.5t-15.5 -84t15.5 -84t43.5 -67.5t65 -44.5t81 -16zM389 833q26 0 49.5 4.5t42.5 11.5t32.5 14t21.5 13v-99q-6 -8 -18.5 -18t-31 -19t-42.5 -15t-54 -6t-54 6t-42.5 15t-31 19t-18.5 18v99q7 -6 21 -13t33 -14
t42.5 -11.5t49.5 -4.5z" />
    <glyph glyph-name="obreve" unicode="&#x14f;" horiz-adv-x="587" 
d="M294 523q59 0 109.5 -21t87.5 -57t58 -85t21 -105t-21 -104.5t-58 -84.5t-87.5 -57t-109.5 -21t-109.5 20.5t-87.5 56.5t-57.5 85t-20.5 105t21 105t57.5 85t87 57t109.5 21zM294 397q-29 0 -54.5 -10.5t-44 -29.5t-29 -45t-10.5 -57t10 -57t28 -45t43 -30t54 -11t55 11
t45 30t30 45t11 57t-10.5 57t-29 45t-44 29.5t-54.5 10.5zM294 661q26 0 49.5 4.5t42.5 11.5t32.5 14t21.5 13v-99q-6 -8 -18.5 -18t-31 -19t-42.5 -15t-54 -6t-54 6t-42.5 15t-31 19t-18.5 18v99q7 -6 21 -13t33 -14t42.5 -11.5t49.5 -4.5z" />
    <glyph glyph-name="Ohungarumlaut" unicode="&#x150;" horiz-adv-x="778" 
d="M389 -14q-75 0 -141 27t-115.5 75t-78 113t-28.5 141t28.5 141.5t78 113.5t115.5 75t141 27q77 0 143.5 -27t115 -75t76.5 -113t28 -141q0 -77 -28 -142t-76.5 -113t-115 -75t-143.5 -27zM389 130q43 0 80.5 16.5t65.5 45t43.5 67.5t15.5 84t-15.5 83.5t-43.5 67
t-65.5 45t-80.5 16.5q-44 0 -81 -16.5t-65 -45t-43.5 -67.5t-15.5 -84t15.5 -84t43.5 -67.5t65 -44.5t81 -16zM228 730l49 147h136l-53 -147h-132zM397 730l53 147h136l-57 -147h-132z" />
    <glyph glyph-name="ohungarumlaut" unicode="&#x151;" horiz-adv-x="587" 
d="M294 523q59 0 109.5 -21t87.5 -57t58 -85t21 -105t-21 -104.5t-58 -84.5t-87.5 -57t-109.5 -21t-109.5 20.5t-87.5 56.5t-57.5 85t-20.5 105t21 105t57.5 85t87 57t109.5 21zM294 397q-29 0 -54.5 -10.5t-44 -29.5t-29 -45t-10.5 -57t10 -57t28 -45t43 -30t54 -11t55 11
t45 30t30 45t11 57t-10.5 57t-29 45t-44 29.5t-54.5 10.5zM133 558l49 147h136l-53 -147h-132zM302 558l53 147h136l-57 -147h-132z" />
    <glyph glyph-name="uni04A2" unicode="&#x152;" horiz-adv-x="757" 
d="M595 0h-108v268h-290v-268h-155v685h155v-275h290v275h155v-543h100v-273l-147 -10v141z" />
    <glyph glyph-name="uni04A2" unicode="&#x4a2;" horiz-adv-x="757" 
d="M595 0h-108v268h-290v-268h-155v685h155v-275h290v275h155v-543h100v-273l-147 -10v141z" />
    <glyph glyph-name="uni04A3" unicode="&#x153;" horiz-adv-x="592" 
d="M364 197h-197v-197h-139v513h139v-193h197v193h139v-390h79v-254l-129 -10v141h-89v197z" />
    <glyph glyph-name="uni04A3" unicode="&#x4a3;" horiz-adv-x="592" 
d="M364 197h-197v-197h-139v513h139v-193h197v193h139v-390h79v-254l-129 -10v141h-89v197z" />
    <glyph glyph-name="Racute" unicode="&#x154;" horiz-adv-x="615" 
d="M197 543v-183h109q51 0 79.5 25.5t28.5 65.5t-25.5 66t-77.5 26h-114zM197 0h-155v685h292q55 0 98.5 -17t74 -47t47 -72t16.5 -92q0 -40 -13 -76t-37 -65t-59 -49t-78 -29l218 -238h-202l-202 233v-233zM192 719v123l234 57v-126z" />
    <glyph glyph-name="racute" unicode="&#x155;" horiz-adv-x="338" 
d="M28 0v513h139v-70q26 35 63.5 56t85.5 21v-140q-77 0 -112.5 -39.5t-35.5 -106.5v-234h-140zM62 547v123l234 57v-126z" />
    <glyph glyph-name="Rcommaaccent" unicode="&#x156;" horiz-adv-x="615" 
d="M197 543v-183h109q51 0 79.5 25.5t28.5 65.5t-25.5 66t-77.5 26h-114zM197 0h-155v685h292q55 0 98.5 -17t74 -47t47 -72t16.5 -92q0 -40 -13 -76t-37 -65t-59 -49t-78 -29l218 -238h-202l-202 233v-233zM331 -219h-89l31 70h-32v107h128v-83z" />
    <glyph glyph-name="rcommaaccent" unicode="&#x157;" horiz-adv-x="338" 
d="M28 0v513h139v-70q26 35 63.5 56t85.5 21v-140q-77 0 -112.5 -39.5t-35.5 -106.5v-234h-140zM127 -219h-89l31 70h-32v107h128v-83z" />
    <glyph glyph-name="Rcaron" unicode="&#x158;" horiz-adv-x="615" 
d="M197 543v-183h109q51 0 79.5 25.5t28.5 65.5t-25.5 66t-77.5 26h-114zM197 0h-155v685h292q55 0 98.5 -17t74 -47t47 -72t16.5 -92q0 -40 -13 -76t-37 -65t-59 -49t-78 -29l218 -238h-202l-202 233v-233zM305 716l-147 54v103l147 -39l147 39v-103z" />
    <glyph glyph-name="rcaron" unicode="&#x159;" horiz-adv-x="338" 
d="M28 0v513h139v-70q26 35 63.5 56t85.5 21v-140q-77 0 -112.5 -39.5t-35.5 -106.5v-234h-140zM175 544l-147 54v103l147 -39l147 39v-103z" />
    <glyph glyph-name="Sacute" unicode="&#x15a;" horiz-adv-x="588" 
d="M291 -13q-131 0 -200.5 60.5t-76.5 166.5h155q1 -20 8 -38.5t21.5 -33t38 -23.5t58.5 -9q59 0 88.5 21t29.5 53q0 20 -11.5 33t-31.5 22.5t-46.5 16t-55.5 12.5q-41 10 -84 22.5t-78 36.5t-57.5 62.5t-22.5 99.5q0 45 17 83.5t50 66t80.5 43.5t109.5 16q63 0 111.5 -16.5
t82 -46t52.5 -71t23 -91.5h-156q-2 41 -28 70t-89 29q-47 0 -75 -18t-28 -52q0 -22 12 -36.5t32 -24.5t46.5 -17t55.5 -14q42 -9 85.5 -21t79.5 -34t58.5 -58t22.5 -94q0 -47 -18 -86.5t-53.5 -68.5t-87 -45t-118.5 -16zM176 716v123l234 57v-126z" />
    <glyph glyph-name="sacute" unicode="&#x15b;" horiz-adv-x="497" 
d="M161 161q0 -12 4.5 -24t15.5 -22t29 -17t46 -7q39 0 57.5 15t18.5 33q0 12 -7 20.5t-19 13.5t-28.5 8.5t-35.5 6.5q-34 6 -71.5 13t-69 23.5t-52 46.5t-20.5 82q0 35 15 65t42.5 52.5t66.5 35.5t88 13q98 0 156 -46t64 -124h-139q-1 14 -4.5 26t-12.5 20.5t-24 13.5
t-38 5q-30 0 -51.5 -10.5t-21.5 -34.5q0 -14 9 -23.5t25 -15.5t37 -10t44 -8q33 -6 67.5 -13.5t63 -23.5t46.5 -42.5t18 -69.5q0 -46 -18 -78.5t-49 -53.5t-73.5 -31t-90.5 -10q-53 0 -94.5 13t-71 36t-46 54t-17.5 68h141zM127 547v123l234 57v-126z" />
    <glyph glyph-name="Scircumflex" unicode="&#x15c;" horiz-adv-x="588" 
d="M291 -13q-131 0 -200.5 60.5t-76.5 166.5h155q1 -20 8 -38.5t21.5 -33t38 -23.5t58.5 -9q59 0 88.5 21t29.5 53q0 20 -11.5 33t-31.5 22.5t-46.5 16t-55.5 12.5q-41 10 -84 22.5t-78 36.5t-57.5 62.5t-22.5 99.5q0 45 17 83.5t50 66t80.5 43.5t109.5 16q63 0 111.5 -16.5
t82 -46t52.5 -71t23 -91.5h-156q-2 41 -28 70t-89 29q-47 0 -75 -18t-28 -52q0 -22 12 -36.5t32 -24.5t46.5 -17t55.5 -14q42 -9 85.5 -21t79.5 -34t58.5 -58t22.5 -94q0 -47 -18 -86.5t-53.5 -68.5t-87 -45t-118.5 -16zM436 718l-147 38l-147 -38v102l147 54l147 -54v-102z
" />
    <glyph glyph-name="scircumflex" unicode="&#x15d;" horiz-adv-x="497" 
d="M161 161q0 -12 4.5 -24t15.5 -22t29 -17t46 -7q39 0 57.5 15t18.5 33q0 12 -7 20.5t-19 13.5t-28.5 8.5t-35.5 6.5q-34 6 -71.5 13t-69 23.5t-52 46.5t-20.5 82q0 35 15 65t42.5 52.5t66.5 35.5t88 13q98 0 156 -46t64 -124h-139q-1 14 -4.5 26t-12.5 20.5t-24 13.5
t-38 5q-30 0 -51.5 -10.5t-21.5 -34.5q0 -14 9 -23.5t25 -15.5t37 -10t44 -8q33 -6 67.5 -13.5t63 -23.5t46.5 -42.5t18 -69.5q0 -46 -18 -78.5t-49 -53.5t-73.5 -31t-90.5 -10q-53 0 -94.5 13t-71 36t-46 54t-17.5 68h141zM387 549l-147 38l-147 -38v102l147 54l147 -54
v-102z" />
    <glyph glyph-name="Scedilla" unicode="&#x15e;" horiz-adv-x="588" 
d="M286 -217q-43 0 -69.5 26t-28.5 64h71q2 -11 9.5 -18.5t18.5 -7.5t19 7.5t8 18.5q0 12 -7.5 19.5t-19.5 7.5h-76l40 89q-112 9 -171.5 68t-65.5 157h155q1 -20 8 -38.5t21.5 -33t38 -23.5t58.5 -9q59 0 88.5 21t29.5 53q0 20 -11.5 33t-31.5 22.5t-46.5 16t-55.5 12.5
q-41 10 -84 22.5t-78 36.5t-57.5 62.5t-22.5 99.5q0 45 17 83.5t50 66t80.5 43.5t109.5 16q63 0 111.5 -16.5t82 -46t52.5 -71t23 -91.5h-156q-2 41 -28 70t-89 29q-47 0 -75 -18t-28 -52q0 -22 12 -36.5t32 -24.5t46.5 -17t55.5 -14q42 -9 85.5 -21t79.5 -34t58.5 -58
t22.5 -94q0 -45 -17 -84t-49.5 -67.5t-81 -45.5t-111.5 -19l-14 -29q40 0 64.5 -23.5t24.5 -61.5q0 -37 -26.5 -63.5t-71.5 -26.5z" />
    <glyph glyph-name="scedilla" unicode="&#x15f;" horiz-adv-x="497" 
d="M161 161q0 -12 4.5 -24t15.5 -22t29 -17t46 -7q39 0 57.5 15t18.5 33q0 12 -7 20.5t-19 13.5t-28.5 8.5t-35.5 6.5q-34 6 -71.5 13t-69 23.5t-52 46.5t-20.5 82q0 35 15 65t42.5 52.5t66.5 35.5t88 13q98 0 156 -46t64 -124h-139q-1 14 -4.5 26t-12.5 20.5t-24 13.5
t-38 5q-30 0 -51.5 -10.5t-21.5 -34.5q0 -14 9 -23.5t25 -15.5t37 -10t44 -8q33 -6 67.5 -13.5t63 -23.5t46.5 -42.5t18 -69.5q0 -46 -18 -78.5t-49 -53.5t-74 -31q-23 -5 -49 -8l-12 -1l-16 -33q40 0 64.5 -23.5t24.5 -61.5q0 -37 -26.5 -63.5t-71.5 -26.5q-43 0 -69.5 26
t-28.5 64h71q2 -11 9.5 -18.5t18.5 -7.5t19 7.5t8 18.5q0 12 -7.5 19.5t-19.5 7.5h-76l41 91q-35 3 -65 12q-41 13 -70.5 36t-46 54t-17.5 68h141z" />
    <glyph glyph-name="uni04A0" unicode="&#x160;" horiz-adv-x="760" 
d="M15 685h315v-319l244 319h181l-272 -342l280 -343h-201l-232 292v-292h-155v543h-160v142z" />
    <glyph glyph-name="uni04A0" unicode="&#x4a0;" horiz-adv-x="760" 
d="M15 685h315v-319l244 319h181l-272 -342l280 -343h-201l-232 292v-292h-155v543h-160v142z" />
    <glyph glyph-name="uni04A1" unicode="&#x161;" horiz-adv-x="600" 
d="M15 513h250v-230l170 230h158l-197 -255l205 -258h-173l-163 211v-211h-140v390h-110v123z" />
    <glyph glyph-name="uni04A1" unicode="&#x4a1;" horiz-adv-x="600" 
d="M15 513h250v-230l170 230h158l-197 -255l205 -258h-173l-163 211v-211h-140v390h-110v123z" />
    <glyph glyph-name="Tcedilla" unicode="&#x162;" horiz-adv-x="593" 
d="M301 -217q-43 0 -69.5 26t-28.5 64h71q2 -11 9.5 -18.5t18.5 -7.5t19 7.5t8 18.5q0 12 -7.5 19.5t-19.5 7.5h-76l45 100h-52v543h-204v142h563v-142h-204v-543h-43l-21 -42q40 0 64.5 -23.5t24.5 -61.5q0 -37 -26.5 -63.5t-71.5 -26.5z" />
    <glyph glyph-name="tcedilla" unicode="&#x163;" horiz-adv-x="383" 
d="M241 -217q-43 0 -69.5 26t-28.5 64h71q2 -11 9.5 -18.5t18.5 -7.5t19 7.5t8 18.5q0 12 -7.5 19.5t-19.5 7.5h-76l49 108q-63 15 -92 57t-29 111v213h-74v124h74v132h139v-132h126v-124h-126v-206q0 -35 16.5 -49.5t51.5 -14.5h58v-119h-68h-20l-21 -42q40 0 64.5 -23.5
t24.5 -61.5q0 -37 -26.5 -63.5t-71.5 -26.5z" />
    <glyph glyph-name="Tcaron" unicode="&#x164;" horiz-adv-x="593" 
d="M219 0v543h-204v142h563v-142h-204v-543h-155zM297 716l-147 54v103l147 -39l147 39v-103z" />
    <glyph glyph-name="tcaron" unicode="&#x165;" horiz-adv-x="383" 
d="M428 690l-45 -124h-97l37 96h-38v145h143v-117v0zM359 513v-124h-126v-206q0 -35 16.5 -49.5t51.5 -14.5h58v-119h-68q-103 0 -150 44.5t-47 131.5v213h-74v124h74v132h139v-132h126z" />
    <glyph glyph-name="Tbar" unicode="&#x166;" horiz-adv-x="593" 
d="M374 250v-250h-155v250h-140v131h140v162h-204v142h563v-142h-204v-162h140v-131h-140z" />
    <glyph glyph-name="tbar" unicode="&#x167;" horiz-adv-x="383" 
d="M94 389h-74v124h74v132h139v-132h126v-124h-126v-61h126v-124h-126v-21q0 -35 16.5 -49.5t51.5 -14.5h58v-119h-68q-103 0 -150 44.5t-47 131.5v28h-74v124h74v61z" />
    <glyph glyph-name="Utilde" unicode="&#x168;" horiz-adv-x="666" 
d="M335 -12q-72 0 -127.5 20.5t-93 58t-57 89.5t-19.5 116v413h155v-392q0 -78 36.5 -119.5t104.5 -41.5q67 0 103 41.5t36 119.5v392h155v-413q0 -64 -19 -116t-56.5 -89.5t-92 -58t-125.5 -20.5zM414 828q22 0 42 9.5t30 17.5v-92q-11 -14 -36 -29t-55 -15q-22 0 -39.5 5
t-34 11t-32.5 11t-34 5q-22 0 -42 -9.5t-30 -17.5v92q11 14 36 29t55 15q22 0 39.5 -5t34 -11t32.5 -11t34 -5z" />
    <glyph glyph-name="utilde" unicode="&#x169;" 
d="M375 0v51q-26 -28 -64 -44t-85 -16q-45 0 -81.5 15t-62.5 42t-40 65t-14 85v315h138v-291q0 -46 25 -74.5t70 -28.5q51 0 82 30t31 84v280h138v-513h-137zM350 656q22 0 42 9.5t30 17.5v-92q-11 -14 -36 -29t-55 -15q-22 0 -39.5 5t-34 11t-32.5 11t-34 5q-22 0 -42 -9.5
t-30 -17.5v92q11 14 36 29t55 15q22 0 39.5 -5t34 -11t32.5 -11t34 -5z" />
    <glyph glyph-name="Umacron" unicode="&#x16a;" horiz-adv-x="666" 
d="M335 -12q-72 0 -127.5 20.5t-93 58t-57 89.5t-19.5 116v413h155v-392q0 -78 36.5 -119.5t104.5 -41.5q67 0 103 41.5t36 119.5v392h155v-413q0 -64 -19 -116t-56.5 -89.5t-92 -58t-125.5 -20.5zM196 743v123h276v-123h-276z" />
    <glyph glyph-name="umacron" unicode="&#x16b;" 
d="M375 0v51q-26 -28 -64 -44t-85 -16q-45 0 -81.5 15t-62.5 42t-40 65t-14 85v315h138v-291q0 -46 25 -74.5t70 -28.5q51 0 82 30t31 84v280h138v-513h-137zM132 571v123h276v-123h-276z" />
    <glyph glyph-name="Ubreve" unicode="&#x16c;" horiz-adv-x="666" 
d="M335 -12q-72 0 -127.5 20.5t-93 58t-57 89.5t-19.5 116v413h155v-392q0 -78 36.5 -119.5t104.5 -41.5q67 0 103 41.5t36 119.5v392h155v-413q0 -64 -19 -116t-56.5 -89.5t-92 -58t-125.5 -20.5zM334 833q26 0 49.5 4.5t42.5 11.5t32.5 14t21.5 13v-99q-6 -8 -18.5 -18
t-31 -19t-42.5 -15t-54 -6t-54 6t-42.5 15t-31 19t-18.5 18v99q7 -6 21 -13t33 -14t42.5 -11.5t49.5 -4.5z" />
    <glyph glyph-name="ubreve" unicode="&#x16d;" 
d="M375 0v51q-26 -28 -64 -44t-85 -16q-45 0 -81.5 15t-62.5 42t-40 65t-14 85v315h138v-291q0 -46 25 -74.5t70 -28.5q51 0 82 30t31 84v280h138v-513h-137zM270 661q26 0 49.5 4.5t42.5 11.5t32.5 14t21.5 13v-99q-6 -8 -18.5 -18t-31 -19t-42.5 -15t-54 -6t-54 6
t-42.5 15t-31 19t-18.5 18v99q7 -6 21 -13t33 -14t42.5 -11.5t49.5 -4.5z" />
    <glyph glyph-name="Uring" unicode="&#x16e;" horiz-adv-x="666" 
d="M335 -12q-72 0 -127.5 20.5t-93 58t-57 89.5t-19.5 116v413h155v-392q0 -78 36.5 -119.5t104.5 -41.5q67 0 103 41.5t36 119.5v392h155v-413q0 -64 -19 -116t-56.5 -89.5t-92 -58t-125.5 -20.5zM334 929q21 0 40.5 -8t33.5 -21.5t22.5 -32.5t8.5 -41q0 -23 -8.5 -42
t-22.5 -32.5t-33 -21.5t-41 -8q-21 0 -40.5 8t-33.5 21.5t-22.5 32.5t-8.5 42q0 22 8.5 41t22.5 32.5t33.5 21.5t40.5 8zM334 865q-16 0 -26.5 -11t-10.5 -28t10.5 -28t26.5 -11t26.5 11t10.5 28t-10.5 28t-26.5 11z" />
    <glyph glyph-name="uring" unicode="&#x16f;" 
d="M375 0v51q-26 -28 -64 -44t-85 -16q-45 0 -81.5 15t-62.5 42t-40 65t-14 85v315h138v-291q0 -46 25 -74.5t70 -28.5q51 0 82 30t31 84v280h138v-513h-137zM270 757q21 0 40.5 -8t33.5 -21.5t22.5 -32.5t8.5 -41q0 -23 -8.5 -42t-22.5 -32.5t-33 -21.5t-41 -8
q-21 0 -40.5 8t-33.5 21.5t-22.5 32.5t-8.5 42q0 22 8.5 41t22.5 32.5t33.5 21.5t40.5 8zM270 693q-16 0 -26.5 -11t-10.5 -28t10.5 -28t26.5 -11t26.5 11t10.5 28t-10.5 28t-26.5 11z" />
    <glyph glyph-name="Uhungarumlaut" unicode="&#x170;" horiz-adv-x="666" 
d="M335 -12q-72 0 -127.5 20.5t-93 58t-57 89.5t-19.5 116v413h155v-392q0 -78 36.5 -119.5t104.5 -41.5q67 0 103 41.5t36 119.5v392h155v-413q0 -64 -19 -116t-56.5 -89.5t-92 -58t-125.5 -20.5zM173 730l49 147h136l-53 -147h-132zM342 730l53 147h136l-57 -147h-132z
" />
    <glyph glyph-name="uhungarumlaut" unicode="&#x171;" 
d="M375 0v51q-26 -28 -64 -44t-85 -16q-45 0 -81.5 15t-62.5 42t-40 65t-14 85v315h138v-291q0 -46 25 -74.5t70 -28.5q51 0 82 30t31 84v280h138v-513h-137zM109 558l49 147h136l-53 -147h-132zM278 558l53 147h136l-57 -147h-132z" />
    <glyph glyph-name="Uogonek" unicode="&#x172;" horiz-adv-x="666" 
d="M406 -183q-47 0 -74.5 24t-27.5 62q0 26 13 48.5t34 36.5h-16q-72 0 -127.5 20.5t-93 58t-57 89.5t-19.5 116v413h155v-392q0 -78 36.5 -119.5t104.5 -41.5q67 0 103 41.5t36 119.5v392h155v-413q0 -102 -48 -173t-140 -97l1 -2q-28 -14 -41 -34.5t-13 -41.5
q0 -36 40 -36q11 0 19 1t14 3q7 2 13 5v-62q-7 -5 -17 -9q-8 -4 -21 -6.5t-29 -2.5z" />
    <glyph glyph-name="uogonek" unicode="&#x173;" 
d="M513 -165q-7 -5 -17 -9q-8 -4 -21 -6.5t-29 -2.5q-47 0 -74.5 24t-27.5 62q0 33 19.5 59t49.5 38h-38v51q-26 -28 -64 -44t-85 -16q-45 0 -81.5 15t-62.5 42t-40 65t-14 85v315h138v-291q0 -46 25 -74.5t70 -28.5q51 0 82 30t31 84v280h138v-513h-31q-28 -14 -41 -34.5
t-13 -41.5q0 -36 40 -36q11 0 19 1t14 3q7 2 13 5v-62v0z" />
    <glyph glyph-name="Wcircumflex" unicode="&#x174;" horiz-adv-x="959" 
d="M478 423l-118 -423h-184l-167 685h163l105 -492l137 492h137l136 -497l109 497h154l-167 -685h-185zM627 721l-147 38l-147 -38v102l147 54l147 -54v-102z" />
    <glyph glyph-name="wcircumflex" unicode="&#x175;" horiz-adv-x="777" 
d="M387 293l-70 -293h-176l-131 513h140l84 -353l87 353h140l86 -355l85 355h135l-132 -513h-178zM536 549l-147 38l-147 -38v102l147 54l147 -54v-102z" />
    <glyph glyph-name="Ycircumflex" unicode="&#x176;" horiz-adv-x="671" 
d="M258 0v256l-249 429h171l158 -288l159 288h166l-249 -430v-255h-156zM483 721l-147 38l-147 -38v102l147 54l147 -54v-102z" />
    <glyph glyph-name="ycircumflex" unicode="&#x177;" horiz-adv-x="530" 
d="M349 18q-18 -51 -39.5 -88t-49.5 -61t-64 -35t-83 -11h-50v125h42q35 0 58 18t37 48l-191 499h159l105 -316l104 316h144zM412 549l-147 38l-147 -38v102l147 54l147 -54v-102z" />
    <glyph glyph-name="Zacute" unicode="&#x179;" horiz-adv-x="588" 
d="M221 139h338v-139h-532v128l331 418h-330v139h525v-130zM181 719v123l234 57v-126z" />
    <glyph glyph-name="zacute" unicode="&#x17a;" horiz-adv-x="477" 
d="M214 121h239v-121h-429v108l238 282h-240v123h430v-110zM126 547v123l234 57v-126z" />
    <glyph glyph-name="Zdotaccent" unicode="&#x17b;" horiz-adv-x="588" 
d="M221 139h338v-139h-532v128l331 418h-330v139h525v-130zM224 729v128h140v-128h-140z" />
    <glyph glyph-name="zdotaccent" unicode="&#x17c;" horiz-adv-x="477" 
d="M214 121h239v-121h-429v108l238 282h-240v123h430v-110zM169 557v128h140v-128h-140z" />
    <glyph glyph-name="Zcaron" unicode="&#x17d;" horiz-adv-x="588" 
d="M221 139h338v-139h-532v128l331 418h-330v139h525v-130zM294 716l-147 54v103l147 -39l147 39v-103z" />
    <glyph glyph-name="zcaron" unicode="&#x17e;" horiz-adv-x="477" 
d="M214 121h239v-121h-429v108l238 282h-240v123h430v-110zM239 544l-147 54v103l147 -39l147 39v-103z" />
    <glyph glyph-name="uni0493" unicode="&#x192;" horiz-adv-x="403" 
d="M179 0h-139v192h-38v107h38v214h348v-123h-209v-91h143v-107h-143v-192z" />
    <glyph glyph-name="uni0493" unicode="&#x493;" horiz-adv-x="403" 
d="M179 0h-139v192h-38v107h38v214h348v-123h-209v-91h143v-107h-143v-192z" />
    <glyph glyph-name="Scommaaccent" unicode="&#x218;" horiz-adv-x="588" 
d="M291 -13q-131 0 -200.5 60.5t-76.5 166.5h155q1 -20 8 -38.5t21.5 -33t38 -23.5t58.5 -9q59 0 88.5 21t29.5 53q0 20 -11.5 33t-31.5 22.5t-46.5 16t-55.5 12.5q-41 10 -84 22.5t-78 36.5t-57.5 62.5t-22.5 99.5q0 45 17 83.5t50 66t80.5 43.5t109.5 16q63 0 111.5 -16.5
t82 -46t52.5 -71t23 -91.5h-156q-2 41 -28 70t-89 29q-47 0 -75 -18t-28 -52q0 -22 12 -36.5t32 -24.5t46.5 -17t55.5 -14q42 -9 85.5 -21t79.5 -34t58.5 -58t22.5 -94q0 -47 -18 -86.5t-53.5 -68.5t-87 -45t-118.5 -16zM321 -219h-89l31 70h-32v107h128v-83z" />
    <glyph glyph-name="scommaaccent" unicode="&#x219;" horiz-adv-x="497" 
d="M161 161q0 -12 4.5 -24t15.5 -22t29 -17t46 -7q39 0 57.5 15t18.5 33q0 12 -7 20.5t-19 13.5t-28.5 8.5t-35.5 6.5q-34 6 -71.5 13t-69 23.5t-52 46.5t-20.5 82q0 35 15 65t42.5 52.5t66.5 35.5t88 13q98 0 156 -46t64 -124h-139q-1 14 -4.5 26t-12.5 20.5t-24 13.5
t-38 5q-30 0 -51.5 -10.5t-21.5 -34.5q0 -14 9 -23.5t25 -15.5t37 -10t44 -8q33 -6 67.5 -13.5t63 -23.5t46.5 -42.5t18 -69.5q0 -46 -18 -78.5t-49 -53.5t-73.5 -31t-90.5 -10q-53 0 -94.5 13t-71 36t-46 54t-17.5 68h141zM288 -219h-89l31 70h-32v107h128v-83z" />
    <glyph glyph-name="uni021A" unicode="&#x21a;" horiz-adv-x="593" 
d="M219 0v543h-204v142h563v-142h-204v-543h-155zM323 -219h-89l31 70h-32v107h128v-83z" />
    <glyph glyph-name="uni021B" unicode="&#x21b;" horiz-adv-x="383" 
d="M359 513v-124h-126v-206q0 -35 16.5 -49.5t51.5 -14.5h58v-119h-68q-103 0 -150 44.5t-47 131.5v213h-74v124h74v132h139v-132h126zM265 -219h-89l31 70h-32v107h128v-83z" />
    <glyph glyph-name="dotlessj" unicode="&#x237;" horiz-adv-x="195" 
d="M167 37q0 -58 -12.5 -98.5t-39 -66.5t-68.5 -38t-101 -12v123q42 0 62 19.5t20 62.5v486h139v-476z" />
    <glyph glyph-name="schwa" unicode="&#x259;" horiz-adv-x="570" 
d="M38 401q38 57 97.5 89.5t145.5 32.5q61 0 111 -20.5t85.5 -56t54.5 -84.5t19 -106q0 -56 -19.5 -104.5t-55.5 -85t-86 -57.5t-110 -21q-61 0 -109 20t-81.5 55t-51.5 82.5t-18 103.5q0 15 1 31t1 18h392q-11 49 -46.5 78t-89.5 29q-47 0 -80.5 -18.5t-55.5 -49.5z
M281 102q49 0 81.5 24.5t46.5 68.5h-249q11 -47 45 -70t76 -23z" />
    <glyph glyph-name="caron" unicode="&#x2c7;" horiz-adv-x="400" 
d="M200 544l-147 54v103l147 -39l147 39v-103z" />
    <glyph glyph-name="breve" unicode="&#x2d8;" horiz-adv-x="400" 
d="M200 661q26 0 49.5 4.5t42.5 11.5t32.5 14t21.5 13v-99q-6 -8 -18.5 -18t-31 -19t-42.5 -15t-54 -6t-54 6t-42.5 15t-31 19t-18.5 18v99q7 -6 21 -13t33 -14t42.5 -11.5t49.5 -4.5z" />
    <glyph glyph-name="dotaccent" unicode="&#x2d9;" horiz-adv-x="400" 
d="M130 557v128h140v-128h-140z" />
    <glyph glyph-name="ring" unicode="&#x2da;" horiz-adv-x="400" 
d="M200 757q21 0 40.5 -8t33.5 -21.5t22.5 -32.5t8.5 -41q0 -23 -8.5 -42t-22.5 -32.5t-33 -21.5t-41 -8q-21 0 -40.5 8t-33.5 21.5t-22.5 32.5t-8.5 42q0 22 8.5 41t22.5 32.5t33.5 21.5t40.5 8zM200 693q-16 0 -26.5 -11t-10.5 -28t10.5 -28t26.5 -11t26.5 11t10.5 28
t-10.5 28t-26.5 11z" />
    <glyph glyph-name="ogonek" unicode="&#x2db;" horiz-adv-x="400" 
d="M257 0q-28 -14 -41 -34.5t-13 -41.5q0 -36 40 -36q11 0 19 1t14 3q7 2 13 5v-62q-7 -5 -17 -9q-8 -4 -21 -6.5t-29 -2.5q-47 0 -74.5 24t-27.5 62q0 36 23 63.5t57 37.5l45 13z" />
    <glyph glyph-name="hungarumlaut" unicode="&#x2dd;" horiz-adv-x="400" 
d="M39 558l49 147h136l-53 -147h-132zM208 558l53 147h136l-57 -147h-132z" />
    <glyph glyph-name="afii10051" unicode="&#x402;" horiz-adv-x="809" 
d="M538 -63q-38 0 -71 8.5t-62 29.5l70 108q17 -17 57 -17q16 0 32.5 6.5t29 20t20.5 34t8 47.5q0 43 -28.5 75t-83.5 32q-61 0 -98.5 -41t-37.5 -119v-121h-155v543h-204v142h563v-142h-204v-195q63 68 169 68q55 0 98 -18.5t72 -50.5t44.5 -75t15.5 -92q0 -51 -16.5 -95.5
t-47 -77.5t-74 -51.5t-97.5 -18.5z" />
    <glyph glyph-name="afii10052" unicode="&#x403;" horiz-adv-x="531" 
d="M197 543v-543h-155v685h474v-142h-319zM175 718v123l234 57v-126z" />
    <glyph glyph-name="afii10053" unicode="&#x404;" horiz-adv-x="719" 
d="M700 158q-110 -172 -316 -172q-77 0 -142.5 27.5t-113.5 75.5t-75 112.5t-27 139.5t27 140.5t75 114t113.5 76t142.5 27.5q108 0 186 -40.5t128 -130.5l-123 -85q-29 51 -76.5 81t-110.5 30q-37 0 -69.5 -11t-58 -30.5t-43.5 -46t-27 -56.5h289v-142h-285
q10 -30 29 -55.5t44 -43.5t56 -28.5t65 -10.5q68 0 115.5 31t77.5 80z" />
    <glyph glyph-name="afii10054" unicode="&#x405;" horiz-adv-x="588" 
d="M291 -13q-131 0 -200.5 60.5t-76.5 166.5h155q1 -20 8 -38.5t21.5 -33t38 -23.5t58.5 -9q59 0 88.5 21t29.5 53q0 20 -11.5 33t-31.5 22.5t-46.5 16t-55.5 12.5q-41 10 -84 22.5t-78 36.5t-57.5 62.5t-22.5 99.5q0 45 17 83.5t50 66t80.5 43.5t109.5 16q63 0 111.5 -16.5
t82 -46t52.5 -71t23 -91.5h-156q-2 41 -28 70t-89 29q-47 0 -75 -18t-28 -52q0 -22 12 -36.5t32 -24.5t46.5 -17t55.5 -14q42 -9 85.5 -21t79.5 -34t58.5 -58t22.5 -94q0 -47 -18 -86.5t-53.5 -68.5t-87 -45t-118.5 -16z" />
    <glyph glyph-name="afii10056" unicode="&#x407;" horiz-adv-x="238" 
d="M42 0v685h155v-685h-155zM-33 728v129h134v-129h-134zM139 728v129h134v-129h-134z" />
    <glyph glyph-name="afii10058" unicode="&#x409;" horiz-adv-x="961" 
d="M504 0l-169 518l-169 -518h-160l238 685h190l72 -208h178q60 0 106.5 -19t79 -51t49.5 -75.5t17 -92.5q0 -50 -17.5 -93.5t-50.5 -76t-79.5 -51t-104.5 -18.5h-180zM674 332h-118l66 -190h48q54 0 82 26t28 68t-28 69t-78 27z" />
    <glyph glyph-name="afii10059" unicode="&#x40a;" horiz-adv-x="1021" 
d="M477 410v275h155v-208h106q60 0 108 -19t81.5 -52.5t51 -78t17.5 -95.5q0 -48 -16 -90.5t-47.5 -74t-77 -49.5t-103.5 -18h-275v268h-280v-268h-155v685h155v-275h280zM730 142q54 0 82 26t28 68t-28 69t-78 27h-102v-190h98z" />
    <glyph glyph-name="afii10060" unicode="&#x40b;" horiz-adv-x="800" 
d="M772 169v-169h-155v151q0 57 -30 93t-84 36q-58 0 -93.5 -37t-35.5 -101v-142h-155v543h-204v142h563v-142h-204v-193q23 26 66 46t103 20q52 0 94 -18t72 -50t46.5 -78t16.5 -101z" />
    <glyph glyph-name="afii10061" unicode="&#x40c;" horiz-adv-x="627" 
d="M441 685h181l-272 -342l280 -343h-201l-232 292v-292h-155v685h155v-319zM215 718v123l234 57v-126z" />
    <glyph glyph-name="afii10145" unicode="&#x40f;" horiz-adv-x="674" 
d="M268 0h-226v685h155v-543h280v543h155v-685h-217v-131l-147 -10v141z" />
    <glyph glyph-name="afii10099" unicode="&#x452;" horiz-adv-x="560" 
d="M532 37q0 -58 -12.5 -98.5t-39 -66.5t-68.5 -38t-101 -12v123q42 0 62.5 19.5t20.5 62.5v264q0 46 -24.5 74.5t-69.5 28.5q-51 0 -82 -30t-31 -84v-280h-139v537h-38v107h38v41h139v-41h105v-107h-105v-76q7 10 21 20.5t33 19.5t42.5 15t50.5 6q45 0 81.5 -15t62.5 -42
t40 -65.5t14 -84.5v-278z" />
    <glyph glyph-name="afii10100" unicode="&#x453;" horiz-adv-x="391" 
d="M376 390h-209v-390h-139v513h348v-123zM102 544v123l234 57v-126z" />
    <glyph glyph-name="afii10101" unicode="&#x454;" horiz-adv-x="543" 
d="M529 119q-37 -60 -95.5 -95.5t-143.5 -35.5q-60 0 -109.5 21t-85.5 57t-56 84.5t-20 104.5t20 105t56 85t85.5 57t109.5 21q85 0 144.5 -37t95.5 -97l-109 -68q-20 32 -49 53.5t-77 21.5q-45 0 -78.5 -21.5t-48.5 -57.5h188v-123h-188q15 -37 48 -59t79 -22q48 0 77 21.5
t49 53.5z" />
    <glyph glyph-name="afii10102" unicode="&#x455;" horiz-adv-x="497" 
d="M161 161q0 -12 4.5 -24t15.5 -22t29 -17t46 -7q39 0 57.5 15t18.5 33q0 12 -7 20.5t-19 13.5t-28.5 8.5t-35.5 6.5q-34 6 -71.5 13t-69 23.5t-52 46.5t-20.5 82q0 35 15 65t42.5 52.5t66.5 35.5t88 13q98 0 156 -46t64 -124h-139q-1 14 -4.5 26t-12.5 20.5t-24 13.5
t-38 5q-30 0 -51.5 -10.5t-21.5 -34.5q0 -14 9 -23.5t25 -15.5t37 -10t44 -8q33 -6 67.5 -13.5t63 -23.5t46.5 -42.5t18 -69.5q0 -46 -18 -78.5t-49 -53.5t-73.5 -31t-90.5 -10q-53 0 -94.5 13t-71 36t-46 54t-17.5 68h141z" />
    <glyph glyph-name="afii10104" unicode="&#x457;" horiz-adv-x="195" 
d="M28 0v513h139v-513h-139zM-54 556v129h134v-129h-134zM118 556v129h134v-129h-134z" />
    <glyph glyph-name="afii10106" unicode="&#x459;" horiz-adv-x="764" 
d="M376 0l-111 372l-110 -372h-145l167 513h186l49 -151h146q39 0 73.5 -13t60.5 -37t41 -57.5t15 -73.5t-15.5 -73t-42 -57t-62 -37.5t-75.5 -13.5h-177zM549 237h-96l37 -114h59q26 0 43.5 17t17.5 42q0 23 -17.5 39t-43.5 16z" />
    <glyph glyph-name="afii10107" unicode="&#x45a;" horiz-adv-x="799" 
d="M584 237h-91v-114h91q26 0 43.5 17t17.5 41t-17.5 40t-43.5 16zM354 0v197h-187v-197h-139v513h139v-193h187v193h139v-151h100q39 0 73.5 -13t60.5 -37t41 -57.5t15 -73.5t-15 -73t-41.5 -57t-61.5 -37.5t-74 -13.5h-237z" />
    <glyph glyph-name="afii10108" unicode="&#x45b;" horiz-adv-x="550" 
d="M177 280v-280h-139v537h-38v107h38v41h139v-41h105v-107h-105v-76q7 10 21 20.5t33 19.5t42.5 15t50.5 6q45 0 81.5 -15t62.5 -42t40 -65.5t14 -84.5v-315h-138v291q0 46 -24.5 74.5t-69.5 28.5q-51 0 -82 -30t-31 -84z" />
    <glyph glyph-name="afii10109" unicode="&#x45c;" horiz-adv-x="503" 
d="M168 283l170 230h158l-197 -255l205 -258h-173l-163 211v-211h-140v513h140v-230zM147 544v123l234 57v-126z" />
    <glyph glyph-name="afii10193" unicode="&#x45f;" horiz-adv-x="531" 
d="M28 0v513h139v-390h197v390h139v-513h-475zM201 -141v141h129v-131z" />
    <glyph glyph-name="afii10050" unicode="&#x490;" horiz-adv-x="531" 
d="M372 685v131l144 10v-283h-319v-543h-155v685h330z" />
    <glyph glyph-name="afii10098" unicode="&#x491;" horiz-adv-x="391" 
d="M247 513v131l129 10v-264h-209v-390h-139v513h219z" />
    <glyph glyph-name="uni04AE" unicode="&#x4ae;" horiz-adv-x="671" 
d="M258 256l-249 429h171l158 -288l159 288h166l-249 -430v-255h-156v256z" />
    <glyph glyph-name="uni04AE" unicode="&#x2021;" horiz-adv-x="671" 
d="M258 256l-249 429h171l158 -288l159 288h166l-249 -430v-255h-156v256z" />
    <glyph glyph-name="uni04AF" unicode="&#x4af;" horiz-adv-x="542" 
d="M341 -176h-139v185l-193 504h156l107 -323l106 323h156l-193 -504v-185z" />
    <glyph glyph-name="uni04AF" unicode="&#x2030;" horiz-adv-x="542" 
d="M341 -176h-139v185l-193 504h156l107 -323l106 323h156l-193 -504v-185z" />
    <glyph glyph-name="uni04E8" unicode="&#x4e8;" horiz-adv-x="778" 
d="M389 -14q-75 0 -141 27t-115.5 75t-78 113t-28.5 141t28.5 141.5t78 113.5t115.5 75t141 27q77 0 143.5 -27t115 -75t76.5 -113t28 -141q0 -77 -28 -142t-76.5 -113t-115 -75t-143.5 -27zM389 555q-35 0 -66 -10.5t-56.5 -30t-44 -46t-28.5 -58.5h390q-10 32 -28.5 58.5
t-44 46t-56.5 30t-66 10.5zM389 130q68 0 119.5 38t72.5 100h-385q21 -62 72.5 -100t120.5 -38z" />
    <glyph glyph-name="uni04E9" unicode="&#x4e9;" horiz-adv-x="589" 
d="M294 523q59 0 109.5 -21t87.5 -57t58 -85t21 -105t-21 -104.5t-58 -84.5t-87.5 -57t-109.5 -21t-109.5 20.5t-87.5 56.5t-57.5 85t-20.5 105t21 105t57.5 85t87 57t109.5 21zM294 397q-43 0 -76.5 -22t-49.5 -59h252q-17 37 -50 59t-76 22zM291 112q42 0 76.5 22t51.5 59
h-251q16 -37 48 -59t75 -22z" />
    <glyph glyph-name="Wgrave" unicode="&#x1e80;" horiz-adv-x="959" 
d="M478 423l-118 -423h-184l-167 685h163l105 -492l137 492h137l136 -497l109 497h154l-167 -685h-185zM591 715l-234 55v125l234 -57v-123z" />
    <glyph glyph-name="wgrave" unicode="&#x1e81;" horiz-adv-x="777" 
d="M387 293l-70 -293h-176l-131 513h140l84 -353l87 353h140l86 -355l85 355h135l-132 -513h-178zM500 543l-234 55v125l234 -57v-123z" />
    <glyph glyph-name="Wacute" unicode="&#x1e82;" horiz-adv-x="959" 
d="M478 423l-118 -423h-184l-167 685h163l105 -492l137 492h137l136 -497l109 497h154l-167 -685h-185zM367 719v123l234 57v-126z" />
    <glyph glyph-name="wacute" unicode="&#x1e83;" horiz-adv-x="777" 
d="M387 293l-70 -293h-176l-131 513h140l84 -353l87 353h140l86 -355l85 355h135l-132 -513h-178zM276 547v123l234 57v-126z" />
    <glyph glyph-name="Wdieresis" unicode="&#x1e84;" horiz-adv-x="959" 
d="M478 423l-118 -423h-184l-167 685h163l105 -492l137 492h137l136 -497l109 497h154l-167 -685h-185zM327 728v129h134v-129h-134zM499 728v129h134v-129h-134z" />
    <glyph glyph-name="wdieresis" unicode="&#x1e85;" horiz-adv-x="777" 
d="M387 293l-70 -293h-176l-131 513h140l84 -353l87 353h140l86 -355l85 355h135l-132 -513h-178zM236 556v129h134v-129h-134zM408 556v129h134v-129h-134z" />
    <glyph glyph-name="Ygrave" unicode="&#x1ef2;" horiz-adv-x="671" 
d="M258 0v256l-249 429h171l158 -288l159 288h166l-249 -430v-255h-156zM447 715l-234 55v125l234 -57v-123z" />
    <glyph glyph-name="ygrave" unicode="&#x1ef3;" horiz-adv-x="530" 
d="M349 18q-18 -51 -39.5 -88t-49.5 -61t-64 -35t-83 -11h-50v125h42q35 0 58 18t37 48l-191 499h159l105 -316l104 316h144zM376 543l-234 55v125l234 -57v-123z" />
    <glyph glyph-name="figuredash" unicode="&#x2012;" horiz-adv-x="440" 
d="M18 221v130h404v-130h-404z" />
    <glyph glyph-name="endash" unicode="&#x2013;" horiz-adv-x="440" 
d="M18 219v132h404v-132h-404z" />
    <glyph glyph-name="emdash" unicode="&#x2014;" horiz-adv-x="833" 
d="M18 219v131h797v-131h-797z" />
    <glyph glyph-name="quoteleft" unicode="&#x2018;" horiz-adv-x="201" 
d="M75 685h96l-36 -96h38v-145h-143v117z" />
    <glyph glyph-name="quoteright" unicode="&#x2019;" horiz-adv-x="201" 
d="M128 444h-97l37 96h-38v145h143v-117z" />
    <glyph glyph-name="quotesinglbase" unicode="&#x201a;" horiz-adv-x="201" 
d="M128 -96h-97l37 96h-38v145h143v-117z" />
    <glyph glyph-name="quotedblleft" unicode="&#x201c;" horiz-adv-x="368" 
d="M244 685h92l-37 -96h38v-145h-138v117zM72 685h92l-36 -96h38v-145h-139v117z" />
    <glyph glyph-name="quotedblright" unicode="&#x201d;" horiz-adv-x="364" 
d="M121 444h-92l36 96h-38v145h139v-117zM292 444h-91l36 96h-38v145h138v-117z" />
    <glyph glyph-name="quotedblbase" unicode="&#x201e;" horiz-adv-x="366" 
d="M121 -96h-92l36 96h-38v145h139v-117zM292 -96h-91l36 96h-38v145h138v-117z" />
    <glyph glyph-name="dagger" unicode="&#x2020;" horiz-adv-x="387" 
d="M371 459v-128h-109v-474h-137v474h-109v128h109v171h137v-171h109z" />
    <glyph glyph-name="bullet" unicode="&#x2022;" horiz-adv-x="286" 
d="M143 398q24 0 44.5 -8.5t36 -23.5t24 -35.5t8.5 -44.5t-8.5 -44.5t-24 -35.5t-36 -23.5t-44.5 -8.5t-44.5 8.5t-36 23.5t-24 35.5t-8.5 44.5t8.5 44.5t24 35.5t36 23.5t44.5 8.5z" />
    <glyph glyph-name="ellipsis" unicode="&#x2026;" horiz-adv-x="603" 
d="M28 0v145h144v-145h-144zM229 0v145h144v-145h-144zM430 0v145h144v-145h-144z" />
    <glyph glyph-name="guilsinglleft" unicode="&#x2039;" horiz-adv-x="308" 
d="M292 62h-141l-134 224l134 228h141l-135 -228z" />
    <glyph glyph-name="guilsinglright" unicode="&#x203a;" horiz-adv-x="308" 
d="M17 514h140l135 -228l-135 -224h-140l134 224z" />
    <glyph glyph-name="fraction" unicode="&#x2044;" horiz-adv-x="20" 
d="M-196 0l306 685h132l-306 -685h-132z" />
    <glyph glyph-name="zero.sups" unicode="&#x2070;" horiz-adv-x="335" 
d="M17 548q0 63 41 102.5t109 39.5q69 0 109.5 -39.5t40.5 -102.5v-119q0 -63 -40.5 -102t-109.5 -39q-34 0 -61.5 10t-47 29t-30.5 44.5t-11 57.5v119zM219 544q0 26 -14 41t-38 15t-38 -15t-14 -41v-111q0 -25 14 -40.5t38 -15.5t38 15.5t14 40.5v111z" />
    <glyph glyph-name="four.sups" unicode="&#x2074;" horiz-adv-x="345" 
d="M329 450v-81h-38v-75h-93v75h-182v81l170 237h105v-237h38zM198 450v114l-82 -114h82z" />
    <glyph glyph-name="five.sups" unicode="&#x2075;" horiz-adv-x="331" 
d="M128 602l-10 -52q8 5 25.5 10t37.5 5q28 0 52.5 -9.5t43 -26.5t29 -41.5t10.5 -54.5q0 -31 -11 -58t-31 -46.5t-48 -30.5t-62 -11q-54 0 -90 23t-56 63l77 45q10 -19 25.5 -33.5t42.5 -14.5q26 0 43.5 16.5t17.5 44.5q0 26 -17 42t-44 16q-23 0 -38.5 -12t-23.5 -26
l-77 22l39 213h218v-84h-153z" />
    <glyph glyph-name="six.sups" unicode="&#x2076;" horiz-adv-x="322" 
d="M158 567q5 1 10 1.5t10 0.5q29 0 53.5 -10.5t42.5 -29t28 -43.5t10 -54t-10.5 -55t-30 -46t-47 -32t-61.5 -12t-61.5 11t-47 31t-30 46.5t-10.5 58.5q0 25 7 49t20 48l87 155h98zM163 492q-26 0 -44 -18t-18 -44t18 -44t44 -18t43.5 18t17.5 44t-17.5 44t-43.5 18z" />
    <glyph glyph-name="seven.sups" unicode="&#x2077;" horiz-adv-x="309" 
d="M149 294h-105l151 303h-179v88h276v-86z" />
    <glyph glyph-name="eight.sups" unicode="&#x2078;" horiz-adv-x="327" 
d="M163 691q56 0 88 -32t32 -77q0 -41 -32 -71q24 -14 39 -39t15 -55q0 -27 -10 -51t-29 -41t-45 -27t-58 -10q-65 0 -104 36t-39 93q0 30 15 54.5t38 38.5q-30 32 -30 72q0 46 31.5 77.5t88.5 31.5zM163 620q-18 0 -29 -11t-11 -29q0 -17 11 -27.5t29 -10.5q17 0 28 10.5
t11 27.5q0 18 -11 29t-28 11zM163 469q-24 0 -39.5 -15t-15.5 -38q0 -24 15.5 -39t39.5 -15q23 0 39 15t16 39q0 23 -16 38t-39 15z" />
    <glyph glyph-name="nine.sups" unicode="&#x2079;" horiz-adv-x="322" 
d="M167 411q-5 -1 -10 -1.5t-11 -0.5q-29 0 -53.5 10.5t-42 28.5t-27.5 43t-10 54q0 28 10.5 54.5t30 46.5t46.5 32t61 12t61.5 -11t47 -30.5t30 -46.5t10.5 -58q0 -26 -7 -49.5t-21 -48.5l-84 -152h-98zM161 609q-26 0 -43.5 -18t-17.5 -44t17.5 -44t43.5 -18q27 0 44.5 18
t17.5 44t-17.5 44t-44.5 18z" />
    <glyph glyph-name="uni20B4" unicode="&#x20b4;" horiz-adv-x="559" 
d="M539 354h-519v120h274q39 0 52 14.5t13 30.5q0 19 -15.5 34.5t-54.5 15.5q-45 0 -61 -16t-16 -44h-162q6 90 69 138t174 48q58 0 101 -11.5t71.5 -32t42.5 -48t14 -58.5q0 -20 -6 -38.5t-18 -32.5h41v-120zM521 169q-6 -90 -70.5 -138t-177.5 -48q-59 0 -103 12t-73 32
t-43.5 47.5t-14.5 58.5q0 42 24 71h-43v120h519v-120h-272q-39 0 -52 -14.5t-13 -30.5q0 -19 17 -34.5t61 -15.5q47 0 63 16t16 44h162z" />
    <glyph glyph-name="uni20B8" unicode="&#x20b8;" horiz-adv-x="573" 
d="M548 559h-523v126h523v-126zM364 0h-155v383h-184v142h523v-142h-184v-383z" />
    <glyph glyph-name="uni20BD" unicode="&#x20bd;" horiz-adv-x="659" 
d="M377 543h-97v-170h102q45 0 70.5 24t25.5 62t-25.5 61t-75.5 23zM496 79h-216v-79h-155v79h-100v116h100v36h-100v116h100v338h275q56 0 99.5 -17.5t73.5 -47.5t45.5 -70.5t15.5 -86.5q0 -48 -17 -90.5t-49 -74t-78 -49.5t-104 -18h-106v-36h216v-116z" />
    <glyph glyph-name="trademark" unicode="&#x2122;" horiz-adv-x="901" 
d="M272 597v-108h-85v-107q0 -29 13 -40.5t42 -11.5h30v-103h-40q-85 0 -123 36t-38 109v117h-51v108h51v89h116v-89h85zM436 568q20 17 40 26t45 9q31 0 56.5 -11t44.5 -31q15 15 42.5 28.5t69.5 13.5q69 0 108.5 -41.5t39.5 -108.5v-226h-117v210q0 25 -12 40.5t-35 15.5
q-26 0 -41.5 -16.5t-16.5 -45.5v-204h-116v210q0 25 -12 40.5t-35 15.5q-26 0 -42 -17t-16 -46v-203h-117v370h114v-29z" />
    <glyph glyph-name="uni2153" unicode="&#x2153;" horiz-adv-x="738" 
d="M60 294v303h-46v88h142v-391h-96zM632 256q43 -10 68 -41.5t25 -77.5q0 -30 -11 -56.5t-31 -46t-48 -30.5t-63 -11q-54 0 -90 23.5t-56 62.5l77 45q11 -22 27.5 -35t42.5 -13q28 0 44 16.5t16 42.5q0 25 -16.5 39.5t-43.5 14.5q-25 0 -44 -13l-41 63l100 70h-137v82h249
v-86zM104 0l306 685h132l-306 -685h-132z" />
    <glyph glyph-name="uni2154" unicode="&#x2154;" horiz-adv-x="858" 
d="M10 604q23 38 60 62.5t92 24.5q68 0 105.5 -35.5t37.5 -87.5q0 -22 -5 -40.5t-17 -36.5t-30.5 -37t-45.5 -42l-49 -38h148v-80h-280v77l132 111q26 22 40 39t14 40q0 21 -14 33.5t-38 12.5q-26 0 -43.5 -13.5t-31.5 -34.5zM752 256q43 -10 68 -41.5t25 -77.5
q0 -30 -11 -56.5t-31 -46t-48 -30.5t-63 -11q-54 0 -90 23.5t-56 62.5l77 45q11 -22 27.5 -35t42.5 -13q28 0 44 16.5t16 42.5q0 25 -16.5 39.5t-43.5 14.5q-25 0 -44 -13l-41 63l100 70h-137v82h249v-86zM224 0l306 685h132l-306 -685h-132z" />
    <glyph glyph-name="minus" unicode="&#x2212;" horiz-adv-x="440" 
d="M18 221v130h404v-130h-404z" />
    <glyph glyph-name="approxequal" unicode="&#x2248;" horiz-adv-x="440" 
d="M301 291q-29 0 -52.5 6.5t-45.5 14t-43.5 14t-45.5 6.5q-26 0 -52.5 -11.5t-43.5 -25.5v113q18 19 48 37t73 18q29 0 53 -6.5t46 -14.5t43 -14.5t45 -6.5q26 0 52.5 11t43.5 25v-110q-18 -19 -48 -37.5t-73 -18.5zM301 104q-29 0 -52.5 6.5t-45.5 14.5t-43.5 14.5
t-45.5 6.5q-26 0 -52.5 -12t-43.5 -26v113q18 19 48 36.5t73 17.5q29 0 53 -6.5t46 -14t43 -14t45 -6.5q26 0 52.5 11t43.5 25v-110q-18 -19 -48 -37.5t-73 -18.5z" />
    <glyph glyph-name="notequal" unicode="&#x2260;" horiz-adv-x="440" 
d="M422 447v-138h-132l-13 -50h145v-138h-181l-34 -129h-128l34 129h-95v138h131l13 50h-144v138h180l34 131h128l-34 -131h96z" />
    <glyph glyph-name="lessequal" unicode="&#x2264;" horiz-adv-x="440" 
d="M199 357l223 -68v-135l-404 148v111l404 146v-132zM18 0v126h404v-126h-404z" />
    <glyph glyph-name="greaterequal" unicode="&#x2265;" horiz-adv-x="440" 
d="M422 301l-404 -147v133l223 69l-223 69v134l404 -146v-112zM18 0v126h404v-126h-404z" />
    <glyph glyph-name="commaaccent" unicode="&#xf6c3;" horiz-adv-x="500" 
d="M276 -219h-89l31 70h-32v107h128v-83z" />
    <glyph glyph-name="uniF8FF" unicode="&#xf8ff;" horiz-adv-x="5000" 
d="M3288 559h-123v122h123v-122zM4915 624q21 0 36 -15t15 -37t-15 -37t-36 -15t-36 15t-15 37t15 37t36 15zM4915 617q-18 0 -30.5 -13t-12.5 -32t12.5 -32t30.5 -13t30.5 13t12.5 32t-12.5 32t-30.5 13zM4907 590v-15h10q11 0 11 8q0 7 -9 7h-12zM4920 597q16 0 16 -14
q0 -11 -13 -13l14 -25h-9l-14 24h-7v-24h-8v52h21zM1803 402h-1803v109h1803v-109zM3288 0h-123v511h123v-511zM2242 399q-28 0 -54 -12t-45.5 -32t-31.5 -46.5t-12 -56.5t12 -56.5t31.5 -47t45.5 -32t54 -11.5q31 0 58 11.5t47.5 32t32.5 47t12 56.5t-12 56.5t-32.5 46.5
t-47.5 32t-58 12zM2829 399q-31 0 -57.5 -12t-46 -32t-30.5 -46.5t-11 -56.5t11 -56.5t30.5 -47t46 -32t57.5 -11.5q30 0 56.5 11.5t46.5 32t32 47t12 56.5t-12 56.5t-32 46.5t-46.5 32t-56.5 12zM3609 399q-30 0 -56.5 -12t-46.5 -32t-31.5 -46.5t-11.5 -56.5t11.5 -56.5
t31.5 -47t46.5 -32t56.5 -11.5t56.5 11.5t46 32t30.5 47t11 56.5t-11 56.5t-30.5 46.5t-46 32t-56.5 12zM4193 399q-30 0 -57 -12t-47 -32t-32 -46.5t-12 -56.5t12 -56.5t32 -47t47 -32t57 -11.5q28 0 53.5 11.5t44.5 32t30.5 47t11.5 56.5t-11.5 56.5t-30.5 46.5t-44.5 32
t-53.5 12zM1803 198h-1803v109h1803v-109zM4643 162q0 -12 4.5 -25.5t16 -24.5t31.5 -19t51 -8q44 0 64 17t20 37q0 24 -23 34.5t-57 16.5t-74.5 12t-74.5 21.5t-57 45t-23 83.5q0 34 14.5 64t42 52t66 35t86.5 13q96 0 153.5 -46.5t63.5 -121.5h-128q-1 10 -3.5 22.5
t-10.5 23t-24.5 17.5t-44.5 7q-35 0 -58 -10t-26 -36q0 -22 23.5 -33t58.5 -18t76 -15t76 -23.5t58.5 -44t23.5 -76.5q0 -46 -18 -78.5t-49.5 -53t-73.5 -30t-89 -9.5q-51 0 -92.5 13t-71 35.5t-46 54t-17.5 68.5h132zM1803 0h-1803v104h1803v-104zM3103 0h-127v36
q-34 -22 -71.5 -33.5t-79.5 -11.5q-54 0 -102 20t-84 55.5t-57 83t-21 102.5t21 103t57 84t84 56.5t102 20.5q42 0 79.5 -11.5t71.5 -33.5v210h127v-681zM3879 0h-126v36q-28 -22 -66.5 -33.5t-81.5 -11.5q-54 0 -102.5 20t-85 55.5t-57.5 83t-21 102.5t21 103t57.5 84
t85 56.5t102.5 20.5q43 0 81 -11.5t67 -33.5v210h126v-681zM2392 36q-32 -22 -70.5 -33.5t-83.5 -11.5q-53 0 -100 20t-82.5 55.5t-56.5 83t-21 102.5t21 103t56.5 84t82.5 56.5t100 20.5q86 0 154 -45v40h126v-511h-126v36zM4333 36q-31 -22 -68.5 -33.5t-76.5 -11.5
q-55 0 -103.5 20t-85 55.5t-57.5 83t-21 102.5t21 103t57.5 84t85 56.5t103.5 20.5q38 0 76 -11.5t69 -33.5v40h127v-511h-127v36z" />
    <glyph glyph-name="f_i" unicode="&#xfb01;" horiz-adv-x="570" 
d="M307 578q-34 0 -51 -14t-17 -46v-5h116v-124h-116v-389h-139v389h-80v124h80v6q0 83 50.5 128t150.5 45h54v-114h-48zM403 557v128h139v-128h-139zM403 0v513h139v-513h-139z" />
    <glyph glyph-name="f_l" unicode="&#xfb02;" horiz-adv-x="571" 
d="M307 578q-34 0 -51 -14t-17 -46v-5h116v-124h-116v-389h-139v389h-80v124h80v6q0 83 50.5 128t150.5 45h54v-114h-48zM403 0v685h140v-685h-140z" />
    <glyph glyph-name="A.left" horiz-adv-x="669" 
d="M474 526l-156 -274h156v274zM474 122h-230l-69 -122h-175l412 685h215v-685h-153v122z" />
    <glyph glyph-name="A.right" horiz-adv-x="669" 
d="M189 527v-275h156zM419 122h-230v-122h-147v685h215l412 -685h-181z" />
    <glyph glyph-name="M.left" horiz-adv-x="1017" 
d="M414 458l-243 -458h-171l373 685h183v-405l233 405h186v-685h-157v460l-264 -460h-140v458z" />
    <glyph glyph-name="M.right" horiz-adv-x="1017" 
d="M194 460v-460h-152v685h186l233 -405v405h183l373 -685h-176l-243 458v-458h-140z" />
    <glyph glyph-name="V.left" horiz-adv-x="670" 
d="M0 685h180l301 -525v525h147v-685h-216z" />
    <glyph glyph-name="V.right" horiz-adv-x="670" 
d="M42 685h153v-525l301 525h174l-412 -685h-216v685z" />
    <glyph glyph-name="W.left" horiz-adv-x="1017" 
d="M556 405v-405h-183l-373 685h176l243 -458v458h140l264 -460v460h152v-685h-186z" />
    <glyph glyph-name="W.right" horiz-adv-x="1017" 
d="M461 405l-233 -405h-186v685h157v-460l264 460h140v-458l243 458h171l-373 -685h-183v405z" />
    <glyph glyph-name="Aacute" horiz-adv-x="685" 
d="M338 523l-89 -268h178zM473 118h-269l-39 -118h-159l242 685h190l241 -685h-167zM230 719v123l234 57v-126z" />
    <glyph glyph-name="acute" horiz-adv-x="400" 
d="M87 547v123l234 57v-126z" />
    <glyph glyph-name="Acircumflex" horiz-adv-x="685" 
d="M338 523l-89 -268h178zM473 118h-269l-39 -118h-159l242 685h190l241 -685h-167zM490 721l-147 38l-147 -38v102l147 54l147 -54v-102z" />
    <glyph glyph-name="circumflex" horiz-adv-x="400" 
d="M347 549l-147 38l-147 -38v102l147 54l147 -54v-102z" />
    <glyph glyph-name="Adieresis" horiz-adv-x="685" 
d="M338 523l-89 -268h178zM473 118h-269l-39 -118h-159l242 685h190l241 -685h-167zM190 728v129h134v-129h-134zM362 728v129h134v-129h-134z" />
    <glyph glyph-name="dieresis" horiz-adv-x="400" 
d="M47 556v129h134v-129h-134zM219 556v129h134v-129h-134z" />
    <glyph glyph-name="AE" horiz-adv-x="944" 
d="M348 533l-96 -280h186zM482 117h-277l-40 -117h-158l249 685h660v-140h-417l44 -129h347v-136h-301l48 -140h280v-140h-397z" />
    <glyph glyph-name="Agrave" horiz-adv-x="685" 
d="M338 523l-89 -268h178zM473 118h-269l-39 -118h-159l242 685h190l241 -685h-167zM454 715l-234 55v125l234 -57v-123z" />
    <glyph glyph-name="macron" horiz-adv-x="400" 
d="M62 571v123h276v-123h-276z" />
    <glyph glyph-name="Aring" horiz-adv-x="685" 
d="M338 523l-89 -268h178zM473 118h-269l-39 -118h-159l242 685h190l241 -685h-167zM343 929q21 0 40.5 -8t33.5 -21.5t22.5 -32.5t8.5 -41q0 -23 -8.5 -42t-22.5 -32.5t-33 -21.5t-41 -8q-21 0 -40.5 8t-33.5 21.5t-22.5 32.5t-8.5 42q0 22 8.5 41t22.5 32.5t33.5 21.5
t40.5 8zM343 865q-16 0 -26.5 -11t-10.5 -28t10.5 -28t26.5 -11t26.5 11t10.5 28t-10.5 28t-26.5 11z" />
    <glyph glyph-name="Atilde" horiz-adv-x="685" 
d="M338 523l-89 -268h178zM473 118h-269l-39 -118h-159l242 685h190l241 -685h-167zM423 828q22 0 42 9.5t30 17.5v-92q-11 -14 -36 -29t-55 -15q-22 0 -39.5 5t-34 11t-32.5 11t-34 5q-22 0 -42 -9.5t-30 -17.5v92q11 14 36 29t55 15q22 0 39.5 -5t34 -11t32.5 -11t34 -5z
" />
    <glyph glyph-name="tilde" horiz-adv-x="400" 
d="M280 656q22 0 42 9.5t30 17.5v-92q-11 -14 -36 -29t-55 -15q-22 0 -39.5 5t-34 11t-32.5 11t-34 5q-22 0 -42 -9.5t-30 -17.5v92q11 14 36 29t55 15q22 0 39.5 -5t34 -11t32.5 -11t34 -5z" />
    <glyph glyph-name="Ccedilla" horiz-adv-x="719" 
d="M389 -217q-43 0 -69.5 26t-28.5 64h71q2 -11 9.5 -18.5t18.5 -7.5t19 7.5t8 18.5q0 12 -7.5 19.5t-19.5 7.5h-76l40 88q-71 7 -131.5 37t-104 77.5t-68 109t-24.5 132.5q0 75 28 139.5t76.5 112.5t115.5 75.5t145 27.5q103 0 180.5 -41.5t126.5 -129.5l-123 -85
q-30 51 -75.5 81.5t-111.5 30.5q-44 0 -81 -16.5t-64.5 -45t-43 -67t-15.5 -82.5q0 -45 15.5 -84t43.5 -67.5t66.5 -45t83.5 -16.5q63 0 110.5 30t76.5 81l121 -84q-48 -78 -119 -123t-170 -49l-14 -28q40 0 64.5 -23.5t24.5 -61.5q0 -37 -26.5 -63.5t-71.5 -26.5z" />
    <glyph glyph-name="Eacute" horiz-adv-x="571" 
d="M42 685h501v-140h-346v-129h320v-136h-320v-140h347v-140h-502v685zM178 719v123l234 57v-126z" />
    <glyph glyph-name="Ecircumflex" horiz-adv-x="571" 
d="M42 685h501v-140h-346v-129h320v-136h-320v-140h347v-140h-502v685zM438 721l-147 38l-147 -38v102l147 54l147 -54v-102z" />
    <glyph glyph-name="Edieresis" horiz-adv-x="571" 
d="M42 685h501v-140h-346v-129h320v-136h-320v-140h347v-140h-502v685zM138 728v129h134v-129h-134zM310 728v129h134v-129h-134z" />
    <glyph glyph-name="Egrave" horiz-adv-x="571" 
d="M42 685h501v-140h-346v-129h320v-136h-320v-140h347v-140h-502v685zM402 715l-234 55v125l234 -57v-123z" />
    <glyph glyph-name="Eth" horiz-adv-x="707" 
d="M52 0v278h-50v131h50v276h280q79 0 143.5 -26.5t110 -72t70.5 -107.5t25 -133q0 -72 -26 -135.5t-73 -110t-112.5 -73.5t-145.5 -27h-272zM329 142q42 0 77.5 15t62 42t41.5 64t15 81q0 43 -15 79.5t-42 63t-64 41.5t-80 15h-117v-134h129v-131h-129v-136h122z" />
    <glyph glyph-name="Iacute" horiz-adv-x="238" 
d="M42 0v685h155v-685h-155zM7 719v123l234 57v-126z" />
    <glyph glyph-name="Icircumflex" horiz-adv-x="238" 
d="M42 0v685h155v-685h-155zM267 721l-147 38l-147 -38v102l147 54l147 -54v-102z" />
    <glyph glyph-name="Idieresis" horiz-adv-x="238" 
d="M42 0v685h155v-685h-155zM-33 728v129h134v-129h-134zM139 728v129h134v-129h-134z" />
    <glyph glyph-name="Igrave" horiz-adv-x="238" 
d="M42 0v685h155v-685h-155zM231 715l-234 55v125l234 -57v-123z" />
    <glyph glyph-name="Napostrophe" horiz-adv-x="678" 
d="M191 434v-434h-149v685h169l276 -435v435h149v-685h-169zM133 726h-89l31 70h-32v107h128v-83z" />
    <glyph glyph-name="Ntilde" horiz-adv-x="678" 
d="M191 434v-434h-149v685h169l276 -435v435h149v-685h-169zM419 828q22 0 42 9.5t30 17.5v-92q-11 -14 -36 -29t-55 -15q-22 0 -39.5 5t-34 11t-32.5 11t-34 5q-22 0 -42 -9.5t-30 -17.5v92q11 14 36 29t55 15q22 0 39.5 -5t34 -11t32.5 -11t34 -5z" />
    <glyph glyph-name="Oacute" horiz-adv-x="778" 
d="M389 -14q-75 0 -141 27t-115.5 75t-78 113t-28.5 141t28.5 141.5t78 113.5t115.5 75t141 27q77 0 143.5 -27t115 -75t76.5 -113t28 -141q0 -77 -28 -142t-76.5 -113t-115 -75t-143.5 -27zM389 130q43 0 80.5 16.5t65.5 45t43.5 67.5t15.5 84t-15.5 83.5t-43.5 67
t-65.5 45t-80.5 16.5q-44 0 -81 -16.5t-65 -45t-43.5 -67.5t-15.5 -84t15.5 -84t43.5 -67.5t65 -44.5t81 -16zM276 719v123l234 57v-126z" />
    <glyph glyph-name="Ocircumflex" horiz-adv-x="778" 
d="M389 -14q-75 0 -141 27t-115.5 75t-78 113t-28.5 141t28.5 141.5t78 113.5t115.5 75t141 27q77 0 143.5 -27t115 -75t76.5 -113t28 -141q0 -77 -28 -142t-76.5 -113t-115 -75t-143.5 -27zM389 130q43 0 80.5 16.5t65.5 45t43.5 67.5t15.5 84t-15.5 83.5t-43.5 67
t-65.5 45t-80.5 16.5q-44 0 -81 -16.5t-65 -45t-43.5 -67.5t-15.5 -84t15.5 -84t43.5 -67.5t65 -44.5t81 -16zM536 721l-147 38l-147 -38v102l147 54l147 -54v-102z" />
    <glyph glyph-name="Odieresis" horiz-adv-x="778" 
d="M389 -14q-75 0 -141 27t-115.5 75t-78 113t-28.5 141t28.5 141.5t78 113.5t115.5 75t141 27q77 0 143.5 -27t115 -75t76.5 -113t28 -141q0 -77 -28 -142t-76.5 -113t-115 -75t-143.5 -27zM389 130q43 0 80.5 16.5t65.5 45t43.5 67.5t15.5 84t-15.5 83.5t-43.5 67
t-65.5 45t-80.5 16.5q-44 0 -81 -16.5t-65 -45t-43.5 -67.5t-15.5 -84t15.5 -84t43.5 -67.5t65 -44.5t81 -16zM236 728v129h134v-129h-134zM408 728v129h134v-129h-134z" />
    <glyph glyph-name="OE" horiz-adv-x="1045" 
d="M391 0q-79 0 -143.5 26.5t-110 72t-70.5 107.5t-25 133q0 72 26 135.5t73 110t112.5 73.5t145.5 27h618v-140h-346v-129h320v-136h-320v-140h347v-140h-627zM516 142v401h-122q-42 0 -77.5 -15.5t-62 -42.5t-41.5 -64t-15 -80t15 -79.5t42 -63t63.5 -41.5t80.5 -15h117z
" />
    <glyph glyph-name="Ograve" horiz-adv-x="778" 
d="M389 -14q-75 0 -141 27t-115.5 75t-78 113t-28.5 141t28.5 141.5t78 113.5t115.5 75t141 27q77 0 143.5 -27t115 -75t76.5 -113t28 -141q0 -77 -28 -142t-76.5 -113t-115 -75t-143.5 -27zM389 130q43 0 80.5 16.5t65.5 45t43.5 67.5t15.5 84t-15.5 83.5t-43.5 67
t-65.5 45t-80.5 16.5q-44 0 -81 -16.5t-65 -45t-43.5 -67.5t-15.5 -84t15.5 -84t43.5 -67.5t65 -44.5t81 -16zM500 715l-234 55v125l234 -57v-123z" />
    <glyph glyph-name="Oslash" horiz-adv-x="778" 
d="M184 342q0 -42 13.5 -78.5t38.5 -64.5l229 342q-36 14 -76 14q-44 0 -81 -16.5t-65 -45t-43.5 -67.5t-15.5 -84zM389 130q43 0 80.5 16.5t65.5 45t43.5 67.5t15.5 84q0 42 -13.5 78.5t-38.5 64.5l-230 -341q36 -15 77 -15zM389 -14q-43 0 -83.5 9t-76.5 26l-41 -61h-112
l75 111q-58 49 -91.5 118t-33.5 153q0 76 28.5 141.5t78 113.5t115.5 75t141 27q86 0 160 -34l40 60h114l-75 -111q58 -48 91 -117.5t33 -153.5q0 -77 -28 -142t-76.5 -113t-115 -75t-143.5 -27z" />
    <glyph glyph-name="Otilde" horiz-adv-x="778" 
d="M389 -14q-75 0 -141 27t-115.5 75t-78 113t-28.5 141t28.5 141.5t78 113.5t115.5 75t141 27q77 0 143.5 -27t115 -75t76.5 -113t28 -141q0 -77 -28 -142t-76.5 -113t-115 -75t-143.5 -27zM389 130q43 0 80.5 16.5t65.5 45t43.5 67.5t15.5 84t-15.5 83.5t-43.5 67
t-65.5 45t-80.5 16.5q-44 0 -81 -16.5t-65 -45t-43.5 -67.5t-15.5 -84t15.5 -84t43.5 -67.5t65 -44.5t81 -16zM469 828q22 0 42 9.5t30 17.5v-92q-11 -14 -36 -29t-55 -15q-22 0 -39.5 5t-34 11t-32.5 11t-34 5q-22 0 -42 -9.5t-30 -17.5v92q11 14 36 29t55 15q22 0 39.5 -5
t34 -11t32.5 -11t34 -5z" />
    <glyph glyph-name="Scaron" horiz-adv-x="588" 
d="M291 -13q-131 0 -200.5 60.5t-76.5 166.5h155q1 -20 8 -38.5t21.5 -33t38 -23.5t58.5 -9q59 0 88.5 21t29.5 53q0 20 -11.5 33t-31.5 22.5t-46.5 16t-55.5 12.5q-41 10 -84 22.5t-78 36.5t-57.5 62.5t-22.5 99.5q0 45 17 83.5t50 66t80.5 43.5t109.5 16q63 0 111.5 -16.5
t82 -46t52.5 -71t23 -91.5h-156q-2 41 -28 70t-89 29q-47 0 -75 -18t-28 -52q0 -22 12 -36.5t32 -24.5t46.5 -17t55.5 -14q42 -9 85.5 -21t79.5 -34t58.5 -58t22.5 -94q0 -47 -18 -86.5t-53.5 -68.5t-87 -45t-118.5 -16zM289 713l-147 54v103l147 -39l147 39v-103z" />
    <glyph glyph-name="Thorn" horiz-adv-x="606" 
d="M197 96v-96h-155v685h155v-95h140q58 0 103.5 -19t77 -52t47.5 -77t16 -94q0 -53 -17.5 -98.5t-51 -80t-81.5 -54t-108 -19.5h-126zM197 448v-210h122q50 0 78 29.5t28 76.5t-28.5 75.5t-82.5 28.5h-117z" />
    <glyph glyph-name="Uacute" horiz-adv-x="666" 
d="M335 -12q-72 0 -127.5 20.5t-93 58t-57 89.5t-19.5 116v413h155v-392q0 -78 36.5 -119.5t104.5 -41.5q67 0 103 41.5t36 119.5v392h155v-413q0 -64 -19 -116t-56.5 -89.5t-92 -58t-125.5 -20.5zM221 719v123l234 57v-126z" />
    <glyph glyph-name="Ucircumflex" horiz-adv-x="666" 
d="M335 -12q-72 0 -127.5 20.5t-93 58t-57 89.5t-19.5 116v413h155v-392q0 -78 36.5 -119.5t104.5 -41.5q67 0 103 41.5t36 119.5v392h155v-413q0 -64 -19 -116t-56.5 -89.5t-92 -58t-125.5 -20.5zM481 721l-147 38l-147 -38v102l147 54l147 -54v-102z" />
    <glyph glyph-name="Udieresis" horiz-adv-x="666" 
d="M335 -12q-72 0 -127.5 20.5t-93 58t-57 89.5t-19.5 116v413h155v-392q0 -78 36.5 -119.5t104.5 -41.5q67 0 103 41.5t36 119.5v392h155v-413q0 -64 -19 -116t-56.5 -89.5t-92 -58t-125.5 -20.5zM181 728v129h134v-129h-134zM353 728v129h134v-129h-134z" />
    <glyph glyph-name="Ugrave" horiz-adv-x="666" 
d="M335 -12q-72 0 -127.5 20.5t-93 58t-57 89.5t-19.5 116v413h155v-392q0 -78 36.5 -119.5t104.5 -41.5q67 0 103 41.5t36 119.5v392h155v-413q0 -64 -19 -116t-56.5 -89.5t-92 -58t-125.5 -20.5zM445 715l-234 55v125l234 -57v-123z" />
    <glyph glyph-name="Yacute" horiz-adv-x="671" 
d="M258 0v256l-249 429h171l158 -288l159 288h166l-249 -430v-255h-156zM223 719v123l234 57v-126z" />
    <glyph glyph-name="Ydieresis" horiz-adv-x="671" 
d="M258 0v256l-249 429h171l158 -288l159 288h166l-249 -430v-255h-156zM183 728v129h134v-129h-134zM355 728v129h134v-129h-134z" />
    <glyph glyph-name="k.alt" horiz-adv-x="510" 
d="M28 685h140v-374l158 202h173l-164 -196l164 -317h-164l-104 207l-63 -71v-136h-140v685z" />
    <glyph glyph-name="aacute" horiz-adv-x="595" 
d="M290 392q-29 0 -53.5 -11t-42.5 -29.5t-28.5 -44t-10.5 -53.5q0 -29 10.5 -54t28.5 -44t42.5 -29.5t53.5 -10.5q30 0 55.5 10.5t44.5 29.5t29.5 44t10.5 54q0 28 -11 53.5t-30 44t-44.5 29.5t-54.5 11zM428 38q-27 -21 -66.5 -33t-83.5 -12q-53 0 -100 20t-82 55
t-56 82.5t-21 103.5q0 55 21 103.5t56 84t82 56t100 20.5q44 0 83.5 -12.5t66.5 -33.5v41h139v-513h-139v38zM176 547v123l234 57v-126z" />
    <glyph glyph-name="acircumflex" horiz-adv-x="595" 
d="M290 392q-29 0 -53.5 -11t-42.5 -29.5t-28.5 -44t-10.5 -53.5q0 -29 10.5 -54t28.5 -44t42.5 -29.5t53.5 -10.5q30 0 55.5 10.5t44.5 29.5t29.5 44t10.5 54q0 28 -11 53.5t-30 44t-44.5 29.5t-54.5 11zM428 38q-27 -21 -66.5 -33t-83.5 -12q-53 0 -100 20t-82 55
t-56 82.5t-21 103.5q0 55 21 103.5t56 84t82 56t100 20.5q44 0 83.5 -12.5t66.5 -33.5v41h139v-513h-139v38zM436 549l-147 38l-147 -38v102l147 54l147 -54v-102z" />
    <glyph glyph-name="adieresis" horiz-adv-x="595" 
d="M290 392q-29 0 -53.5 -11t-42.5 -29.5t-28.5 -44t-10.5 -53.5q0 -29 10.5 -54t28.5 -44t42.5 -29.5t53.5 -10.5q30 0 55.5 10.5t44.5 29.5t29.5 44t10.5 54q0 28 -11 53.5t-30 44t-44.5 29.5t-54.5 11zM428 38q-27 -21 -66.5 -33t-83.5 -12q-53 0 -100 20t-82 55
t-56 82.5t-21 103.5q0 55 21 103.5t56 84t82 56t100 20.5q44 0 83.5 -12.5t66.5 -33.5v41h139v-513h-139v38zM136 556v129h134v-129h-134zM308 556v129h134v-129h-134z" />
    <glyph glyph-name="ae" horiz-adv-x="989" 
d="M568 469q3 3 13.5 11.5t28.5 17.5t44 16t60 7q60 0 107.5 -19.5t80.5 -54t50.5 -82t17.5 -103.5q0 -8 -0.5 -16.5t-1.5 -15.5q-1 -9 -1 -16h-391q11 -49 47 -78.5t90 -29.5q47 0 80 18.5t55 49.5l105 -63q-38 -57 -96 -89.5t-144 -32.5q-33 0 -59 7.5t-44 17t-28.5 18
t-13.5 10.5v-42h-139v45q-3 -3 -14 -11.5t-30 -18t-45.5 -16.5t-60.5 -7q-56 0 -103.5 19.5t-82.5 54.5t-54.5 83t-19.5 105t19.5 105.5t54.5 84.5t82.5 56.5t103.5 20.5q34 0 60.5 -7.5t45.5 -16.5t30 -18t14 -12v46h139v-44zM828 316q-8 39 -39.5 65.5t-79.5 26.5
t-82 -23.5t-48 -68.5h249zM291 113q30 0 56 10.5t45 29t29.5 44.5t10.5 57t-10 56.5t-28.5 44.5t-44 29.5t-55.5 10.5t-55.5 -10.5t-44 -29.5t-28.5 -44.5t-10 -56.5q0 -62 37 -101.5t98 -39.5z" />
    <glyph glyph-name="agrave" horiz-adv-x="595" 
d="M290 392q-29 0 -53.5 -11t-42.5 -29.5t-28.5 -44t-10.5 -53.5q0 -29 10.5 -54t28.5 -44t42.5 -29.5t53.5 -10.5q30 0 55.5 10.5t44.5 29.5t29.5 44t10.5 54q0 28 -11 53.5t-30 44t-44.5 29.5t-54.5 11zM428 38q-27 -21 -66.5 -33t-83.5 -12q-53 0 -100 20t-82 55
t-56 82.5t-21 103.5q0 55 21 103.5t56 84t82 56t100 20.5q44 0 83.5 -12.5t66.5 -33.5v41h139v-513h-139v38zM400 543l-234 55v125l234 -57v-123z" />
    <glyph glyph-name="aring" horiz-adv-x="595" 
d="M290 392q-29 0 -53.5 -11t-42.5 -29.5t-28.5 -44t-10.5 -53.5q0 -29 10.5 -54t28.5 -44t42.5 -29.5t53.5 -10.5q30 0 55.5 10.5t44.5 29.5t29.5 44t10.5 54q0 28 -11 53.5t-30 44t-44.5 29.5t-54.5 11zM428 38q-27 -21 -66.5 -33t-83.5 -12q-53 0 -100 20t-82 55
t-56 82.5t-21 103.5q0 55 21 103.5t56 84t82 56t100 20.5q44 0 83.5 -12.5t66.5 -33.5v41h139v-513h-139v38zM289 757q21 0 40.5 -8t33.5 -21.5t22.5 -32.5t8.5 -41q0 -23 -8.5 -42t-22.5 -32.5t-33 -21.5t-41 -8q-21 0 -40.5 8t-33.5 21.5t-22.5 32.5t-8.5 42q0 22 8.5 41
t22.5 32.5t33.5 21.5t40.5 8zM289 693q-16 0 -26.5 -11t-10.5 -28t10.5 -28t26.5 -11t26.5 11t10.5 28t-10.5 28t-26.5 11z" />
    <glyph glyph-name="atilde" horiz-adv-x="595" 
d="M290 392q-29 0 -53.5 -11t-42.5 -29.5t-28.5 -44t-10.5 -53.5q0 -29 10.5 -54t28.5 -44t42.5 -29.5t53.5 -10.5q30 0 55.5 10.5t44.5 29.5t29.5 44t10.5 54q0 28 -11 53.5t-30 44t-44.5 29.5t-54.5 11zM428 38q-27 -21 -66.5 -33t-83.5 -12q-53 0 -100 20t-82 55
t-56 82.5t-21 103.5q0 55 21 103.5t56 84t82 56t100 20.5q44 0 83.5 -12.5t66.5 -33.5v41h139v-513h-139v38zM369 656q22 0 42 9.5t30 17.5v-92q-11 -14 -36 -29t-55 -15q-22 0 -39.5 5t-34 11t-32.5 11t-34 5q-22 0 -42 -9.5t-30 -17.5v92q11 14 36 29t55 15q22 0 39.5 -5
t34 -11t32.5 -11t34 -5z" />
    <glyph glyph-name="ccedilla" horiz-adv-x="543" 
d="M290 -217q-43 0 -69.5 26t-28.5 64h71q2 -11 9.5 -18.5t18.5 -7.5t19 7.5t8 18.5q0 12 -7.5 19.5t-19.5 7.5h-76l40 90q-53 6 -96 28.5t-74.5 58t-48.5 81t-17 97.5q0 56 20 105t56 85t85.5 57t109.5 21q85 0 144.5 -37t95.5 -97l-109 -68q-20 32 -49 53.5t-77 21.5
q-61 0 -98.5 -39t-37.5 -102t37.5 -102.5t98.5 -39.5q48 0 77 21.5t49 53.5l108 -69q-34 -55 -87 -90t-128 -40l-15 -31q40 0 64.5 -23.5t24.5 -61.5q0 -37 -26.5 -63.5t-71.5 -26.5z" />
    <glyph glyph-name="eacute" horiz-adv-x="570" 
d="M532 110q-38 -57 -97.5 -89.5t-145.5 -32.5q-62 0 -111.5 20.5t-85 56t-54.5 84.5t-19 106q0 55 19.5 104t55.5 85.5t86 57.5t110 21q61 0 109 -20t81.5 -55t51.5 -82.5t18 -103.5q0 -15 -1 -31t-1 -18h-392q11 -49 46.5 -78t89.5 -29q47 0 80.5 18.5t55.5 49.5zM289 409
q-49 0 -81.5 -24.5t-46.5 -68.5h249q-11 47 -45 70t-76 23zM176 547v123l234 57v-126z" />
    <glyph glyph-name="ecircumflex" horiz-adv-x="570" 
d="M532 110q-38 -57 -97.5 -89.5t-145.5 -32.5q-62 0 -111.5 20.5t-85 56t-54.5 84.5t-19 106q0 55 19.5 104t55.5 85.5t86 57.5t110 21q61 0 109 -20t81.5 -55t51.5 -82.5t18 -103.5q0 -15 -1 -31t-1 -18h-392q11 -49 46.5 -78t89.5 -29q47 0 80.5 18.5t55.5 49.5zM289 409
q-49 0 -81.5 -24.5t-46.5 -68.5h249q-11 47 -45 70t-76 23zM436 549l-147 38l-147 -38v102l147 54l147 -54v-102z" />
    <glyph glyph-name="edieresis" horiz-adv-x="570" 
d="M532 110q-38 -57 -97.5 -89.5t-145.5 -32.5q-62 0 -111.5 20.5t-85 56t-54.5 84.5t-19 106q0 55 19.5 104t55.5 85.5t86 57.5t110 21q61 0 109 -20t81.5 -55t51.5 -82.5t18 -103.5q0 -15 -1 -31t-1 -18h-392q11 -49 46.5 -78t89.5 -29q47 0 80.5 18.5t55.5 49.5zM289 409
q-49 0 -81.5 -24.5t-46.5 -68.5h249q-11 47 -45 70t-76 23zM136 556v129h134v-129h-134zM308 556v129h134v-129h-134z" />
    <glyph glyph-name="egrave" horiz-adv-x="570" 
d="M532 110q-38 -57 -97.5 -89.5t-145.5 -32.5q-62 0 -111.5 20.5t-85 56t-54.5 84.5t-19 106q0 55 19.5 104t55.5 85.5t86 57.5t110 21q61 0 109 -20t81.5 -55t51.5 -82.5t18 -103.5q0 -15 -1 -31t-1 -18h-392q11 -49 46.5 -78t89.5 -29q47 0 80.5 18.5t55.5 49.5zM289 409
q-49 0 -81.5 -24.5t-46.5 -68.5h249q-11 47 -45 70t-76 23zM400 543l-234 55v125l234 -57v-123z" />
    <glyph glyph-name="eth" horiz-adv-x="580" 
d="M526 387q18 -35 25.5 -67.5t7.5 -66.5q0 -55 -21.5 -103t-58.5 -84t-86.5 -56.5t-105.5 -20.5q-59 0 -108 19.5t-84.5 55t-55.5 83.5t-20 105t19.5 104.5t55 82.5t84 54.5t105.5 19.5q12 0 23 -2t12 -2l-17 34l-77 -11v89l35 5l-29 59h144l21 -40l86 12v-89l-44 -6z
M288 112q61 0 98 38.5t37 100.5t-36.5 100t-97.5 38t-98 -38t-37 -100t36.5 -100.5t97.5 -38.5z" />
    <glyph glyph-name="germandbls" horiz-adv-x="496" 
d="M28 489q0 43 16.5 79t45.5 62t68.5 41t85.5 15q45 0 83.5 -13.5t67 -38t45 -59t16.5 -77.5q0 -47 -20.5 -81.5t-47.5 -52.5q15 -10 30.5 -24.5t27.5 -33.5t19.5 -43t7.5 -54q0 -47 -16.5 -85t-46.5 -66t-71 -43t-89 -15h-43v124h41q39 0 62.5 26t23.5 62t-21.5 60.5
t-60.5 24.5h-45v124h45q34 0 52 21t18 50q0 30 -20.5 50.5t-55.5 20.5q-38 0 -59 -21.5t-21 -56.5v-485h-138v489z" />
    <glyph glyph-name="iacute" horiz-adv-x="195" 
d="M28 0v513h139v-513h-139zM-14 547v123l234 57v-126z" />
    <glyph glyph-name="icircumflex" horiz-adv-x="195" 
d="M28 0v513h139v-513h-139zM246 549l-147 38l-147 -38v102l147 54l147 -54v-102z" />
    <glyph glyph-name="idieresis" horiz-adv-x="195" 
d="M28 0v513h139v-513h-139zM-54 556v129h134v-129h-134zM118 556v129h134v-129h-134z" />
    <glyph glyph-name="igrave" horiz-adv-x="195" 
d="M28 0v513h139v-513h-139zM210 543l-234 55v125l234 -57v-123z" />
    <glyph glyph-name="ntilde" 
d="M165 461q19 22 57 41.5t92 19.5q45 0 81.5 -15t62.5 -42t40 -65.5t14 -84.5v-315h-138v291q0 46 -24.5 74.5t-69.5 28.5q-51 0 -82 -30t-31 -84v-280h-139v513h137v-52zM350 656q22 0 42 9.5t30 17.5v-92q-11 -14 -36 -29t-55 -15q-22 0 -39.5 5t-34 11t-32.5 11t-34 5
q-22 0 -42 -9.5t-30 -17.5v92q11 14 36 29t55 15q22 0 39.5 -5t34 -11t32.5 -11t34 -5z" />
    <glyph glyph-name="oacute" horiz-adv-x="587" 
d="M294 523q59 0 109.5 -21t87.5 -57t58 -85t21 -105t-21 -104.5t-58 -84.5t-87.5 -57t-109.5 -21t-109.5 20.5t-87.5 56.5t-57.5 85t-20.5 105t21 105t57.5 85t87 57t109.5 21zM294 397q-29 0 -54.5 -10.5t-44 -29.5t-29 -45t-10.5 -57t10 -57t28 -45t43 -30t54 -11t55 11
t45 30t30 45t11 57t-10.5 57t-29 45t-44 29.5t-54.5 10.5zM181 547v123l234 57v-126z" />
    <glyph glyph-name="ocircumflex" horiz-adv-x="587" 
d="M294 523q59 0 109.5 -21t87.5 -57t58 -85t21 -105t-21 -104.5t-58 -84.5t-87.5 -57t-109.5 -21t-109.5 20.5t-87.5 56.5t-57.5 85t-20.5 105t21 105t57.5 85t87 57t109.5 21zM294 397q-29 0 -54.5 -10.5t-44 -29.5t-29 -45t-10.5 -57t10 -57t28 -45t43 -30t54 -11t55 11
t45 30t30 45t11 57t-10.5 57t-29 45t-44 29.5t-54.5 10.5zM441 549l-147 38l-147 -38v102l147 54l147 -54v-102z" />
    <glyph glyph-name="odieresis" horiz-adv-x="587" 
d="M294 523q59 0 109.5 -21t87.5 -57t58 -85t21 -105t-21 -104.5t-58 -84.5t-87.5 -57t-109.5 -21t-109.5 20.5t-87.5 56.5t-57.5 85t-20.5 105t21 105t57.5 85t87 57t109.5 21zM294 397q-29 0 -54.5 -10.5t-44 -29.5t-29 -45t-10.5 -57t10 -57t28 -45t43 -30t54 -11t55 11
t45 30t30 45t11 57t-10.5 57t-29 45t-44 29.5t-54.5 10.5zM141 556v129h134v-129h-134zM313 556v129h134v-129h-134z" />
    <glyph glyph-name="oe" horiz-adv-x="982" 
d="M946 110q-38 -57 -98 -89.5t-146 -32.5q-66 0 -117.5 23.5t-86.5 65.5q-35 -42 -87 -65.5t-118 -23.5q-60 0 -110.5 21t-87 57t-56.5 84.5t-20 104.5t20 105t56.5 85t87 57t110.5 21q66 0 119 -25t88 -67q35 42 86.5 67t117.5 25q60 0 108.5 -20t82 -55t51.5 -82.5
t18 -103.5q0 -8 -0.5 -16t-1.5 -16q-1 -9 -1 -17h-391q11 -49 46 -78t89 -29q48 0 81.5 18.5t55.5 49.5zM822 316q-8 39 -40 66t-80 27q-47 0 -80.5 -24t-47.5 -69h248zM290 111q30 0 56 10.5t45 30t29.5 45.5t10.5 58q0 31 -10 57t-28.5 45t-44 29.5t-55.5 10.5
t-55.5 -10.5t-43.5 -29.5t-28 -45t-10 -57q0 -63 36.5 -103.5t97.5 -40.5z" />
    <glyph glyph-name="ograve" horiz-adv-x="587" 
d="M294 523q59 0 109.5 -21t87.5 -57t58 -85t21 -105t-21 -104.5t-58 -84.5t-87.5 -57t-109.5 -21t-109.5 20.5t-87.5 56.5t-57.5 85t-20.5 105t21 105t57.5 85t87 57t109.5 21zM294 397q-29 0 -54.5 -10.5t-44 -29.5t-29 -45t-10.5 -57t10 -57t28 -45t43 -30t54 -11t55 11
t45 30t30 45t11 57t-10.5 57t-29 45t-44 29.5t-54.5 10.5zM405 543l-234 55v125l234 -57v-123z" />
    <glyph glyph-name="oslash" horiz-adv-x="587" 
d="M333 389q-17 7 -40 7q-29 0 -54 -10.5t-43.5 -29.5t-29 -44.5t-10.5 -56.5q0 -29 8.5 -52.5t23.5 -40.5zM266 115q12 -3 24 -3q29 0 55 11t45 30t30 45t11 57q0 23 -6 43t-17 37zM482 452q41 -36 63.5 -86.5t22.5 -110.5q0 -56 -21 -104.5t-57.5 -84.5t-87 -57
t-109.5 -21q-26 0 -50 4t-47 12l-28 -44h-109l57 88q-46 37 -71.5 90.5t-25.5 116.5q0 56 21 105t57.5 85t86.5 57t109 21t112 -22l33 52h108z" />
    <glyph glyph-name="otilde" horiz-adv-x="587" 
d="M294 523q59 0 109.5 -21t87.5 -57t58 -85t21 -105t-21 -104.5t-58 -84.5t-87.5 -57t-109.5 -21t-109.5 20.5t-87.5 56.5t-57.5 85t-20.5 105t21 105t57.5 85t87 57t109.5 21zM294 397q-29 0 -54.5 -10.5t-44 -29.5t-29 -45t-10.5 -57t10 -57t28 -45t43 -30t54 -11t55 11
t45 30t30 45t11 57t-10.5 57t-29 45t-44 29.5t-54.5 10.5zM374 656q22 0 42 9.5t30 17.5v-92q-11 -14 -36 -29t-55 -15q-22 0 -39.5 5t-34 11t-32.5 11t-34 5q-22 0 -42 -9.5t-30 -17.5v92q11 14 36 29t55 15q22 0 39.5 -5t34 -11t32.5 -11t34 -5z" />
    <glyph glyph-name="scaron" horiz-adv-x="497" 
d="M161 161q0 -12 4.5 -24t15.5 -22t29 -17t46 -7q39 0 57.5 15t18.5 33q0 12 -7 20.5t-19 13.5t-28.5 8.5t-35.5 6.5q-34 6 -71.5 13t-69 23.5t-52 46.5t-20.5 82q0 35 15 65t42.5 52.5t66.5 35.5t88 13q98 0 156 -46t64 -124h-139q-1 14 -4.5 26t-12.5 20.5t-24 13.5
t-38 5q-30 0 -51.5 -10.5t-21.5 -34.5q0 -14 9 -23.5t25 -15.5t37 -10t44 -8q33 -6 67.5 -13.5t63 -23.5t46.5 -42.5t18 -69.5q0 -46 -18 -78.5t-49 -53.5t-73.5 -31t-90.5 -10q-53 0 -94.5 13t-71 36t-46 54t-17.5 68h141zM240 544l-147 54v103l147 -39l147 39v-103z" />
    <glyph glyph-name="thorn" horiz-adv-x="595" 
d="M305 392q-30 0 -55.5 -10.5t-44.5 -29.5t-29.5 -44t-10.5 -54t11 -54t30 -43.5t44.5 -29.5t54.5 -11q28 0 53 11t43 29.5t28.5 43.5t10.5 54t-10.5 54t-28.5 44t-43 29.5t-53 10.5zM317 -7q-44 0 -83.5 12.5t-66.5 33.5v-215h-139v861h139v-212q27 21 66.5 33t83.5 12
q52 0 99.5 -20t82.5 -55t56 -83t21 -103q0 -56 -21 -104t-56 -83.5t-82.5 -56t-99.5 -20.5z" />
    <glyph glyph-name="uacute" 
d="M375 0v51q-26 -28 -64 -44t-85 -16q-45 0 -81.5 15t-62.5 42t-40 65t-14 85v315h138v-291q0 -46 25 -74.5t70 -28.5q51 0 82 30t31 84v280h138v-513h-137zM157 547v123l234 57v-126z" />
    <glyph glyph-name="ucircumflex" 
d="M375 0v51q-26 -28 -64 -44t-85 -16q-45 0 -81.5 15t-62.5 42t-40 65t-14 85v315h138v-291q0 -46 25 -74.5t70 -28.5q51 0 82 30t31 84v280h138v-513h-137zM417 549l-147 38l-147 -38v102l147 54l147 -54v-102z" />
    <glyph glyph-name="udieresis" 
d="M375 0v51q-26 -28 -64 -44t-85 -16q-45 0 -81.5 15t-62.5 42t-40 65t-14 85v315h138v-291q0 -46 25 -74.5t70 -28.5q51 0 82 30t31 84v280h138v-513h-137zM117 556v129h134v-129h-134zM289 556v129h134v-129h-134z" />
    <glyph glyph-name="ugrave" 
d="M375 0v51q-26 -28 -64 -44t-85 -16q-45 0 -81.5 15t-62.5 42t-40 65t-14 85v315h138v-291q0 -46 25 -74.5t70 -28.5q51 0 82 30t31 84v280h138v-513h-137zM381 543l-234 55v125l234 -57v-123z" />
    <glyph glyph-name="yacute" horiz-adv-x="530" 
d="M349 18q-18 -51 -39.5 -88t-49.5 -61t-64 -35t-83 -11h-50v125h42q35 0 58 18t37 48l-191 499h159l105 -316l104 316h144zM152 547v123l234 57v-126z" />
    <glyph glyph-name="ydieresis" horiz-adv-x="530" 
d="M349 18q-18 -51 -39.5 -88t-49.5 -61t-64 -35t-83 -11h-50v125h42q35 0 58 18t37 48l-191 499h159l105 -316l104 316h144zM112 556v129h134v-129h-134zM284 556v129h134v-129h-134z" />
    <glyph glyph-name="ordfeminine" horiz-adv-x="386" 
d="M193 604q-33 0 -56 -22.5t-23 -57.5t22.5 -58t56.5 -23t56.5 23t22.5 58t-22.5 57.5t-56.5 22.5zM270 389q-14 -11 -37.5 -20t-49.5 -9q-35 0 -64.5 12.5t-51.5 34.5t-34.5 52t-12.5 65t12.5 65.5t34.5 52.5t51.5 34.5t64.5 12.5q27 0 50 -9t37 -21v27h95v-323h-95v26z
" />
    <glyph glyph-name="ordmasculine" horiz-adv-x="372" 
d="M189 692q36 0 68 -13t55 -35.5t36.5 -53.5t13.5 -66q0 -36 -13.5 -66.5t-36.5 -53.5t-55 -36t-68 -13t-67.5 13t-54.5 36t-36.5 53.5t-13.5 66.5q0 35 13.5 66t36.5 53.5t54.5 35.5t67.5 13zM189 602q-33 0 -55.5 -22.5t-22.5 -57.5q0 -33 22.5 -56t55.5 -23
q34 0 56.5 23t22.5 56q0 35 -22.5 57.5t-56.5 22.5z" />
    <glyph glyph-name="cedilla" horiz-adv-x="400" 
d="M200 -42q40 0 64.5 -23.5t24.5 -61.5q0 -37 -26.5 -63.5t-71.5 -26.5q-43 0 -69.5 26t-28.5 64h71q2 -11 9.5 -18.5t18.5 -7.5t19 7.5t8 18.5q0 12 -7.5 19.5t-19.5 7.5h-76l49 109h60z" />
    <glyph glyph-name="zero.slash" horiz-adv-x="591" 
d="M32 447q0 52 18.5 97t52.5 78t81.5 52t105.5 19t106 -19t82 -52t52.5 -78t18.5 -97v-213q0 -53 -18.5 -97.5t-52.5 -77.5t-82 -51.5t-106 -18.5t-105.5 18.5t-81.5 51.5t-52.5 77.5t-18.5 97.5v213zM174 235q0 -39 20 -67l105 391h-9q-51 0 -83.5 -31t-32.5 -82v-211z
M293 122q49 1 81 32t32 81v211q0 32 -13 54z" />
    <glyph glyph-name="four.alt" horiz-adv-x="594" 
d="M188 263h164v147h147v-147h67v-129h-67v-134h-147v134h-325v129l304 424h168z" />
    <glyph glyph-name="zero.dnom" horiz-adv-x="335" 
d="M17 254q0 63 41 102.5t109 39.5q69 0 109.5 -39.5t40.5 -102.5v-119q0 -63 -40.5 -102t-109.5 -39q-34 0 -61.5 10t-47 29t-30.5 44.5t-11 57.5v119zM219 250q0 26 -14 41t-38 15t-38 -15t-14 -41v-111q0 -25 14 -40.5t38 -15.5t38 15.5t14 40.5v111z" />
    <glyph glyph-name="one.dnom" horiz-adv-x="174" 
d="M60 0v303h-46v88h142v-391h-96z" />
    <glyph glyph-name="two.dnom" horiz-adv-x="320" 
d="M10 310q23 38 60 62.5t92 24.5q68 0 105.5 -35.5t37.5 -87.5q0 -22 -5 -40.5t-17 -36.5t-30.5 -37t-45.5 -42l-49 -38h148v-80h-280v77l132 111q26 22 40 39t14 40q0 21 -14 33.5t-38 12.5q-26 0 -43.5 -13.5t-31.5 -34.5z" />
    <glyph glyph-name="three.dnom" horiz-adv-x="331" 
d="M222 256q43 -10 68 -41.5t25 -77.5q0 -30 -11 -56.5t-31 -46t-48 -30.5t-63 -11q-54 0 -90 23.5t-56 62.5l77 45q11 -22 27.5 -35t42.5 -13q28 0 44 16.5t16 42.5q0 25 -16.5 39.5t-43.5 14.5q-25 0 -44 -13l-41 63l100 70h-137v82h249v-86z" />
    <glyph glyph-name="four.dnom" horiz-adv-x="345" 
d="M329 156v-81h-38v-75h-93v75h-182v81l170 237h105v-237h38zM198 156v114l-82 -114h82z" />
    <glyph glyph-name="five.dnom" horiz-adv-x="331" 
d="M128 308l-10 -52q8 5 25.5 10t37.5 5q28 0 52.5 -9.5t43 -26.5t29 -41.5t10.5 -54.5q0 -31 -11 -58t-31 -46.5t-48 -30.5t-62 -11q-54 0 -90 23t-56 63l77 45q10 -19 25.5 -33.5t42.5 -14.5q26 0 43.5 16.5t17.5 44.5q0 26 -17 42t-44 16q-23 0 -38.5 -12t-23.5 -26
l-77 22l39 213h218v-84h-153z" />
    <glyph glyph-name="six.dnom" horiz-adv-x="322" 
d="M158 273q5 1 10 1.5t10 0.5q29 0 53.5 -10.5t42.5 -29t28 -43.5t10 -54t-10.5 -55t-30 -46t-47 -32t-61.5 -12t-61.5 11t-47 31t-30 46.5t-10.5 58.5q0 25 7 49t20 48l87 155h98zM163 198q-26 0 -44 -18t-18 -44t18 -44t44 -18t43.5 18t17.5 44t-17.5 44t-43.5 18z" />
    <glyph glyph-name="seven.dnom" horiz-adv-x="309" 
d="M149 0h-105l151 303h-179v88h276v-86z" />
    <glyph glyph-name="eight.dnom" horiz-adv-x="327" 
d="M163 397q56 0 88 -32t32 -77q0 -41 -32 -71q24 -14 39 -39t15 -55q0 -27 -10 -51t-29 -41t-45 -27t-58 -10q-65 0 -104 36t-39 93q0 30 15 54.5t38 38.5q-30 32 -30 72q0 46 31.5 77.5t88.5 31.5zM163 326q-18 0 -29 -11t-11 -29q0 -17 11 -27.5t29 -10.5q17 0 28 10.5
t11 27.5q0 18 -11 29t-28 11zM163 175q-24 0 -39.5 -15t-15.5 -38q0 -24 15.5 -39t39.5 -15q23 0 39 15t16 39q0 23 -16 38t-39 15z" />
    <glyph glyph-name="nine.dnom" horiz-adv-x="322" 
d="M167 117q-5 -1 -10 -1.5t-11 -0.5q-29 0 -53.5 10.5t-42 28.5t-27.5 43t-10 54q0 28 10.5 54.5t30 46.5t46.5 32t61 12t61.5 -11t47 -30.5t30 -46.5t10.5 -58q0 -26 -7 -49.5t-21 -48.5l-84 -152h-98zM161 315q-26 0 -43.5 -18t-17.5 -44t17.5 -44t43.5 -18q27 0 44.5 18
t17.5 44t-17.5 44t-44.5 18z" />
    <glyph glyph-name="onesuperior" horiz-adv-x="174" 
d="M60 294v303h-46v88h142v-391h-96z" />
    <glyph glyph-name="twosuperior" horiz-adv-x="320" 
d="M10 604q23 38 60 62.5t92 24.5q68 0 105.5 -35.5t37.5 -87.5q0 -22 -5 -40.5t-17 -36.5t-30.5 -37t-45.5 -42l-49 -38h148v-80h-280v77l132 111q26 22 40 39t14 40q0 21 -14 33.5t-38 12.5q-26 0 -43.5 -13.5t-31.5 -34.5z" />
    <glyph glyph-name="threesuperior" horiz-adv-x="331" 
d="M222 550q43 -10 68 -41.5t25 -77.5q0 -30 -11 -56.5t-31 -46t-48 -30.5t-63 -11q-54 0 -90 23.5t-56 62.5l77 45q11 -22 27.5 -35t42.5 -13q28 0 44 16.5t16 42.5q0 25 -16.5 39.5t-43.5 14.5q-25 0 -44 -13l-41 63l100 70h-137v82h249v-86z" />
    <glyph glyph-name="onequarter" horiz-adv-x="724" 
d="M60 294v303h-46v88h142v-391h-96zM694 156v-81h-38v-75h-93v75h-182v81l170 237h105v-237h38zM563 156v114l-82 -114h82zM104 0l306 685h132l-306 -685h-132z" />
    <glyph glyph-name="onehalf" horiz-adv-x="738" 
d="M60 294v303h-46v88h142v-391h-96zM420 310q23 38 60 62.5t92 24.5q68 0 105.5 -35.5t37.5 -87.5q0 -22 -5 -40.5t-17 -36.5t-30.5 -37t-45.5 -42l-49 -38h148v-80h-280v77l132 111q26 22 40 39t14 40q0 21 -14 33.5t-38 12.5q-26 0 -43.5 -13.5t-31.5 -34.5zM104 0
l306 685h132l-306 -685h-132z" />
    <glyph glyph-name="threequarters" horiz-adv-x="844" 
d="M222 550q43 -10 68 -41.5t25 -77.5q0 -30 -11 -56.5t-31 -46t-48 -30.5t-63 -11q-54 0 -90 23.5t-56 62.5l77 45q11 -22 27.5 -35t42.5 -13q28 0 44 16.5t16 42.5q0 25 -16.5 39.5t-43.5 14.5q-25 0 -44 -13l-41 63l100 70h-137v82h249v-86zM814 156v-81h-38v-75h-93v75
h-182v81l170 237h105v-237h38zM683 156v114l-82 -114h82zM224 0l306 685h132l-306 -685h-132z" />
    <glyph glyph-name="space.em" horiz-adv-x="1000" 
 />
    <glyph glyph-name="space.en" horiz-adv-x="500" 
 />
    <glyph glyph-name="space.thin" horiz-adv-x="0" 
 />
    <glyph glyph-name="space.half" horiz-adv-x="150" 
 />
    <glyph glyph-name="daggerdbl" horiz-adv-x="387" 
d="M371 460v-128h-109v-169h109v-128h-109v-178h-137v178h-109v128h109v169h-109v128h109v170h137v-170h109z" />
    <glyph glyph-name="exclamdown" horiz-adv-x="218" 
d="M175 685v-139h-139v139h139zM36 504h139v-504h-139v504z" />
    <glyph glyph-name="questiondown" horiz-adv-x="485" 
d="M332 685v-139h-139v139h139zM478 194q-11 -91 -71 -146.5t-162 -55.5q-54 0 -96 17.5t-71 47t-44 69t-15 83.5q0 84 48 139.5t126 73.5v82h139v-183q-34 0 -66.5 -3.5t-57.5 -15.5t-40 -33.5t-15 -57.5q0 -42 26.5 -68t68.5 -26q45 0 67.5 22t30.5 55h132z" />
    <glyph glyph-name="brokenbar" horiz-adv-x="195" 
d="M28 361v324h140v-324h-140zM28 -143v323h140v-323h-140z" />
    <glyph glyph-name="cent" horiz-adv-x="586" 
d="M373 129q31 9 51.5 29t36.5 46l116 -74q-33 -54 -84 -91t-120 -48v-84h-110v84q-54 9 -99 34.5t-76.5 63.5t-49 86.5t-17.5 102.5t17.5 102.5t49 87t76.5 64t99 34.5v87h110v-87q71 -12 121.5 -49.5t83.5 -92.5l-117 -74q-16 26 -36.5 46.5t-51.5 29.5v-297zM263 422
q-42 -16 -66 -53.5t-24 -90.5q0 -54 24 -91.5t66 -53.5v289z" />
    <glyph glyph-name="sterling" horiz-adv-x="582" 
d="M251 174q25 -6 48 -14t45.5 -15.5t44.5 -13t45 -5.5q24 0 46.5 7t39.5 16q20 10 39 23v-136q-18 -13 -41 -24q-20 -9 -48.5 -16.5t-65.5 -7.5q-38 0 -69.5 9t-61 19.5t-57.5 19.5t-59 9q-24 0 -47 -7.5t-40 -16.5q-20 -11 -38 -24v137q9 6 20 13q10 5 23.5 12t32.5 12v78
h-76v136h76v89q0 48 15.5 89t45 71t71.5 47t95 17q88 0 142 -39t84 -99l-126 -66q-14 27 -35 47.5t-61 20.5t-64 -25t-24 -68v-84h180v-136h-180v-75z" />
    <glyph glyph-name="yen" horiz-adv-x="565" 
d="M535 392v-116h-177v-36h177v-117h-177v-123h-152v123h-177v117h177v36h-177v116h132l-157 293h164l115 -238l116 238h161l-157 -293h132z" />
    <glyph glyph-name="Euro" horiz-adv-x="582" 
d="M239 209q5 -38 31.5 -61t67.5 -23t66 20t40 49l122 -71q-32 -59 -88.5 -96t-141.5 -37q-55 0 -99 16.5t-75 45.5t-49 69.5t-20 87.5h-76v113h75v42h-75v112h76q1 47 19 87.5t49.5 70t75.5 46.5t99 17q86 0 141.5 -36.5t87.5 -96.5l-124 -70q-14 29 -39 48t-64 19
q-42 0 -68.5 -22.5t-30.5 -62.5h148v-112h-149v-42h149v-113h-148v0z" />
    <glyph glyph-name="florin" horiz-adv-x="374" 
d="M306 577q-34 0 -51 -13.5t-17 -45.5v-5h116v-123h-116v-351q0 -115 -59 -164.5t-166 -49.5v122q44 0 65.5 22t21.5 70v351h-80v123h80v6q0 83 49.5 127t151.5 44h53v-113h-48z" />
    <glyph glyph-name="plusminus" horiz-adv-x="440" 
d="M422 421v-126h-137v-140h-130v140h-137v126h137v141h130v-141h137zM18 0v123h404v-123h-404z" />
    <glyph glyph-name="divide" horiz-adv-x="440" 
d="M150 374v131h140v-131h-140zM18 219v131h404v-131h-404zM150 65v131h140v-131h-140z" />
    <glyph glyph-name="multiply" horiz-adv-x="417" 
d="M303 285l102 -107l-99 -100l-98 103l-97 -103l-100 100l100 107l-100 107l101 98l96 -101l97 101l100 -98z" />
    <glyph glyph-name="space.quarter" horiz-adv-x="100" 
 />
    <glyph glyph-name="afii10067.bgr" horiz-adv-x="498" 
d="M254 -13q-52 0 -95 16.5t-74 47.5t-48 75t-17 98v259q0 45 15 84t43 68.5t68.5 46t91.5 16.5q50 0 89 -16t66 -43t41.5 -61.5t14.5 -70.5q0 -41 -16 -74t-45 -56q48 -29 72 -73t24 -96q0 -41 -15.5 -81t-45.5 -71t-72.5 -50t-96.5 -19zM159 420h71q40 0 61 22.5t21 52.5
q0 34 -21 55.5t-53 21.5q-35 0 -57 -22t-22 -61v-69zM159 299v-83q0 -50 25.5 -77t67.5 -27q43 0 68.5 27t25.5 67q0 38 -26.5 65.5t-70.5 27.5h-90z" />
    <glyph glyph-name="afii10068.bgr" horiz-adv-x="481" 
d="M242 194q-33 -9 -53 -21.5t-20 -33.5q0 -17 14.5 -30.5t46.5 -13.5q25 0 41 6.5t26 16t14 21t4 22.5h146q-1 -37 -17 -68t-45 -54t-70 -36t-92 -13q-45 0 -85 9.5t-69 28t-46 46.5t-17 66q0 47 21 76t52.5 47t68.5 28q22 6 42 12q18 5 37 11q21 6 42 19t21 36
q0 22 -17 31.5t-41 9.5q-41 0 -54 -17.5t-15 -43.5h-144q6 78 62.5 124t152.5 46q41 0 78 -10.5t65 -30t44.5 -47t16.5 -62.5q0 -48 -20.5 -79.5t-52 -49t-63.5 -26.5l-33 -9z" />
    <glyph glyph-name="afii10069.bgr" horiz-adv-x="588" 
d="M286 396q-27 0 -51 -10.5t-42 -29t-28.5 -43t-10.5 -52.5q0 -29 10.5 -53.5t28.5 -42.5t42 -28.5t51 -10.5q30 0 55 10.5t43.5 28.5t29 42.5t10.5 53.5q0 28 -10.5 52.5t-29 43t-44 29t-54.5 10.5zM285 -188q-87 0 -147.5 31.5t-100.5 88.5l100 68q23 -32 59.5 -51.5
t86.5 -19.5q65 0 102 27t37 82v14q-56 -47 -148 -47q-51 0 -97.5 19.5t-81.5 54t-55.5 81.5t-20.5 102q0 54 20.5 101.5t55.5 82.5t81.5 55t97.5 20t88 -14t60 -32v38h138v-463q0 -50 -18 -93t-53 -75.5t-86.5 -51t-117.5 -18.5z" />
    <glyph glyph-name="afii10072.bgr" horiz-adv-x="754" 
d="M307 211l-145 -211h-163l182 251l-175 262h151l150 -230v436h140v-436l150 230h150l-173 -256l181 -257h-165l-143 211v-211h-140v211z" />
    <glyph glyph-name="afii10073.bgr" horiz-adv-x="480" 
d="M229 -189q-75 0 -127 23t-96 70l86 93q33 -36 64.5 -49.5t67.5 -13.5q49 0 77 24.5t28 65.5q0 38 -26 63t-77 25h-64v125h59q38 0 61.5 22t23.5 59q0 35 -23.5 57t-58.5 22t-61 -14.5t-45 -40.5l-94 78q37 48 89 74.5t115 26.5q48 0 87.5 -15t68 -41.5t44.5 -62t16 -76.5
q0 -42 -17.5 -79.5t-48.5 -63.5q42 -26 66 -65.5t24 -96.5q0 -42 -16.5 -80.5t-47.5 -67t-75.5 -45.5t-99.5 -17z" />
    <glyph glyph-name="afii10074.bgr" 
d="M375 0v51q-26 -28 -64 -44t-85 -16q-45 0 -81.5 15t-62.5 42t-40 65t-14 85v315h138v-291q0 -46 25 -74.5t70 -28.5q51 0 82 30t31 84v280h138v-513h-137z" />
    <glyph glyph-name="afii10075.bgr" 
d="M375 0v51q-26 -28 -64 -44t-85 -16q-45 0 -81.5 15t-62.5 42t-40 65t-14 85v315h138v-291q0 -46 25 -74.5t70 -28.5q51 0 82 30t31 84v280h138v-513h-137zM270 548q-58 0 -94 16t-47 28v116q23 -20 58 -35.5t83 -15.5t83 15.5t58 35.5v-116q-11 -12 -47 -28t-94 -16z" />
    <glyph glyph-name="afii10076.bgr" horiz-adv-x="503" 
d="M338 513h158l-197 -255l205 -258h-173l-163 211v-211h-140v685h140v-402z" />
    <glyph glyph-name="afii10077.bgr" 
d="M378 0l-110 377l-111 -377h-147l167 513h186l167 -513h-152z" />
    <glyph glyph-name="afii10079.bgr" horiz-adv-x="531" 
d="M364 0v197h-197v-197h-139v513h139v-193h197v193h139v-513h-139z" />
    <glyph glyph-name="afii10081.bgr" 
d="M165 461q19 22 57 41.5t92 19.5q45 0 81.5 -15t62.5 -42t40 -65.5t14 -84.5v-315h-138v291q0 46 -24.5 74.5t-69.5 28.5q-51 0 -82 -30t-31 -84v-280h-139v513h137v-52z" />
    <glyph glyph-name="afii10084.bgr" horiz-adv-x="850" 
d="M165 462q10 10 23.5 20.5t31.5 19.5t39.5 14.5t47.5 5.5q44 0 81.5 -16.5t65.5 -53.5q30 32 71 51t97 19q47 0 84 -14.5t63 -41.5t39.5 -64.5t13.5 -83.5v-318h-138v295q0 45 -22.5 72t-63.5 27q-47 0 -75.5 -29.5t-28.5 -81.5v-283h-137v295q0 45 -22.5 72t-63.5 27
q-47 0 -75.5 -29.5t-28.5 -81.5v-283h-139v513h137v-51z" />
    <glyph glyph-name="afii10088.bgr" horiz-adv-x="603" 
d="M464 -141v141h-89v51q-26 -28 -64 -44t-85 -16q-45 0 -81.5 15t-62.5 42t-40 65t-14 85v315h138v-291q0 -46 25 -74.5t70 -28.5q51 0 82 30t31 84v280h138v-390h81v-254z" />
    <glyph glyph-name="afii10089.bgr" horiz-adv-x="502" 
d="M474 0h-137v217q-55 -51 -137 -51q-42 0 -75 14.5t-56.5 41t-36 63.5t-12.5 82v146h138v-124q0 -42 21 -68.5t62 -26.5t68 26.5t27 74.5v118h138v-513z" />
    <glyph glyph-name="afii10090.bgr" horiz-adv-x="830" 
d="M665 0v51q-10 -10 -23 -20.5t-30 -19.5t-38 -14.5t-46 -5.5q-42 0 -78 17t-64 53q-29 -31 -69 -50.5t-94 -19.5q-46 0 -82 14.5t-61 41.5t-38.5 64.5t-13.5 83.5v318h138v-295q0 -45 21.5 -72t59.5 -27q45 0 72 29.5t27 81.5v283h137v-295q0 -45 21.5 -72t59.5 -27
q45 0 72 29.5t27 81.5v283h139v-513h-137z" />
    <glyph glyph-name="afii10091.bgr" horiz-adv-x="893" 
d="M754 -141v141h-89v51q-10 -10 -23 -20.5t-30 -19.5t-38 -14.5t-46 -5.5q-42 0 -78 17t-64 53q-29 -31 -69 -50.5t-94 -19.5q-46 0 -82 14.5t-61 41.5t-38.5 64.5t-13.5 83.5v318h138v-295q0 -45 21.5 -72t59.5 -27q45 0 72 29.5t27 81.5v283h137v-295q0 -45 21.5 -72
t59.5 -27q45 0 72 29.5t27 81.5v283h139v-390h81v-254z" />
    <glyph glyph-name="afii10092.bgr" horiz-adv-x="567" 
d="M344 -12q-42 0 -80 13.5t-66.5 39t-45.5 63t-17 85.5v201h-120v123h259v-129h68q48 0 87 -14.5t66.5 -40.5t42 -62t14.5 -79q0 -44 -16 -81t-44.5 -63.5t-66.5 -41t-81 -14.5zM343 113q29 0 49.5 19t20.5 54q0 30 -20 51t-58 21h-61v-78q0 -27 18 -47t51 -20z" />
    <glyph glyph-name="afii10094.bgr" horiz-adv-x="460" 
d="M237 -12q-42 0 -80 13.5t-66.5 39t-45.5 63t-17 85.5v324h139v-129h68q48 0 87 -14.5t66.5 -40.5t42 -62t14.5 -79q0 -44 -16 -81t-44.5 -63.5t-66.5 -41t-81 -14.5zM236 113q29 0 49.5 19t20.5 54q0 30 -20 51t-58 21h-61v-78q0 -27 18 -47t51 -20z" />
    <glyph glyph-name="afii10096.bgr" horiz-adv-x="759" 
d="M474 -12q-50 0 -93 15.5t-76.5 43.5t-57 66.5t-32.5 83.5h-48v-197h-139v685h139v-365h50q10 44 33.5 81t57 64t76 42.5t90.5 15.5q57 0 105.5 -21t84.5 -57t56 -85t20 -105t-20 -104.5t-56 -84.5t-84.5 -57t-105.5 -21zM346 255q0 -32 10 -58t27 -44.5t40.5 -29
t50.5 -10.5t50.5 10.5t40.5 29t27 44.5t10 58q0 31 -10 57.5t-27 45t-40.5 29t-50.5 10.5t-50.5 -10.5t-40.5 -29t-27 -45t-10 -57.5z" />
    <glyph glyph-name="afii10066.locl" horiz-adv-x="569" 
d="M284 -12q-57 0 -105.5 20t-84 54.5t-55.5 81.5t-20 101t27 105t81 83q-38 20 -55.5 51t-17.5 67q0 25 10 49t29.5 43t48 30.5t65.5 11.5h108q66 0 109 1t69 7v-112q-26 -7 -69.5 -9t-108.5 -2h-93q-17 0 -25 -8.5t-8 -19.5q0 -8 6 -16.5t21 -11.5l77 -14q50 -9 96.5 -27
t82 -48t57 -74t21.5 -106q0 -54 -20 -100.5t-56 -81.5t-84.5 -55t-105.5 -20zM284 367q-27 0 -50.5 -9.5t-40.5 -26.5t-27 -40.5t-10 -50.5t9.5 -50.5t26 -41t39.5 -27t50 -9.5t51 9.5t41.5 27t28 41t10.5 50.5t-10 50.5t-27 40.5t-40.5 26.5t-50.5 9.5z" />
    <glyph glyph-name="afii10068.locl" horiz-adv-x="391" 
d="M376 390h-209v-390h-139v513h348v-123z" />
    <glyph glyph-name="afii10069.locl" horiz-adv-x="588" 
d="M286 396q-27 0 -51 -10.5t-42 -29t-28.5 -43t-10.5 -52.5q0 -29 10.5 -53.5t28.5 -42.5t42 -28.5t51 -10.5q30 0 55 10.5t43.5 28.5t29 42.5t10.5 53.5q0 28 -10.5 52.5t-29 43t-44 29t-54.5 10.5zM285 -188q-87 0 -147.5 31.5t-100.5 88.5l100 68q23 -32 59.5 -51.5
t86.5 -19.5q65 0 102 27t37 82v14q-56 -47 -148 -47q-51 0 -97.5 19.5t-81.5 54t-55.5 81.5t-20.5 102q0 54 20.5 101.5t55.5 82.5t81.5 55t97.5 20t88 -14t60 -32v38h138v-463q0 -50 -18 -93t-53 -75.5t-86.5 -51t-117.5 -18.5z" />
    <glyph glyph-name="afii10081.locl" horiz-adv-x="531" 
d="M364 0v390h-197v-390h-139v513h475v-513h-139z" />
    <glyph glyph-name="afii10084.locl" horiz-adv-x="469" 
d="M454 390h-150v-390h-139v390h-150v123h439v-123z" />
    <glyph glyph-name="cyr_breve" horiz-adv-x="400" 
d="M200 548q-58 0 -94 16t-47 28v116q23 -20 58 -35.5t83 -15.5t83 15.5t58 35.5v-116q-11 -12 -47 -28t-94 -16z" />
    <glyph glyph-name="cyr_breve.uc" horiz-adv-x="400" 
d="M200 718q-58 0 -94 15t-47 27v120q23 -20 58 -36.5t83 -16.5t83 16.5t58 36.5v-120q-11 -12 -47 -27t-94 -15z" />
    </font>
</defs>
</svg>
